<?xml version="1.0" encoding="UTF-8" standalone="no"?>
<svg width="180px" height="60px" viewBox="0 0 180 60" version="1.1" xmlns="http://www.w3.org/2000/svg" xmlns:xlink="http://www.w3.org/1999/xlink" xmlns:sketch="http://www.bohemiancoding.com/sketch/ns">
    <!-- Generator: Sketch 3.2 (9961) - http://www.bohemiancoding.com/sketch -->
    <title>powered by BitShares outlined - Button</title>
    <desc>Created with Sketch.</desc>
    <defs>
        <radialGradient cx="93.3516551%" cy="7.44297596%" fx="93.3516551%" fy="7.44297596%" r="160.01179%" id="radialGradient-1">
            <stop stop-color="#00587C" offset="0%"></stop>
            <stop stop-color="#006A93" offset="21.9746492%"></stop>
            <stop stop-color="#006A93" offset="33.613997%"></stop>
            <stop stop-color="#00A9E0" offset="100%"></stop>
        </radialGradient>
        <filter x="-50%" y="-50%" width="200%" height="200%" filterUnits="objectBoundingBox" id="filter-2">
            <feOffset dx="0" dy="2" in="SourceAlpha" result="shadowOffsetOuter1"></feOffset>
            <feGaussianBlur stdDeviation="2" in="shadowOffsetOuter1" result="shadowBlurOuter1"></feGaussianBlur>
            <feColorMatrix values="0 0 0 0 0   0 0 0 0 0   0 0 0 0 0  0 0 0 0.35 0" in="shadowBlurOuter1" type="matrix" result="shadowMatrixOuter1"></feColorMatrix>
            <feMerge>
                <feMergeNode in="shadowMatrixOuter1"></feMergeNode>
                <feMergeNode in="SourceGraphic"></feMergeNode>
            </feMerge>
        </filter>
        <filter x="-50%" y="-50%" width="200%" height="200%" filterUnits="objectBoundingBox" id="filter-3">
            <feOffset dx="0" dy="2" in="SourceAlpha" result="shadowOffsetOuter1"></feOffset>
            <feGaussianBlur stdDeviation="3" in="shadowOffsetOuter1" result="shadowBlurOuter1"></feGaussianBlur>
            <feColorMatrix values="0 0 0 0 0   0 0 0 0 0   0 0 0 0 0  0 0 0 0.175 0" in="shadowBlurOuter1" type="matrix" result="shadowMatrixOuter1"></feColorMatrix>
            <feMerge>
                <feMergeNode in="shadowMatrixOuter1"></feMergeNode>
                <feMergeNode in="SourceGraphic"></feMergeNode>
            </feMerge>
        </filter>
        <filter x="-50%" y="-50%" width="200%" height="200%" filterUnits="objectBoundingBox" id="filter-4">
            <feOffset dx="0" dy="1" in="SourceAlpha" result="shadowOffsetOuter1"></feOffset>
            <feGaussianBlur stdDeviation="2" in="shadowOffsetOuter1" result="shadowBlurOuter1"></feGaussianBlur>
            <feColorMatrix values="0 0 0 0 0   0 0 0 0 0   0 0 0 0 0  0 0 0 0.35 0" in="shadowBlurOuter1" type="matrix" result="shadowMatrixOuter1"></feColorMatrix>
            <feMerge>
                <feMergeNode in="shadowMatrixOuter1"></feMergeNode>
                <feMergeNode in="SourceGraphic"></feMergeNode>
            </feMerge>
        </filter>
    </defs>
    <g id="powered-by-" stroke="none" stroke-width="1" fill="none" fill-rule="evenodd" sketch:type="MSPage">
        <g id="powered-by-BitShares-outlined---Button" sketch:type="MSArtboardGroup">
            <g id="Rectangle-276" sketch:type="MSLayerGroup" transform="translate(8.000000, 6.000000)" filter="url(#filter-2)" fill="url(#radialGradient-1)">
                <rect sketch:type="MSShapeGroup" x="0" y="0" width="151" height="48" rx="24"></rect>
            </g>
            <g id="Logo-2" sketch:type="MSLayerGroup" transform="translate(116.000000, 13.000000)" filter="url(#filter-3)" fill="#FFFFFF">
                <path d="M6.48713153,22.9965791 L0.053807607,22.9965791 C0.207556211,25.2464816 1.08274057,27.2930968 2.44537525,28.8959391 L6.99498891,24.247578 C6.75288704,23.8739368 6.57733999,23.4510139 6.48713153,22.9965791 Z M8.02278379,25.236151 L3.44368685,29.8549226 C5.02264555,31.2382705 7.03876459,32.1267584 9.2549084,32.2826087 L9.2549084,25.7517282 C8.80724502,25.6599131 8.39085739,25.481933 8.02278379,25.236151 Z M11.7784156,25.236151 C11.410342,25.481933 10.9939544,25.6599131 10.546291,25.7517282 L10.546291,32.2826087 C12.7624348,32.1267584 14.7785538,31.2380351 16.3575125,29.8549226 L11.7784156,25.236151 Z M13.3140678,22.9965791 C13.2238594,23.4510139 13.0483123,23.8739368 12.8062105,24.247341 L17.3558241,28.8959391 C18.7184588,27.2930968 19.5936432,25.2464816 19.7473918,22.9965791 L13.3140678,22.9965791 Z M13.3140678,21.6309865 L19.7473918,21.6309865 C19.5936432,19.3812306 18.7184588,17.3345332 17.3558241,15.7316266 L12.8062105,20.3801744 C13.0483123,20.7538305 13.2238594,21.1765335 13.3140678,21.6309865 Z M11.7784156,19.2821673 L16.3575125,14.6635499 C14.7785538,13.2802483 12.7624348,12.3915546 10.546291,12.2357096 L10.546291,18.7663719 C10.9939544,18.8581839 11.410342,19.0363935 11.7784156,19.2821673 Z M0,11.2488209 L7.92686807,19.336791 C8.29144667,19.0908372 8.70388054,18.9124971 9.14729319,18.8208534 L9.14729319,8.33671824 L0,0.0546237034 L0,11.2488209 Z M6.9411813,20.3832814 C6.69993377,20.7560094 6.52500621,21.1776623 6.43511608,21.6309865 L0,21.6309865 L0,13.2735599 L6.9411813,20.3832814 Z" id="Fill-1" sketch:type="MSShapeGroup"></path>
            </g>
            <path d="M33.448,33.144 C33.448,30.632 32.04,29.096 30.008,29.096 C28.92,29.096 27.96,29.656 27.4,30.44 L27.4,29.768 C27.4,29.464 27.128,29.192 26.824,29.192 C26.472,29.192 26.2,29.464 26.2,29.768 L26.2,39.48 C26.2,39.784 26.472,40.056 26.792,40.056 C27.128,40.056 27.4,39.784 27.4,39.48 L27.4,35.848 C28.024,36.712 28.952,37.208 30.008,37.208 C32.04,37.208 33.448,35.64 33.448,33.144 L33.448,33.144 Z M32.184,33.144 C32.184,34.856 31.256,36.136 29.704,36.136 C28.76,36.136 27.816,35.56 27.4,34.888 L27.4,31.4 C27.816,30.728 28.76,30.168 29.704,30.168 C31.256,30.168 32.184,31.432 32.184,33.144 L32.184,33.144 Z M42.552,33.144 C42.552,30.904 41.08,29.096 38.728,29.096 C36.376,29.096 34.904,30.904 34.904,33.144 C34.904,35.384 36.376,37.208 38.728,37.208 C41.08,37.208 42.552,35.384 42.552,33.144 L42.552,33.144 Z M41.288,33.144 C41.288,34.728 40.376,36.136 38.728,36.136 C37.08,36.136 36.152,34.728 36.152,33.144 C36.152,31.576 37.08,30.168 38.728,30.168 C40.376,30.168 41.288,31.576 41.288,33.144 L41.288,33.144 Z M54.68,29.768 C54.68,29.464 54.424,29.192 54.088,29.192 C53.832,29.192 53.592,29.352 53.512,29.592 L51.72,35.448 L49.8,29.64 C49.704,29.368 49.464,29.192 49.192,29.192 C48.872,29.192 48.648,29.368 48.552,29.64 L46.632,35.448 L44.84,29.592 C44.76,29.352 44.504,29.192 44.248,29.192 C43.912,29.192 43.672,29.496 43.672,29.768 C43.672,29.816 43.688,29.88 43.704,29.928 L45.832,36.584 C45.928,36.888 46.2,37.112 46.536,37.112 L46.552,37.112 C46.904,37.112 47.208,36.888 47.304,36.584 L49.176,30.808 L51.048,36.584 C51.144,36.888 51.432,37.112 51.768,37.112 L51.784,37.112 C52.136,37.112 52.424,36.888 52.52,36.584 L54.648,29.928 C54.664,29.88 54.68,29.816 54.68,29.768 L54.68,29.768 Z M63.304,32.888 C63.304,32.616 63.24,32.328 63.192,32.088 C62.792,30.312 61.528,29.096 59.608,29.096 C57.4,29.096 55.8,30.904 55.8,33.144 C55.8,35.56 57.448,37.208 59.736,37.208 C60.68,37.208 62.68,36.744 62.68,35.912 C62.68,35.608 62.408,35.416 62.2,35.416 C62.104,35.416 62.008,35.448 61.928,35.496 C61.32,35.976 60.584,36.216 59.848,36.216 C58.184,36.216 57.16,35 57.064,33.544 L62.648,33.544 C63.016,33.544 63.304,33.24 63.304,32.888 L63.304,32.888 Z M62.136,32.664 L57.064,32.664 C57.128,31.48 57.944,30.088 59.592,30.088 C61.352,30.088 62.12,31.512 62.136,32.664 L62.136,32.664 Z M69.128,29.72 C69.128,29.4 68.872,29.16 68.584,29.16 C67.688,29.16 66.92,29.928 66.456,30.536 L66.456,29.768 C66.456,29.464 66.184,29.192 65.88,29.192 C65.528,29.192 65.256,29.464 65.256,29.768 L65.256,36.52 C65.256,36.84 65.512,37.096 65.832,37.112 L65.848,37.112 C66.184,37.112 66.456,36.84 66.456,36.52 L66.456,31.544 C66.968,30.776 67.72,30.424 68.504,30.376 C68.856,30.36 69.128,30.072 69.128,29.72 L69.128,29.72 Z M77.592,32.888 C77.592,32.616 77.528,32.328 77.48,32.088 C77.08,30.312 75.816,29.096 73.896,29.096 C71.688,29.096 70.088,30.904 70.088,33.144 C70.088,35.56 71.736,37.208 74.024,37.208 C74.968,37.208 76.968,36.744 76.968,35.912 C76.968,35.608 76.696,35.416 76.488,35.416 C76.392,35.416 76.296,35.448 76.216,35.496 C75.608,35.976 74.872,36.216 74.136,36.216 C72.472,36.216 71.448,35 71.352,33.544 L76.936,33.544 C77.304,33.544 77.592,33.24 77.592,32.888 L77.592,32.888 Z M76.424,32.664 L71.352,32.664 C71.416,31.48 72.232,30.088 73.88,30.088 C75.64,30.088 76.408,31.512 76.424,32.664 L76.424,32.664 Z M86.344,36.52 L86.344,26.824 C86.344,26.52 86.072,26.248 85.768,26.248 C85.416,26.248 85.144,26.52 85.144,26.824 L85.144,30.456 C84.52,29.608 83.576,29.096 82.536,29.096 C80.504,29.096 79.096,30.696 79.096,33.16 C79.096,35.672 80.52,37.208 82.536,37.208 C83.624,37.208 84.568,36.648 85.144,35.864 L85.144,36.52 C85.144,36.84 85.416,37.112 85.736,37.112 C86.072,37.112 86.344,36.84 86.344,36.52 L86.344,36.52 Z M85.144,34.92 C84.712,35.592 83.784,36.136 82.824,36.136 C81.272,36.136 80.344,34.872 80.344,33.16 C80.344,31.448 81.272,30.168 82.824,30.168 C83.784,30.168 84.712,30.744 85.144,31.416 L85.144,34.92 Z M100.12,33.16 C100.12,30.696 98.696,29.096 96.68,29.096 C95.624,29.096 94.696,29.608 94.072,30.456 L94.072,26.824 C94.072,26.52 93.8,26.248 93.496,26.248 C93.144,26.248 92.872,26.52 92.872,26.824 L92.872,36.52 C92.872,36.84 93.144,37.112 93.464,37.112 C93.8,37.112 94.072,36.84 94.072,36.52 L94.072,35.864 C94.648,36.648 95.592,37.208 96.68,37.208 C98.696,37.208 100.12,35.672 100.12,33.16 L100.12,33.16 Z M98.872,33.16 C98.872,34.872 97.944,36.136 96.376,36.136 C95.432,36.136 94.488,35.592 94.072,34.92 L94.072,31.416 C94.488,30.744 95.432,30.168 96.376,30.168 C97.944,30.168 98.872,31.448 98.872,33.16 L98.872,33.16 Z M108.424,29.784 C108.424,29.464 108.152,29.192 107.8,29.192 C107.56,29.192 107.336,29.336 107.24,29.56 L104.792,35.624 L102.328,29.56 C102.232,29.32 102.008,29.192 101.768,29.192 C101.416,29.192 101.16,29.48 101.16,29.784 C101.16,29.848 101.176,29.928 101.208,29.992 L104.152,37.096 L103.64,38.264 C103.352,38.904 102.984,39.096 102.504,39.08 C102.376,39.08 102.248,39.064 102.104,39.064 C101.832,39.064 101.576,39.288 101.576,39.608 C101.576,40.12 102.104,40.152 102.52,40.152 C103.512,40.152 104.328,39.688 104.792,38.584 L108.376,29.992 C108.408,29.928 108.424,29.848 108.424,29.784 L108.424,29.784 Z" id="powered-by" fill="#FFFFFF" filter="url(#filter-4)" sketch:type="MSShapeGroup"></path>
        </g>
    </g>
</svg>