<?xml version="1.0" encoding="UTF-8" standalone="no"?>
<svg width="153px" height="50px" viewBox="0 0 153 50" version="1.1" xmlns="http://www.w3.org/2000/svg" xmlns:xlink="http://www.w3.org/1999/xlink" xmlns:sketch="http://www.bohemiancoding.com/sketch/ns">
    <!-- Generator: Sketch 3.2 (9961) - http://www.bohemiancoding.com/sketch -->
    <title>powered-by-bts-outline-button</title>
    <desc>Created with Sketch.</desc>
    <defs>
        <radialGradient cx="93.3516551%" cy="7.44297596%" fx="93.3516551%" fy="7.44297596%" r="160.01179%" id="radialGradient-1">
            <stop stop-color="#00587C" offset="0%"></stop>
            <stop stop-color="#006A93" offset="21.9746492%"></stop>
            <stop stop-color="#006A93" offset="33.613997%"></stop>
            <stop stop-color="#00A9E0" offset="100%"></stop>
        </radialGradient>
    </defs>
    <g id="Page-1" stroke="none" stroke-width="1" fill="none" fill-rule="evenodd" sketch:type="MSPage">
        <g id="powered-by-bts-outline-button" sketch:type="MSLayerGroup" transform="translate(1.000000, 1.000000)">
            <g id="powered-by-" sketch:type="MSShapeGroup">
                <g id="powered-by-BitShares-gradient---Button">
                    <g id="Rectangle-276" stroke="url(#radialGradient-1)">
                        <rect id="Rectangle-path" x="0" y="0" width="151" height="48" rx="24"></rect>
                    </g>
                    <g id="Logo-2" transform="translate(108.000000, 7.000000)" fill="url(#radialGradient-1)">
                        <path d="M6.48713153,22.9965791 L0.053807607,22.9965791 C0.207556211,25.2464816 1.08274057,27.2930968 2.44537525,28.8959391 L6.99498891,24.247578 C6.75288704,23.8739368 6.57733999,23.4510139 6.48713153,22.9965791 L6.48713153,22.9965791 Z M8.02278379,25.236151 L3.44368685,29.8549226 C5.02264555,31.2382705 7.03876459,32.1267584 9.2549084,32.2826087 L9.2549084,25.7517282 C8.80724502,25.6599131 8.39085739,25.481933 8.02278379,25.236151 L8.02278379,25.236151 Z M11.7784156,25.236151 C11.410342,25.481933 10.9939544,25.6599131 10.546291,25.7517282 L10.546291,32.2826087 C12.7624348,32.1267584 14.7785538,31.2380351 16.3575125,29.8549226 L11.7784156,25.236151 L11.7784156,25.236151 Z M13.3140678,22.9965791 C13.2238594,23.4510139 13.0483123,23.8739368 12.8062105,24.247341 L17.3558241,28.8959391 C18.7184588,27.2930968 19.5936432,25.2464816 19.7473918,22.9965791 L13.3140678,22.9965791 L13.3140678,22.9965791 Z M13.3140678,21.6309865 L19.7473918,21.6309865 C19.5936432,19.3812306 18.7184588,17.3345332 17.3558241,15.7316266 L12.8062105,20.3801744 C13.0483123,20.7538305 13.2238594,21.1765335 13.3140678,21.6309865 L13.3140678,21.6309865 Z M11.7784156,19.2821673 L16.3575125,14.6635499 C14.7785538,13.2802483 12.7624348,12.3915546 10.546291,12.2357096 L10.546291,18.7663719 C10.9939544,18.8581839 11.410342,19.0363935 11.7784156,19.2821673 L11.7784156,19.2821673 Z M0,11.2488209 L7.92686807,19.336791 C8.29144667,19.0908372 8.70388054,18.9124971 9.14729319,18.8208534 L9.14729319,8.33671824 L0,0.0546237034 L0,11.2488209 L0,11.2488209 Z M6.9411813,20.3832814 C6.69993377,20.7560094 6.52500621,21.1776623 6.43511608,21.6309865 L0,21.6309865 L0,13.2735599 L6.9411813,20.3832814 L6.9411813,20.3832814 Z" id="Fill-1"></path>
                    </g>
                    <path d="M25.448,27.144 C25.448,24.632 24.04,23.096 22.008,23.096 C20.92,23.096 19.96,23.656 19.4,24.44 L19.4,23.768 C19.4,23.464 19.128,23.192 18.824,23.192 C18.472,23.192 18.2,23.464 18.2,23.768 L18.2,33.48 C18.2,33.784 18.472,34.056 18.792,34.056 C19.128,34.056 19.4,33.784 19.4,33.48 L19.4,29.848 C20.024,30.712 20.952,31.208 22.008,31.208 C24.04,31.208 25.448,29.64 25.448,27.144 L25.448,27.144 L25.448,27.144 Z M24.184,27.144 C24.184,28.856 23.256,30.136 21.704,30.136 C20.76,30.136 19.816,29.56 19.4,28.888 L19.4,25.4 C19.816,24.728 20.76,24.168 21.704,24.168 C23.256,24.168 24.184,25.432 24.184,27.144 L24.184,27.144 L24.184,27.144 Z M34.552,27.144 C34.552,24.904 33.08,23.096 30.728,23.096 C28.376,23.096 26.904,24.904 26.904,27.144 C26.904,29.384 28.376,31.208 30.728,31.208 C33.08,31.208 34.552,29.384 34.552,27.144 L34.552,27.144 L34.552,27.144 Z M33.288,27.144 C33.288,28.728 32.376,30.136 30.728,30.136 C29.08,30.136 28.152,28.728 28.152,27.144 C28.152,25.576 29.08,24.168 30.728,24.168 C32.376,24.168 33.288,25.576 33.288,27.144 L33.288,27.144 L33.288,27.144 Z M46.68,23.768 C46.68,23.464 46.424,23.192 46.088,23.192 C45.832,23.192 45.592,23.352 45.512,23.592 L43.72,29.448 L41.8,23.64 C41.704,23.368 41.464,23.192 41.192,23.192 C40.872,23.192 40.648,23.368 40.552,23.64 L38.632,29.448 L36.84,23.592 C36.76,23.352 36.504,23.192 36.248,23.192 C35.912,23.192 35.672,23.496 35.672,23.768 C35.672,23.816 35.688,23.88 35.704,23.928 L37.832,30.584 C37.928,30.888 38.2,31.112 38.536,31.112 L38.552,31.112 C38.904,31.112 39.208,30.888 39.304,30.584 L41.176,24.808 L43.048,30.584 C43.144,30.888 43.432,31.112 43.768,31.112 L43.784,31.112 C44.136,31.112 44.424,30.888 44.52,30.584 L46.648,23.928 C46.664,23.88 46.68,23.816 46.68,23.768 L46.68,23.768 L46.68,23.768 Z M55.304,26.888 C55.304,26.616 55.24,26.328 55.192,26.088 C54.792,24.312 53.528,23.096 51.608,23.096 C49.4,23.096 47.8,24.904 47.8,27.144 C47.8,29.56 49.448,31.208 51.736,31.208 C52.68,31.208 54.68,30.744 54.68,29.912 C54.68,29.608 54.408,29.416 54.2,29.416 C54.104,29.416 54.008,29.448 53.928,29.496 C53.32,29.976 52.584,30.216 51.848,30.216 C50.184,30.216 49.16,29 49.064,27.544 L54.648,27.544 C55.016,27.544 55.304,27.24 55.304,26.888 L55.304,26.888 L55.304,26.888 Z M54.136,26.664 L49.064,26.664 C49.128,25.48 49.944,24.088 51.592,24.088 C53.352,24.088 54.12,25.512 54.136,26.664 L54.136,26.664 L54.136,26.664 Z M61.128,23.72 C61.128,23.4 60.872,23.16 60.584,23.16 C59.688,23.16 58.92,23.928 58.456,24.536 L58.456,23.768 C58.456,23.464 58.184,23.192 57.88,23.192 C57.528,23.192 57.256,23.464 57.256,23.768 L57.256,30.52 C57.256,30.84 57.512,31.096 57.832,31.112 L57.848,31.112 C58.184,31.112 58.456,30.84 58.456,30.52 L58.456,25.544 C58.968,24.776 59.72,24.424 60.504,24.376 C60.856,24.36 61.128,24.072 61.128,23.72 L61.128,23.72 L61.128,23.72 Z M69.592,26.888 C69.592,26.616 69.528,26.328 69.48,26.088 C69.08,24.312 67.816,23.096 65.896,23.096 C63.688,23.096 62.088,24.904 62.088,27.144 C62.088,29.56 63.736,31.208 66.024,31.208 C66.968,31.208 68.968,30.744 68.968,29.912 C68.968,29.608 68.696,29.416 68.488,29.416 C68.392,29.416 68.296,29.448 68.216,29.496 C67.608,29.976 66.872,30.216 66.136,30.216 C64.472,30.216 63.448,29 63.352,27.544 L68.936,27.544 C69.304,27.544 69.592,27.24 69.592,26.888 L69.592,26.888 L69.592,26.888 Z M68.424,26.664 L63.352,26.664 C63.416,25.48 64.232,24.088 65.88,24.088 C67.64,24.088 68.408,25.512 68.424,26.664 L68.424,26.664 L68.424,26.664 Z M78.344,30.52 L78.344,20.824 C78.344,20.52 78.072,20.248 77.768,20.248 C77.416,20.248 77.144,20.52 77.144,20.824 L77.144,24.456 C76.52,23.608 75.576,23.096 74.536,23.096 C72.504,23.096 71.096,24.696 71.096,27.16 C71.096,29.672 72.52,31.208 74.536,31.208 C75.624,31.208 76.568,30.648 77.144,29.864 L77.144,30.52 C77.144,30.84 77.416,31.112 77.736,31.112 C78.072,31.112 78.344,30.84 78.344,30.52 L78.344,30.52 L78.344,30.52 Z M77.144,28.92 C76.712,29.592 75.784,30.136 74.824,30.136 C73.272,30.136 72.344,28.872 72.344,27.16 C72.344,25.448 73.272,24.168 74.824,24.168 C75.784,24.168 76.712,24.744 77.144,25.416 L77.144,28.92 L77.144,28.92 Z M92.12,27.16 C92.12,24.696 90.696,23.096 88.68,23.096 C87.624,23.096 86.696,23.608 86.072,24.456 L86.072,20.824 C86.072,20.52 85.8,20.248 85.496,20.248 C85.144,20.248 84.872,20.52 84.872,20.824 L84.872,30.52 C84.872,30.84 85.144,31.112 85.464,31.112 C85.8,31.112 86.072,30.84 86.072,30.52 L86.072,29.864 C86.648,30.648 87.592,31.208 88.68,31.208 C90.696,31.208 92.12,29.672 92.12,27.16 L92.12,27.16 L92.12,27.16 Z M90.872,27.16 C90.872,28.872 89.944,30.136 88.376,30.136 C87.432,30.136 86.488,29.592 86.072,28.92 L86.072,25.416 C86.488,24.744 87.432,24.168 88.376,24.168 C89.944,24.168 90.872,25.448 90.872,27.16 L90.872,27.16 L90.872,27.16 Z M100.424,23.784 C100.424,23.464 100.152,23.192 99.8,23.192 C99.56,23.192 99.336,23.336 99.24,23.56 L96.792,29.624 L94.328,23.56 C94.232,23.32 94.008,23.192 93.768,23.192 C93.416,23.192 93.16,23.48 93.16,23.784 C93.16,23.848 93.176,23.928 93.208,23.992 L96.152,31.096 L95.64,32.264 C95.352,32.904 94.984,33.096 94.504,33.08 C94.376,33.08 94.248,33.064 94.104,33.064 C93.832,33.064 93.576,33.288 93.576,33.608 C93.576,34.12 94.104,34.152 94.52,34.152 C95.512,34.152 96.328,33.688 96.792,32.584 L100.376,23.992 C100.408,23.928 100.424,23.848 100.424,23.784 L100.424,23.784 L100.424,23.784 Z" id="powered-by" fill="url(#radialGradient-1)"></path>
                </g>
            </g>
        </g>
    </g>
</svg>