<?xml version="1.0" encoding="UTF-8" standalone="no"?>
<svg width="133px" height="47px" viewBox="0 0 133 47" version="1.1" xmlns="http://www.w3.org/2000/svg" xmlns:xlink="http://www.w3.org/1999/xlink" xmlns:sketch="http://www.bohemiancoding.com/sketch/ns">
    <!-- Generator: Sketch 3.2 (9961) - http://www.bohemiancoding.com/sketch -->
    <title>Logo 2</title>
    <desc>Created with Sketch.</desc>
    <defs></defs>
    <g id="Mobile-Wallet-Design-" stroke="none" stroke-width="1" fill="none" fill-rule="evenodd" sketch:type="MSPage">
        <g id="Desktop-HD-2" sketch:type="MSArtboardGroup" transform="translate(-104.000000, -40.000000)" fill="#FFFFFF">
            <g id="Top-Navigation" sketch:type="MSLayerGroup" transform="translate(105.000000, 40.000000)">
                <g id="Logo-2" sketch:type="MSShapeGroup">
                    <path d="M9.08198414,32.0558376 L0.0753306498,32.0558376 C0.290578695,35.1920653 1.5158368,38.0449228 3.42352535,40.2791878 L9.79298447,33.7996542 C9.45404185,33.2788211 9.20827598,32.6892922 9.08198414,32.0558376" id="Fill-1"></path>
                    <path d="M11.2318973,35.177665 L4.82116159,41.6159527 C7.03170377,43.5442558 9.85427043,44.7827541 12.9568718,45 L12.9568718,35.8963484 C12.330143,35.7683637 11.7472003,35.5202702 11.2318973,35.177665" id="Fill-2"></path>
                    <path d="M16.4897818,35.177665 C15.9744788,35.5202702 15.3915361,35.7683637 14.7648074,35.8963484 L14.7648074,45 C17.8674087,44.7827541 20.6899754,43.5439277 22.9005175,41.6159527 L16.4897818,35.177665" id="Fill-3"></path>
                    <path d="M18.639695,32.0558376 C18.5134031,32.6892922 18.2676373,33.2788211 17.9286947,33.7993239 L24.2981538,40.2791878 C26.2058423,38.0449228 27.4311004,35.1920653 27.6463485,32.0558376 L18.639695,32.0558376" id="Fill-4"></path>
                    <path d="M18.639695,30.1522843 L27.6463485,30.1522843 C27.4311004,27.0162609 26.2058423,24.1632888 24.2981538,21.928934 L17.9286947,28.4087279 C18.2676373,28.9295819 18.5134031,29.5188042 18.639695,30.1522843" id="Fill-5"></path>
                    <path d="M16.4897818,26.8781726 L22.9005175,20.4400999 C20.6899754,18.5118612 17.8674087,17.2730762 14.7648074,17.0558376 L14.7648074,26.159185 C15.3915361,26.2871655 15.9744788,26.5355788 16.4897818,26.8781726" id="Fill-6"></path>
                    <path d="M0,0.076142132 L0,15.6801746 L11.0976153,26.9543147 C11.6080253,26.61147 12.1854328,26.3628747 12.8062105,26.2351289 L12.8062105,11.62088 L0,0.076142132" id="Fill-7"></path>
                    <path d="M9.71765382,28.4130589 C9.37990728,28.9326191 9.13500869,29.5203778 9.00916252,30.1522843 L0,30.1522843 L0,18.5025381 L9.71765382,28.4130589" id="Fill-8"></path>
                    <path d="M128.236117,25.1084976 L127.685451,25.1084976 L127.685451,24.8984772 L129.041403,24.8984772 L129.041403,25.1084976 L128.469519,25.1084976 L128.469519,26.7258883 L128.236117,26.7258883 L128.236117,25.1084976" id="Fill-9"></path>
                    <path d="M130.771407,25.9275437 C130.750595,25.6757863 130.750595,25.3605888 130.750595,25.1505684 C130.688162,25.3605888 130.605247,25.5916446 130.522002,25.8437359 L130.210164,26.7258883 L130.044004,26.7258883 L129.752977,25.8647713 C129.670062,25.6126801 129.607629,25.3816242 129.545195,25.1505684 C129.545195,25.3816242 129.524384,25.6757863 129.503572,25.9485791 L129.46195,26.7258883 L129.192064,26.7258883 L129.316602,24.8984772 L129.607629,24.8984772 L129.919137,25.7806296 C130.002382,26.0116854 130.044004,26.2006704 130.106438,26.3899893 C130.14773,26.2006704 130.210164,26.0116854 130.293409,25.7806296 L130.605247,24.8984772 L130.895944,24.8984772 L131,26.7258883 L130.771407,26.7258883 L130.771407,25.9275437" id="Fill-10"></path>
                    <path id="Fill-11"></path>
                    <path d="M54.0120759,21.5410375 L54.0120759,19.2639594 L55.8953422,20.8497701 L55.8953422,23.1472081 L54.0120759,21.5410375" id="Fill-12"></path>
                    <path d="M51.6570915,26.3803453 C51.1252857,25.8044257 50.4914096,25.3311969 49.7756172,25.0018664 C49.0598248,24.6725358 48.2419621,24.4874304 47.3828162,24.4874304 C46.115064,24.4874304 44.9698612,24.8373646 44.008645,25.5369059 C43.435881,25.9483238 42.9450334,26.4627597 42.5565811,27.059283 L42.5565811,16.751269 L41.4318574,16.751269 L41.4318574,37.470315 L42.5565811,37.470315 L42.5565811,35.0423606 C42.9450334,35.6392109 43.435881,36.1536469 44.008645,36.5650648 C44.9698612,37.2646061 46.0945849,37.6142132 47.3828162,37.6142132 C48.2419621,37.6142132 49.0598248,37.4497114 49.7756172,37.1203809 C50.4914096,36.7913773 51.1252857,36.3387522 51.6570915,35.7625055 C52.1888972,35.1865858 52.5978286,34.4870445 52.8842106,33.7050888 C53.1702675,32.9231331 53.3341001,32.0384865 53.3341001,31.092029 C53.3341001,30.1661752 53.1907465,29.2815285 52.8842106,28.4789692 C52.5978286,27.676737 52.1684182,26.9771957 51.6570915,26.3803453 L51.6570915,26.3803453 Z M52.1288097,31.1245781 C52.1288097,31.9237726 52.0063284,32.6614153 51.7821034,33.3169893 C51.5578784,33.9725632 51.2114961,34.5460682 50.8035492,34.9971213 C50.3755127,35.4680403 49.8658221,35.8165073 49.2748012,36.0829054 C48.6834564,36.3287864 48.0311949,36.4720812 47.3176928,36.4720812 C46.6041907,36.4720812 45.9519293,36.3493036 45.3609085,36.0829054 C44.7695636,35.8370245 44.259873,35.4680403 43.8318365,34.9971213 C43.4038,34.5258767 43.0775073,33.9725632 42.8331928,33.3169893 C42.6089678,32.6614153 42.4864865,31.9237726 42.4864865,31.1245781 C42.4864865,30.3257094 42.6089678,29.5880666 42.8331928,28.932167 C43.0574178,28.2765931 43.4038,27.703088 43.8318365,27.2318434 C44.259873,26.7605988 44.7695636,26.3916145 45.3609085,26.1255421 C45.9519293,25.8591439 46.6041907,25.7360406 47.2972793,25.7360406 C47.9903678,25.7360406 48.6630429,25.8591439 49.2339741,26.1255421 C49.824995,26.3916145 50.3346856,26.7605988 50.7627221,27.2318434 C51.1910826,27.703088 51.5170513,28.2765931 51.7616898,28.932167 C52.0063284,29.5880666 52.1288097,30.3257094 52.1288097,31.1245781 L52.1288097,31.1245781 Z" id="Fill-13"></path>
                    <path d="M54.9160437,24.5939086 L56.0460035,24.5939086 L56.0460035,37.6903553 L54.9160437,37.6903553 L54.9160437,24.5939086 Z" id="Fill-14"></path>
                    <path d="M62.9491078,36.1003488 C62.6253791,36.4102097 62.2607821,36.5546364 61.8154137,36.5546364 C61.3700454,36.5546364 61.0057701,36.4102097 60.7222662,36.0796695 C60.4387622,35.7491293 60.2768978,35.3362003 60.2768978,34.7995239 L60.2768978,25.8371913 L63.5566623,25.8371913 L63.5566623,24.7011441 L60.2768978,24.7011441 L60.2768978,20.4060914 L59.163477,20.4060914 L59.163477,24.7011441 L57.4019551,24.7011441 L57.4019551,25.8371913 L59.163477,25.8371913 L59.163477,34.7995239 C59.163477,35.6253819 59.4064344,36.3274926 59.9126226,36.8644973 C60.4184889,37.421853 61.0463167,37.6903553 61.8154137,37.6903553 C62.1800108,37.6903553 62.5240128,37.6286457 62.82779,37.4838908 C63.1312455,37.3601434 63.3944762,37.1947092 63.6374336,36.9882447 L63.880391,36.7817802 L63.2326118,35.8111672 L62.9491078,36.1003488" id="Fill-15"></path>
                    <path d="M72.4022113,31.620292 C72.0556974,31.3518387 71.6687028,31.1454119 71.2409039,31.0010116 C70.8331833,30.8562831 70.4053844,30.7325583 69.9979876,30.6085054 L69.2236748,30.3814031 C68.9182891,30.2990293 68.5921774,30.2163273 68.286468,30.0926025 C68.0014846,29.989225 67.7161773,29.8448247 67.4716745,29.6794207 C67.2475739,29.5143449 67.0438756,29.2872426 66.9013839,28.9981139 C66.7585683,28.7089851 66.6769594,28.3374825 66.6769594,27.8832779 C66.6769594,27.5117754 66.7585683,27.1812956 66.9214622,26.9128423 C67.08468,26.644389 67.3087806,26.3966113 67.5532834,26.2315355 C67.8178646,26.0457842 68.1439763,25.9010557 68.4904902,25.8186819 C68.8366803,25.7153044 69.2035964,25.6739534 69.5497865,25.6739534 C70.1608816,25.6739534 70.7314961,25.7566554 71.2000994,25.9217312 C71.6687028,26.0871352 72.1373062,26.3345848 72.5855074,26.68574 L72.8504124,26.8921668 L73.502312,25.9837577 L73.2578092,25.7773309 C72.7075969,25.3231263 72.1373062,25.0133221 71.5262111,24.8068953 C70.9351944,24.6004685 70.2628927,24.5177665 69.5293842,24.5177665 C69.0607808,24.5177665 68.5717752,24.579793 68.1031718,24.703846 C67.6345684,24.8275708 67.1863673,25.0339976 66.7993727,25.3231263 C66.4123782,25.6122551 66.0862665,25.9630822 65.8417637,26.3759358 C65.5972609,26.8094648 65.4751714,27.3256959 65.4751714,27.9039534 C65.4751714,28.5852603 65.5972609,29.1428423 65.8417637,29.5763714 C66.0862665,29.989225 66.3715738,30.3400521 66.7177639,30.6085054 C67.0642778,30.8562831 67.4308701,31.0627099 67.8382668,31.1867629 C68.2051829,31.3104877 68.5717752,31.4138652 68.8774847,31.4965672 L69.6517976,31.7236695 C70.0387921,31.8267188 70.4257866,31.9507717 70.7723005,32.0744965 C71.0980883,32.1985495 71.4037978,32.3429498 71.6483006,32.5287011 C71.8724012,32.6941051 72.0760996,32.9208792 72.1985129,33.210008 C72.3410046,33.4991367 72.4022113,33.8709675 72.4022113,34.3248439 C72.4022113,34.7173501 72.3206024,35.0681772 72.1373062,35.3366305 C71.9540101,35.6257593 71.7299095,35.8528616 71.4446023,36.0179374 C71.159295,36.2040168 70.8131049,36.3277416 70.4461888,36.4104436 C70.0591943,36.4928174 69.6718759,36.5341684 69.2848814,36.5341684 C68.5717752,36.5341684 67.8994735,36.3897681 67.2679761,36.1213148 C66.6364788,35.8528616 66.0658643,35.4606835 65.5768587,34.9651279 L65.3119537,34.7173501 L64.5583669,35.6050838 L64.7824675,35.8321861 C65.3935626,36.4311191 66.0862665,36.8853237 66.8401772,37.2154753 C67.6141662,37.5252795 68.4292835,37.6903553 69.2848814,37.6903553 C69.7534848,37.6903553 70.2424904,37.628657 70.7314961,37.5252795 C71.2409039,37.4219021 71.6891051,37.2154753 72.0965018,36.9676975 C72.5038985,36.6992442 72.8504124,36.3690926 73.1153175,35.9355635 C73.3802225,35.5017063 73.5227142,34.9651279 73.5227142,34.3248439 C73.5227142,33.6642125 73.4207031,33.1276342 73.1966025,32.6941051 C73.0337086,32.2602478 72.7484013,31.9094207 72.4022113,31.620292" id="Fill-16"></path>
                    <path d="M83.6421922,26.0688163 C83.2123728,25.6353751 82.7210577,25.3049623 82.127575,25.0572348 C81.5545909,24.8095073 80.9197858,24.6854794 80.2648074,24.6854794 C79.3436728,24.6854794 78.484034,24.9335351 77.7470613,25.4079908 C77.3377405,25.6763896 76.9690914,25.9861311 76.6824367,26.3575583 L76.6824367,16.9035533 L75.5566417,16.9035533 L75.5566417,37.6903553 L76.6824367,37.6903553 L76.6824367,29.5160025 C76.6824367,28.9998761 76.7849296,28.504421 76.9485929,28.0709799 C77.1327547,27.6168674 77.3784123,27.2247688 77.7060641,26.894356 C78.033716,26.5639433 78.4020397,26.2958725 78.8523577,26.1098308 C79.2821771,25.9241172 79.7734922,25.8417601 80.2648074,25.8417601 C80.7561225,25.8417601 81.2269391,25.9447885 81.6567585,26.1098308 C82.0865779,26.2958725 82.4754001,26.5639433 82.7825534,26.894356 C83.1102053,27.2247688 83.3558629,27.6168674 83.5400247,28.0709799 C83.7241865,28.504421 83.8061809,28.9998761 83.8061809,29.5160025 L83.8061809,37.6903553 L84.972973,37.6903553 L84.972973,29.5160025 C84.972973,28.8348338 84.8499815,28.1950077 84.6043239,27.6168674 C84.3996635,26.9977126 84.0518384,26.5022575 83.6421922,26.0688163" id="Fill-17"></path>
                    <path d="M95.6000767,26.252211 C95.2326324,25.7153044 94.7424903,25.2817753 94.1092007,24.9719711 C93.4966853,24.6831705 92.7004478,24.5177665 91.7406132,24.5177665 C91.3118199,24.5177665 90.7398793,24.5591175 90.0864646,24.662495 C89.4126003,24.7655443 88.6569375,24.9926466 87.8603754,25.3231263 L87.5338304,25.4675266 L88.0035229,26.5413397 L88.3099428,26.3966113 C89.0042568,26.0871352 89.6576714,25.8803802 90.2497371,25.7980064 C90.8622525,25.7153044 91.3728443,25.6739534 91.7406132,25.6739534 C92.4758263,25.6739534 93.0883417,25.7773309 93.5375846,25.9837577 C93.9868274,26.1901845 94.3341467,26.4793132 94.5993428,26.8301403 C94.8648635,27.2019711 95.0485856,27.6768512 95.1508338,28.2137577 C95.2326324,28.6679623 95.2936567,29.1635178 95.3141063,29.7000962 C93.9459281,29.4109674 92.7410225,29.2665671 91.6792642,29.2665671 C90.0046661,29.2665671 88.6978368,29.6380697 87.7993511,30.3403803 C87.1865111,30.8356076 86.7781675,31.4138652 86.5944454,32.0331455 C86.4107232,32.6320786 86.3289247,33.168657 86.3289247,33.643537 C86.3289247,33.9946923 86.3902736,34.4075459 86.5126468,34.8617504 C86.6353447,35.315955 86.8599661,35.7701596 87.1660615,36.1833413 C87.4724814,36.5961949 87.9012747,36.947022 88.4323161,37.2361508 C88.9633575,37.5252795 89.6372218,37.6903553 90.4539089,37.6903553 C90.8622525,37.6903553 91.2913703,37.6493325 91.7815124,37.545955 C92.2512049,37.4425775 92.7205728,37.2981773 93.1902653,37.0917505 C93.6599578,36.8853237 94.1296503,36.6168704 94.5587681,36.2863906 C94.8444138,36.0592883 95.1303842,35.7908351 95.3754553,35.5020345 L95.3754553,37.545955 L96.4985624,37.545955 L96.4985624,30.505456 C96.4985624,29.6587452 96.4375381,28.8743891 96.3352899,28.1724067 C96.192467,27.4290734 95.9473959,26.7891175 95.6000767,26.252211 L95.6000767,26.252211 Z M95.3686026,30.9111663 L95.3686026,32.0220308 C95.3686026,32.4131389 95.3276685,32.8451236 95.246125,33.2565064 C95.1847237,33.6472875 95.0213119,34.0177936 94.7760316,34.367371 C94.5102843,34.758479 94.1831358,35.0874545 93.835845,35.3755533 C93.4677622,35.6636521 93.1000044,35.8899454 92.7117794,36.0544331 C92.3232296,36.2192479 91.9350046,36.3425319 91.5467796,36.4249393 C91.1582298,36.5070197 90.7904719,36.5482234 90.4428562,36.5482234 C89.8502852,36.5482234 89.3597248,36.4455411 88.9714999,36.2395227 C88.58295,36.0338313 88.2765934,35.7663343 88.0722474,35.4785625 C87.8474343,35.1904637 87.7041646,34.881763 87.602154,34.5527876 C87.5202857,34.2234851 87.4588844,33.9353863 87.4588844,33.6884911 C87.4588844,33.318312 87.5202857,32.9069291 87.6632304,32.4337407 C87.786033,32.001429 88.0722474,31.6312498 88.4809394,31.2816725 C89.196313,30.7260767 90.2589773,30.4585798 91.6487902,30.4585798 C92.7117794,30.4379779 93.9583227,30.6024657 95.3686026,30.9111663 L95.3686026,30.9111663 Z" id="Fill-18"></path>
                    <path d="M104.826286,25.3480565 C104.518335,25.1426299 104.169281,24.9780274 103.779449,24.854902 C103.389617,24.7314501 102.999459,24.6700508 102.589076,24.6700508 C101.788534,24.6700508 101.049974,24.8960527 100.392969,25.3274812 C100.085344,25.5329078 99.7979455,25.7794851 99.5516501,26.067213 L99.5516501,24.8137514 L98.3818286,24.8137514 L98.3818286,37.6142132 L99.5516501,37.6142132 L99.5516501,29.23124 C99.5516501,28.7380855 99.6338573,28.2860816 99.7773937,27.8752284 C99.9414819,27.4643752 100.147,27.094346 100.434073,26.7863694 C100.70092,26.4780662 101.029422,26.2314889 101.398702,26.067213 C102.034829,25.7794851 102.794267,25.7383344 103.430395,25.9643364 C103.717794,26.067213 103.984641,26.2109136 104.230936,26.3751896 L104.600216,26.6217668 L105.010926,25.4917572 L104.826286,25.3480565" id="Fill-19"></path>
                    <path d="M106.00386,30.6705318 L116.235193,30.6705318 L116.214742,30.2990293 C116.153391,29.4316429 115.969663,28.6266113 115.704133,27.9246289 C115.418478,27.2226466 115.050697,26.603038 114.580988,26.1074825 C114.11128,25.6122551 113.539644,25.1990733 112.906333,24.9309483 C112.273347,24.662495 111.538109,24.5177665 110.762295,24.5177665 C109.904355,24.5177665 109.08764,24.6828423 108.372852,25.0133221 C107.658064,25.3438018 107.025078,25.7980064 106.494019,26.3966113 C105.98341,26.9748688 105.575052,27.6768512 105.289072,28.5025583 C105.003092,29.3079181 104.860265,30.1956518 104.860265,31.1454119 C104.860265,32.095172 105.003092,32.9829057 105.289072,33.76759 C105.575052,34.5726217 105.98341,35.274604 106.494019,35.8528616 C107.004628,36.4311191 107.637614,36.905671 108.372852,37.2154753 C109.08764,37.5252795 109.904355,37.6903553 110.762295,37.6903553 C111.722162,37.6903553 112.600228,37.545955 113.396492,37.2361508 C114.213531,36.947022 114.907869,36.5134929 115.499955,35.956239 L115.745034,35.7291368 L115.030246,34.8824259 L114.764717,35.1095282 C114.274882,35.5430573 113.682472,35.8942126 113.008585,36.1626658 C112.334698,36.4104436 111.57901,36.5341684 110.762295,36.5341684 C110.067957,36.5341684 109.414196,36.4104436 108.842561,36.1419903 C108.270601,35.8735371 107.760316,35.5017063 107.351634,35.0475017 C106.943277,34.5726217 106.59627,34.0153678 106.371317,33.3547364 C106.147012,32.6941051 106.02431,31.9507717 106.02431,31.1454119 L106.02431,30.7532338 C106.00386,30.7118828 106.00386,30.6912073 106.00386,30.6705318 L106.00386,30.6705318 Z M106.140886,29.5431472 C106.242802,29.0473994 106.405545,28.5930185 106.629438,28.1800048 C106.894098,27.6635734 107.219908,27.2091926 107.626927,26.8372175 C108.033947,26.4655708 108.502116,26.1763298 109.011052,25.969823 C109.519988,25.7633161 110.110134,25.6598985 110.720987,25.6598985 C111.413049,25.6598985 112.003195,25.7839996 112.512131,26.01119 C113.021067,26.2383804 113.428087,26.5483049 113.773956,26.9406351 C114.120149,27.3329654 114.384809,27.7873462 114.588319,28.2830941 C114.751062,28.6757526 114.873362,29.1094499 114.954572,29.5431472 L106.140886,29.5431472 L106.140886,29.5431472 Z" id="Fill-20"></path>
                    <path d="M125.734353,32.6734296 C125.510473,32.2395723 125.225445,31.8887453 124.879595,31.620292 C124.533421,31.3518387 124.146806,31.1454119 123.719427,31.0010116 C123.31243,30.8562831 122.885051,30.7325583 122.477731,30.6085054 L121.704501,30.3814031 C121.399092,30.2990293 121.0733,30.2163273 120.768214,30.0926025 C120.483187,29.989225 120.198159,29.8448247 119.953896,29.6794207 C119.730016,29.5143449 119.526517,29.2872426 119.384165,28.9981139 C119.24149,28.7089851 119.160285,28.3374825 119.160285,27.8832779 C119.160285,27.5117754 119.24149,27.1812956 119.404548,26.9128423 C119.567282,26.644389 119.791162,26.3966113 120.055807,26.2315355 C120.320453,26.0457842 120.645921,25.9010557 120.992095,25.8186819 C121.337945,25.7153044 121.704501,25.6739534 122.050351,25.6739534 C122.66117,25.6739534 123.230901,25.7566554 123.699045,25.9217312 C124.167189,26.0871352 124.635332,26.3345848 125.083093,26.68574 L125.347739,26.8921668 L125.998998,25.9837577 L125.754735,25.7773309 C125.205387,25.3231263 124.635332,25.0133221 124.024837,24.8068953 C123.4344,24.6004685 122.762758,24.5177665 122.029969,24.5177665 C121.561826,24.5177665 121.0733,24.579793 120.605156,24.703846 C120.137336,24.8275708 119.689251,25.0339976 119.302637,25.3231263 C118.916022,25.6122551 118.59023,25.9630822 118.345967,26.3759358 C118.101704,26.8094648 117.979735,27.3256959 117.979735,27.9039534 C117.979735,28.5852603 118.101704,29.1428423 118.345967,29.5763714 C118.59023,29.989225 118.875257,30.3400521 119.221108,30.6085054 C119.567282,30.8562831 119.933514,31.0627099 120.340835,31.1867629 C120.707067,31.3104877 121.0733,31.4138652 121.378709,31.4965672 L122.152262,31.7236695 C122.538877,31.8267188 122.925492,31.9507717 123.271666,32.0744965 C123.597457,32.1985495 123.902543,32.3429498 124.146806,32.5287011 C124.370687,32.6941051 124.574185,32.9208792 124.696479,33.210008 C124.838831,33.4991367 124.899977,33.8709675 124.899977,34.3248439 C124.899977,34.7173501 124.818448,35.0681772 124.635332,35.3366305 C124.452216,35.6257593 124.228335,35.8528616 123.943308,36.0179374 C123.658281,36.2040168 123.31243,36.3277416 122.945874,36.4104436 C121.867235,36.6582214 120.747832,36.5548439 119.77078,36.1213148 C119.139903,35.8528616 118.569848,35.4606835 118.081322,34.9651279 L117.816677,34.7173501 L117.06383,35.6050838 L117.28771,35.8321861 C117.898206,36.4311191 118.59023,36.8853237 119.343401,37.2154753 C120.116631,37.5252795 120.930948,37.6903553 121.785706,37.6903553 C122.25385,37.6903553 122.742376,37.628657 123.230901,37.5252795 C123.739809,37.4219021 124.187571,37.2154753 124.594568,36.9676975 C125.001565,36.6992442 125.347739,36.3690926 125.612384,35.9355635 C125.877029,35.5017063 126.019381,34.9651279 126.019381,34.3248439 C126.060145,33.6642125 125.958234,33.1069587 125.734353,32.6734296" id="Fill-21"></path>
                </g>
            </g>
        </g>
    </g>
</svg>