<?xml version="1.0" encoding="UTF-8" standalone="no"?>
<svg width="30px" height="43px" viewBox="0 0 30 43" version="1.1" xmlns="http://www.w3.org/2000/svg" xmlns:xlink="http://www.w3.org/1999/xlink" xmlns:sketch="http://www.bohemiancoding.com/sketch/ns">
    <!-- Generator: Sketch 3.2 (9961) - http://www.bohemiancoding.com/sketch -->
    <title>Logo 2</title>
    <desc>Created with Sketch.</desc>
    <defs></defs>
    <g id="General-Stuff" stroke="none" stroke-width="1" fill="none" fill-rule="evenodd" sketch:type="MSPage">
        <g id="Artboard-23" sketch:type="MSArtboardGroup" transform="translate(-129.000000, -59.000000)" fill="#00A9E0">
            <g id="Logo-2" sketch:type="MSLayerGroup" transform="translate(133.000000, 60.000000)">
                <path d="M7.13584468,25.7840433 L0.0591883677,25.7840433 C0.228311832,28.3066612 1.19101463,30.601351 2.68991278,32.3984772 L7.6944878,27.1866783 C7.42817574,26.7677474 7.23507399,26.2935611 7.13584468,25.7840433" id="Fill-1" sketch:type="MSShapeGroup"></path>
                <path d="M8.82506217,28.2950783 L3.78805553,33.4737011 C5.52491011,35.0247275 7.74264105,36.0209109 10.1803992,36.1956522 L10.1803992,28.8731498 C9.68796952,28.7702056 9.22994313,28.5706521 8.82506217,28.2950783" id="Fill-2" sketch:type="MSShapeGroup"></path>
                <path d="M12.9562571,28.2950783 C12.5513762,28.5706521 12.0933498,28.7702056 11.6009201,28.8731498 L11.6009201,36.1956522 C14.0386783,36.0209109 16.2564092,35.0244636 17.9932638,33.4737011 L12.9562571,28.2950783" id="Fill-3" sketch:type="MSShapeGroup"></path>
                <path d="M14.6454746,25.7840433 C14.5462453,26.2935611 14.3531436,26.7677474 14.0868315,27.1864127 L19.0914065,32.3984772 C20.5903047,30.601351 21.5530075,28.3066612 21.7221309,25.7840433 L14.6454746,25.7840433" id="Fill-4" sketch:type="MSShapeGroup"></path>
                <path d="M14.6454746,24.2529243 L21.7221309,24.2529243 C21.5530075,21.7304707 20.5903047,19.4356888 19.0914065,17.6384904 L14.0868315,22.8504985 C14.3531436,23.2694463 14.5462453,23.743386 14.6454746,24.2529243" id="Fill-5" sketch:type="MSShapeGroup"></path>
                <path d="M12.9562571,21.6193997 L17.9932638,16.4409499 C16.2564092,14.8899753 14.0386783,13.8935613 11.6009201,13.7188259 L11.6009201,21.0410836 C12.0933498,21.1440244 12.5513762,21.3438351 12.9562571,21.6193997" id="Fill-6" sketch:type="MSShapeGroup"></path>
                <path d="M0,0.0612447583 L0,12.6123144 L8.71955488,21.6806444 C9.12059133,21.404878 9.57426859,21.204921 10.0620225,21.1021689 L10.0620225,9.34722954 L0,0.0612447583" id="Fill-7" sketch:type="MSShapeGroup"></path>
                <path d="M7.63529943,22.8539821 C7.36992715,23.2718893 7.17750683,23.7446517 7.07862769,24.2529243 L0,24.2529243 L0,14.8824763 L7.63529943,22.8539821" id="Fill-8" sketch:type="MSShapeGroup"></path>
            </g>
        </g>
    </g>
</svg>