<?xml version="1.0" encoding="UTF-8" standalone="no"?>
<svg width="1024px" height="1024px" viewBox="0 0 1024 1024" version="1.1" xmlns="http://www.w3.org/2000/svg" xmlns:xlink="http://www.w3.org/1999/xlink" xmlns:sketch="http://www.bohemiancoding.com/sketch/ns">
    <!-- Generator: Sketch 3.2 (9961) - http://www.bohemiancoding.com/sketch -->
    <title>BitShares Network Mesh - blue</title>
    <desc>Created with Sketch.</desc>
    <defs>
        <linearGradient x1="50%" y1="0%" x2="50%" y2="100%" id="linearGradient-1">
            <stop stop-color="#00A9E0" offset="0%"></stop>
            <stop stop-color="#00587C" offset="100%"></stop>
        </linearGradient>
    </defs>
    <g id="BitShares-Mesh-GFX" stroke="none" stroke-width="1" fill="none" fill-rule="evenodd" sketch:type="MSPage">
        <g id="BitShares-Network-Mesh---blue" sketch:type="MSArtboardGroup">
            <path d="M300.351418,686.576449 C304.212928,743.32904 326.193832,794.953816 360.417411,835.384659 L474.684328,718.132227 C468.60376,708.70733 464.194766,698.039325 461.929114,686.576449 L300.351418,686.576449 Z M500.498158,743.068454 L385.490746,859.574507 C425.147464,894.46872 475.783786,916.880354 531.44388,920.811594 L531.44388,756.073615 C520.200483,753.757627 509.742599,749.268175 500.498158,743.068454 Z M594.823633,743.068454 C585.579191,749.268175 575.121308,753.757627 563.87791,756.073615 L563.87791,920.811594 C619.538004,916.880354 670.174326,894.462781 709.831044,859.574507 L594.823633,743.068454 Z M633.392676,686.576449 C631.127024,698.039325 626.71803,708.70733 620.637463,718.126251 L734.904379,835.384659 C769.127959,794.953816 791.108863,743.32904 794.970373,686.576449 L633.392676,686.576449 Z M633.392676,652.130104 L794.970373,652.130104 C791.108863,595.38121 769.127959,543.75436 734.904379,503.321894 L620.637463,620.579034 C626.71803,630.004311 631.127024,640.666768 633.392676,652.130104 Z M594.823633,592.88239 L709.831044,476.38023 C670.174326,441.487183 619.538004,419.07036 563.87791,415.13925 L563.87791,579.871726 C575.121308,582.187636 585.579191,586.682878 594.823633,592.88239 Z M299,390.245511 L498.089164,594.260244 C507.245825,588.05619 517.604407,583.557656 528.741044,581.245992 L528.741044,316.789272 L299,107.877854 L299,390.245511 Z M472.848634,620.657406 C466.789524,630.059271 462.396088,640.695243 460.138432,652.130104 L298.515724,652.130104 L298.515724,441.318473 L472.848634,620.657406 Z" id="Fill-1" stroke="#ACD7F7" fill="url(#linearGradient-1)" sketch:type="MSShapeGroup"></path>
            <g id="Group-+-all" sketch:type="MSLayerGroup" transform="translate(137.000000, 103.000000)">
                <g id="Group">
                    <g transform="translate(155.000000, 0.000000)" sketch:type="MSShapeGroup">
                        <g>
                            <path d="M93.9241482,756.440761 L153.053031,741.366837 L143.022075,706.182127 L189.749715,711.774905 L202.123467,675.255382" id="Path-42" stroke="#D3D7D9"></path>
                            <path d="M238.847641,815.542154 L150.734671,739.775445 L189.019691,710.562271 L189.224342,744.38773 L238.725461,737.227998" id="Path-43" stroke="#E1E6E8"></path>
                            <path d="M202.731311,674.742227 L239.305815,670.859966 L200.843634,648.601873 L202.731311,674.742227 Z" id="Path-44" stroke="#E1E6E8" stroke-width="0.5"></path>
                            <path d="M170.848509,680.283078 L197.16297,692.659885 L217.45397,716.048141 L190.788242,742.512272 L219.62266,767.061235 L208.030857,785.437067" id="Path-45" stroke="#ECF0F2"></path>
                            <path d="M219.503535,766.859638 L180.057807,763.557731 L145.044149,788.916135 L207.62461,786.799371 L206.060709,810.163191" id="Path-46" stroke="#E1E6E8"></path>
                            <path d="M189.829131,743.672979 L153.309608,740.395508 L146.73023,787.000968 L125.483174,724.716793" id="Path-47" stroke="#D3D7D9"></path>
                            <path d="M304.60304,488.67749 L303.744195,437.163682 L368.711042,424.367865 L382.767071,346.948606 L337.55647,392.725602 L328.192974,320.869241 L272.985204,339.373328" id="Path-74" stroke="#ACD7F7"></path>
                            <path d="M337.492338,392.622471 L272.874105,340.027575 L303.739254,437.481036 L337.492338,392.622471 Z" id="Path-75" stroke="#ACD7F7"></path>
                            <path d="M337.369796,392.022813 L368.221385,424.787571 L304.549548,462.034402 L273.001663,436.843825 L304.549549,436.843827" id="Path-76" stroke="#ACD7F7"></path>
                            <path d="M291.990283,394.943275 L314.432053,372.501505" id="Path-77" stroke="#ACD7F7"></path>
                            <path d="M292.50357,395.250189 L273.374356,403.282871" id="Path-78" stroke="#ACD7F7"></path>
                            <g transform="translate(341.296673, 402.101269)" stroke="#ACD7F7">
                                <path d="M0.458709727,146.532148 L50.3658825,108.232995 L110.031761,98.1491361 L102.354045,0.167850982 L88.1285295,41.1210779 L143.433269,73.0919078 L126.695934,146.44273 L86.3157923,130.010227 L60.8602485,40.9991449 L43.6229881,146.47931 L4.78326644,98.1491372" id="Path-83"></path>
                                <path d="M5.82376128,98.9213795 L51.0283851,108.984916 L88.8276119,40.3000624 L109.422094,97.8808846 L88.8276119,127.230155 L62.2949933,147.5889" id="Path-84"></path>
                                <path d="M111.734756,98.4214542 L125.118934,143.231828 L158.62612,114.886472" id="Path-85"></path>
                                <path d="M111.734756,97.3077996 L143.128437,72.8561707" id="Path-86"></path>
                                <path d="M89.1324444,40.5 L61.3642382,40.5" id="Path-87"></path>
                                <path d="M51.8372072,108.302091 L62.3681531,147.914055" id="Path-88"></path>
                            </g>
                            <path d="M329.417052,614.742731 L384.508789,617.257418 L392.019362,582.764194 L444.800388,614.770131 L501.82533,582.764194" id="Path-88" stroke="#ACD7F7"></path>
                            <path d="M443.442579,731.85834 L444.94652,613.588898 L385.23336,616.478048 L382.143279,668.708035" id="Path-89" stroke="#ACD7F7"></path>
                            <path d="M383.473688,669.861869 L444.544657,670.641239 L469.764593,692.999424 L474.185084,625.949224 L445.068297,613.789829" id="Path-90" stroke="#ACD7F7"></path>
                            <path d="M500.561897,583.637941 L474.185084,624.48486 L491.949247,631.015131" id="Path-91" stroke="#ACD7F7"></path>
                            <path d="M444.572057,615.065439 L383.902951,667.645535" id="Path-92" stroke="#ACD7F7"></path>
                            <path d="M385.409936,617.175219 L444.572057,672.093425" id="Path-93" stroke="#ACD7F7"></path>
                            <path d="M343.634471,584.444711 L358.856547,614.258669 L391.940207,583.637941" id="Path-94" stroke="#ACD7F7"></path>
                            <path d="M445.902467,613.104836 L447.0563,581.878269" id="Path-95" stroke="#ACD7F7"></path>
                            <path d="M476.349663,625.559539 L445.698491,669.298652" id="Path-96" stroke="#ACD7F7"></path>
                            <path d="M274.16262,815.691233 L299.608113,779.302549 L329.66284,806.173681" id="Path-99" stroke="#ACD7F7"></path>
                            <path d="M301.253081,779.246055 L272.839999,751.932941" id="Path-100" stroke="#ACD7F7"></path>
                            <path d="M302.073903,778.644562 L320.364617,751.713612 L417.547327,756.349431" id="Path-101" stroke="#ACD7F7"></path>
                            <path d="M320.64044,750.424223 L303.61253,640.872684" id="Path-102" stroke="#ACD7F7"></path>
                            <path d="M274.102802,750.394315 L313.395935,701.171558 L273.441492,653.42761" id="Path-103" stroke="#ACD7F7"></path>
                            <path d="M314.379592,700.729577 L357.105557,695.465679 L321.946445,750.145077" id="Path-104" stroke="#ACD7F7"></path>
                            <path d="M360.006682,733.496008 L380.849589,718.771053" id="Path-105" stroke="#ACD7F7"></path>
                            <path d="M356.444247,696.007356 L362.751619,731.98729 L322.328609,750.9659 L343.992338,777.484776 L302.748506,778.524928 L300.634972,812.201907" id="Path-106" stroke="#ACD7F7"></path>
                            <path d="M345.604074,776.441302 L331.231375,805.103621" id="Path-107" stroke="#ACD7F7"></path>
                            <path d="M346.557823,776.913191 L362.954332,752.916599 L384.046476,739.451124 L361.502108,731.033541" id="Path-108" stroke="#ACD7F7"></path>
                            <path d="M384.677878,738.823046 L416.653395,755.880864" id="Path-109" stroke="#ACD7F7"></path>
                            <path d="M385.060042,738.630302 L392.218145,728.511257" id="Path-110" stroke="#ACD7F7"></path>
                            <path d="M384.853341,781.000089 L362.975395,752.957594" id="Path-111" stroke="#ACD7F7"></path>
                            <path d="M312.488657,699.911732 L272.594371,704.517615" id="Path-112" stroke="#ACD7F7"></path>
                            <path d="M288.100126,688.294551 L274.414612,702.292877" id="Path-113" stroke="#ACD7F7"></path>
                            <path d="M273.365614,704.695595 L283.755818,719.381567" id="Path-114" stroke="#ACD7F7"></path>
                            <path d="M313.928669,698.733295 L325.545851,685.223063" id="Path-115" stroke="#ACD7F7"></path>
                            <g id="Path-268-+-Path-269-+-Path-270" transform="translate(6.000000, 6.000000)">
                                <path d="M181.321871,464.332611 L231.711764,429.644867 L129.943514,322.663256 L230.110415,206.109455 L1.77454659,115.751716 L74.0973612,64.5803532 L229.668787,368.761286 L104.903584,385.830375 L1.0923575,206.648026 L141.257082,124.196498 L31.2487056,310.523881 L120.069725,264.871069 L0.790758114,152.611469 L67.8068597,108.904691" id="Path-268" stroke="#ACD7F7"></path>
                                <path d="M120.558028,262.996844 L130.06559,323.201826 L54.4287727,298.431182 L180.350107,375.464691 L197.845171,453.907556 L136.707957,380.232834 L192.137616,291.411815 L96.264916,202.113264 L68.0905068,108.728759 L3.32203867,0.0811702662 L21.6908775,98.4743794 L35.524954,182.731913 L59.8467902,260.067022 L2.81578256,206.917311 L229.284607,258.261016" id="Path-269" stroke="#ACD7F7"></path>
                                <path d="M192.184292,290.905559 L229.665197,257.927102 L182.615693,374.926121" id="Path-270" stroke="#D3D7D9"></path>
                                <path d="M122.317358,263.585681 L187.969082,166.790231 L67.5016699,186.789142 L97.2127998,310.157653 L58.1341366,337.477531 L1.78531799,254.756718" id="Path-271" stroke="#DBE7EA"></path>
                            </g>
                            <path d="M217.63113,715.293681 L239.30887,670.603388" id="Path-48" stroke="#E1E6E8"></path>
                            <path d="M218.38559,715.064594 L239.632646,737.148581 L221.079653,765.955508 L238.728516,767.898166" id="Path-49" stroke="#E1E6E8"></path>
                            <path d="M39.7689851,546.986348 L69.0017548,496.008076 L7.93962924,450.520628 L54.6249432,386.980492 L68.7016833,454.513514" id="Path-22" stroke="#E1E6E8"></path>
                            <path d="M69.8148517,453.221271 L7.43870347,449.687535 L7.43870347,509.968659 L144.643966,479.6566 L138.971647,547.509053 L69.8148517,453.221271 Z" id="Path-23" stroke="#ACD7F7"></path>
                            <path d="M102.25161,435.705808 L7.09749316,390.973379 L31.0233536,362.137478" id="Path-24" stroke="#ACD7F7"></path>
                            <path d="M92.5210667,548.065637 L97.2520323,490.313977" id="Path-25" stroke="#D3D7D9"></path>
                            <path d="M9.35268904,583.887569 L91.5107508,637.361852 L169.895195,583.9707" id="Path-29" stroke="#BABEC1"></path>
                            <path d="M91.7891118,636.728298 L68.590682,730.994433" id="Path-30" stroke="#BABEC1"></path>
                            <path d="M123.893834,675.464562 L123.726314,651.165283 L92.7010275,636.977689" id="Path-31" stroke="#BABEC1"></path>
                            <path d="M124.710024,650.136229 L182.486937,614.269225" id="Path-32" stroke="#BABEC1"></path>
                            <path d="M91.0157469,584.05509 L92.1392673,636.104819" id="Path-33" stroke="#BABEC1"></path>
                            <path d="M24.6335746,653.888435 L66.3108928,645.033784 L56.3553933,613.779259 L91.3381922,606.369314 L135.751257,606.846684" id="Path-34" stroke="#BABEC1"></path>
                            <path d="M66.1547083,644.683628 L44.7246896,699.030781 L74.2108033,664.680277 L66.1547083,644.683628 Z" id="Path-35" stroke="#BABEC1"></path>
                            <path d="M75.4061182,664.274701 L123.058751,650.803792 L96.4418972,680.685405 L106.336938,692.170001" id="Path-36" stroke="#BABEC1"></path>
                            <path d="M96.608158,681.245906 L75.0836729,664.190311" id="Path-37" stroke="#BABEC1"></path>
                            <ellipse id="Oval-path" stroke="#979797" stroke-width="0.5" stroke-linecap="square" fill="#D8D8D8" cx="112.244669" cy="389.604659" rx="7.03179651" ry="7.05423048"></ellipse>
                            <ellipse id="Oval-path" stroke="#979797" stroke-width="0.5" stroke-linecap="square" fill="#D8D8D8" cx="7.78531799" cy="214.743732" rx="7.03179651" ry="7.05423048"></ellipse>
                            <ellipse id="Oval-path" stroke="#979797" stroke-width="0.5" stroke-linecap="square" fill="#D8D8D8" cx="145.5" cy="130.990996" rx="4" ry="4.25"></ellipse>
                            <ellipse id="Oval-path" stroke="#979797" stroke-width="0.5" stroke-linecap="square" fill="#D8D8D8" cx="73.4681084" cy="111.93177" rx="4" ry="4.25"></ellipse>
                            <ellipse id="Oval-path" stroke="#979797" stroke-width="0.5" stroke-linecap="square" fill="#D8D8D8" cx="65.484697" cy="265.790919" rx="3" ry="3"></ellipse>
                            <ellipse id="Oval-path" fill="#F7A696" cx="127.050195" cy="269.677102" rx="4" ry="4.25"></ellipse>
                            <ellipse id="Oval-path" stroke="#979797" stroke-width="0.5" stroke-linecap="square" fill="#F7A696" cx="236.070636" cy="211.540231" rx="4" ry="4.25"></ellipse>
                            <ellipse id="Oval-path" stroke="#979797" stroke-width="0.5" stroke-linecap="square" fill="#D8D8D8" cx="236.070636" cy="373.871891" rx="4" ry="4.25"></ellipse>
                            <ellipse id="Oval-path" stroke="#979797" stroke-width="0.5" stroke-linecap="square" fill="#D8D8D8" cx="135.050195" cy="608.408992" rx="4" ry="4.25"></ellipse>
                            <ellipse id="Oval-path" stroke="#979797" stroke-width="0.5" stroke-linecap="square" fill="#D8D8D8" cx="146.25" cy="791.164062" rx="5.375" ry="5.7109375"></ellipse>
                            <ellipse id="Oval-path" stroke="#9B9B9B" stroke-width="0.5" stroke-linecap="square" fill="#D8D8D8" cx="123.276466" cy="650.75" rx="4" ry="4.25"></ellipse>
                            <ellipse id="Oval-path" stroke="#979797" stroke-width="0.5" stroke-linecap="square" fill="#D8D8D8" cx="236.570636" cy="434.008762" rx="4" ry="4.25"></ellipse>
                            <ellipse id="Oval-path" stroke="#979797" stroke-width="0.5" stroke-linecap="square" fill="#D8D8D8" cx="96.8771998" cy="188.290231" rx="4" ry="4.25"></ellipse>
                            <ellipse id="Oval" fill="#ACD7F7" cx="196.998592" cy="295.740996" rx="9.37622882" ry="9.40539033"></ellipse>
                            <ellipse id="Oval-3" fill="#ACD7F7" cx="188.615693" cy="380.926121" rx="7.03235877" ry="7.05423048"></ellipse>
                            <ellipse id="Oval-3" fill="#ACD7F7" cx="80.0004672" cy="70.5803532" rx="7.03235877" ry="7.05423048"></ellipse>
                            <ellipse id="Oval-2" fill="#FDE699" cx="60.3459677" cy="302.09461" rx="9.37622882" ry="9.40539033"></ellipse>
                            <ellipse id="Oval-2" fill="#FDE699" cx="190.998592" cy="172.790231" rx="6" ry="6.25"></ellipse>
                            <ellipse id="Oval-2" fill="#ACD7F7" cx="35.4080253" cy="135.146387" rx="9.37622882" ry="9.40539033"></ellipse>
                            <ellipse id="Oval-path-2" stroke="#979797" stroke-width="0.5" stroke-linecap="square" fill="#ACD7F7" cx="87.3404905" cy="229.161968" rx="14.3723821" ry="14.4182352"></ellipse>
                            <ellipse id="Oval-path-2" stroke="#979797" stroke-width="0.5" stroke-linecap="square" fill="#D8D8D8" cx="136.25" cy="328.426612" rx="6" ry="6"></ellipse>
                            <path d="M8,264 C6.34325,264 5,262.65675 5,261 C5,259.34325 6.34325,258 8,258 C9.65675,258 11,259.34325 11,261 C11,262.65675 9.65675,264 8,264 Z" id="Stroke-171-2" fill="#FDE699"></path>
                            <ellipse id="Oval-3" fill="#ACD7F7" cx="95.5178727" cy="677.195048" rx="7.03235877" ry="7.05423048"></ellipse>
                            <ellipse id="Oval-3" fill="#ACD7F7" cx="152.517873" cy="740.195048" rx="7.03235877" ry="7.05423048"></ellipse>
                            <ellipse id="Oval-path-2" fill="#D9F3BE" cx="180.848634" cy="614.658992" rx="6" ry="6"></ellipse>
                            <ellipse id="Oval-path-2" fill="#D9F3BE" cx="195" cy="690.249279" rx="6" ry="6"></ellipse>
                            <ellipse id="Oval-path-2" stroke="#979797" stroke-width="0.5" stroke-linecap="square" fill="#D9F3BE" cx="62.3459677" cy="645.605359" rx="9" ry="9"></ellipse>
                            <path d="M91.5,645.253061 C86.52975,645.253061 82.5,641.223311 82.5,636.253061 C82.5,631.282811 86.52975,627.253061 91.5,627.253061 C96.47025,627.253061 100.5,631.282811 100.5,636.253061 C100.5,641.223311 96.47025,645.253061 91.5,645.253061 Z" id="Stroke-171-2" fill="#FDE699"></path>
                            <path d="M25,657 C23.34325,657 22,655.65675 22,654 C22,652.34325 23.34325,651 25,651 C26.65675,651 28,652.34325 28,654 C28,655.65675 26.65675,657 25,657 Z" id="Stroke-171-2" fill="#FDE699"></path>
                            <circle id="Oval-2" fill="#ACD7F7" cx="91.8865495" cy="584" r="3"></circle>
                            <circle id="Oval-2" fill="#D9F3BE" cx="74.3459677" cy="664" r="3"></circle>
                            <circle id="Oval-2" fill="#ACD7F7" cx="95.5178727" cy="755.761585" r="3"></circle>
                            <circle id="Oval-2" fill="#FEB6A8" cx="9" cy="583.576449" r="6"></circle>
                            <circle id="Oval-2" fill="#FEB6A8" cx="207" cy="785.576449" r="6"></circle>
                            <path d="M8.8171145,12.0811703 C5.5036145,12.0811703 2.8171145,9.39467027 2.8171145,6.08117027 C2.8171145,2.76767027 5.5036145,0.0811702662 8.8171145,0.0811702662 C12.1306145,0.0811702662 14.8171145,2.76767027 14.8171145,6.08117027 C14.8171145,9.39467027 12.1306145,12.0811703 8.8171145,12.0811703 Z" id="Stroke-171-2" fill="#FDE699"></path>
                            <path d="M204.140445,468.724288 C199.170195,468.724288 195.140445,464.694538 195.140445,459.724288 C195.140445,454.754038 199.170195,450.724288 204.140445,450.724288 C209.110695,450.724288 213.140445,454.754038 213.140445,459.724288 C213.140445,464.694538 209.110695,468.724288 204.140445,468.724288 Z" id="Stroke-171-2" fill="#FDE699"></path>
                            <path d="M190.998592,750.384659 C186.028342,750.384659 181.998592,746.354909 181.998592,741.384659 C181.998592,736.414409 186.028342,732.384659 190.998592,732.384659 C195.968842,732.384659 199.998592,736.414409 199.998592,741.384659 C199.998592,746.354909 195.968842,750.384659 190.998592,750.384659 Z" id="Stroke-171-2" fill="#FDE699"></path>
                            <path d="M91.5,165.728956 C86.52975,165.728956 82.5,161.699206 82.5,156.728956 C82.5,151.758706 86.52975,147.728956 91.5,147.728956 C96.47025,147.728956 100.5,151.758706 100.5,156.728956 C100.5,161.699206 96.47025,165.728956 91.5,165.728956 Z" id="Stroke-171-2" fill="#FDE699"></path>
                            <path d="M41.9697389,197.290231 C36.9994889,197.290231 32.9697389,193.260481 32.9697389,188.290231 C32.9697389,183.319981 36.9994889,179.290231 41.9697389,179.290231 C46.9399889,179.290231 50.9697389,183.319981 50.9697389,188.290231 C50.9697389,193.260481 46.9399889,197.290231 41.9697389,197.290231 Z" id="Stroke-171-2" fill="#D9F3BE"></path>
                            <path d="M36.4697389,319.418235 C34.8129889,319.418235 33.4697389,318.074985 33.4697389,316.418235 C33.4697389,314.761485 34.8129889,313.418235 36.4697389,313.418235 C38.1264889,313.418235 39.4697389,314.761485 39.4697389,316.418235 C39.4697389,318.074985 38.1264889,319.418235 36.4697389,319.418235 Z" id="Stroke-171-2" fill="#D3D7D9"></path>
                            <ellipse id="Oval-path" stroke="#979797" stroke-width="0.5" stroke-linecap="square" fill="#D8D8D8" cx="140.25" cy="546.736348" rx="4" ry="4.25"></ellipse>
                            <ellipse id="Oval-3" fill="#ACD7F7" cx="95.5178727" cy="490.313977" rx="7.03235877" ry="7.05423048"></ellipse>
                            <ellipse id="Oval-path-2" fill="#D9F3BE" cx="68.484697" cy="495.470631" rx="6" ry="6"></ellipse>
                            <path d="M8,513 C6.34325,513 5,511.65675 5,510 C5,508.34325 6.34325,507 8,507 C9.65675,507 11,508.34325 11,510 C11,511.65675 9.65675,513 8,513 Z" id="Stroke-171-2" fill="#FDE699"></path>
                            <path d="M143.5,485 C141.014875,485 139,482.985125 139,480.5 C139,478.014875 141.014875,476 143.5,476 C145.985125,476 148,478.014875 148,480.5 C148,482.985125 145.985125,485 143.5,485 Z" id="Stroke-171-2" fill="#FDE699"></path>
                            <path d="M202.917467,676.259747 C201.260717,676.259747 199.917467,674.916497 199.917467,673.259747 C199.917467,671.602997 201.260717,670.259747 202.917467,670.259747 C204.574217,670.259747 205.917467,671.602997 205.917467,673.259747 C205.917467,674.916497 204.574217,676.259747 202.917467,676.259747 Z" id="Stroke-171-2" fill="#FDE699"></path>
                            <ellipse id="Oval-path" stroke="#979797" stroke-width="0.5" stroke-linecap="square" fill="#FEB6A8" cx="7.78531799" cy="389.604659" rx="7.03179651" ry="7.05423048"></ellipse>
                            <ellipse id="Oval-path-2" stroke="#979797" stroke-width="0.5" stroke-linecap="square" fill="#D8D8D8" cx="8" cy="449.43221" rx="6" ry="6"></ellipse>
                            <circle id="Oval-2" fill="#ACD7F7" cx="60.3459677" cy="417.461209" r="6"></circle>
                            <ellipse id="Oval-2" fill="#FDE699" cx="56.484697" cy="388.800428" rx="6" ry="6.25"></ellipse>
                            <path d="M37.4697389,552.130104 C35.8129889,552.130104 34.4697389,550.786854 34.4697389,549.130104 C34.4697389,547.473354 35.8129889,546.130104 37.4697389,546.130104 C39.1264889,546.130104 40.4697389,547.473354 40.4697389,549.130104 C40.4697389,550.786854 39.1264889,552.130104 37.4697389,552.130104 Z" id="Stroke-171-2" fill="#D3D7D9"></path>
                            <path d="M220,772.130104 C216.6865,772.130104 214,769.443604 214,766.130104 C214,762.816604 216.6865,760.130104 220,760.130104 C223.3135,760.130104 226,762.816604 226,766.130104 C226,769.443604 223.3135,772.130104 220,772.130104 Z" id="Stroke-171-2" fill="#D9F3BE"></path>
                            <path d="M203,651.130104 C201.34325,651.130104 200,649.786854 200,648.130104 C200,646.473354 201.34325,645.130104 203,645.130104 C204.65675,645.130104 206,646.473354 206,648.130104 C206,649.786854 204.65675,651.130104 203,651.130104 Z" id="Stroke-171-2" stroke="#9B9B9B" stroke-width="0.5" fill="#D3D7D9"></path>
                            <path d="M240,741 C238.34325,741 237,739.65675 237,738 C237,736.34325 238.34325,735 240,735 C241.65675,735 243,736.34325 243,738 C243,739.65675 241.65675,741 240,741 Z" id="Stroke-171-2" stroke="#9B9B9B" stroke-width="0.5" fill="#D3D7D9"></path>
                            <path d="M235.284607,272.927102 C230.314357,272.927102 226.284607,268.897352 226.284607,263.927102 C226.284607,258.956852 230.314357,254.927102 235.284607,254.927102 C240.254857,254.927102 244.284607,258.956852 244.284607,263.927102 C244.284607,268.897352 240.254857,272.927102 235.284607,272.927102 Z" id="Stroke-171-2" fill="#FDE699"></path>
                            <path d="M145.5,234.080203 C140.391174,234.080203 136.25,238.33369 136.25,243.580203 C136.25,248.826716 140.391174,253.080203 145.5,253.080203 C150.608826,253.080203 154.75,248.826716 154.75,243.580203 C154.75,238.33369 150.608826,234.080203 145.5,234.080203" id="Shape-4" fill="#D9F3BE"></path>
                            <circle id="Oval-2" fill="#ACD7F7" cx="217" cy="714" r="3"></circle>
                            <path d="M304.531086,445.723248 C299.560836,445.723248 295.531086,441.693498 295.531086,436.723248 C295.531086,431.752998 299.560836,427.723248 304.531086,427.723248 C309.501336,427.723248 313.531086,431.752998 313.531086,436.723248 C313.531086,441.693498 309.501336,445.723248 304.531086,445.723248 Z" id="Stroke-171-2" fill="#FDE699"></path>
                            <ellipse id="Oval-path" fill="#F7A696" cx="271.296673" cy="338.835392" rx="4" ry="4.25"></ellipse>
                            <path d="M290.746479,386.395711 C285.637653,386.395711 281.496479,390.649198 281.496479,395.895711 C281.496479,401.142224 285.637653,405.395711 290.746479,405.395711 C295.855304,405.395711 299.996479,401.142224 299.996479,395.895711 C299.996479,390.649198 295.855304,386.395711 290.746479,386.395711" id="Shape-4" fill="#D9F3BE"></path>
                            <path d="M386.25,606.578894 C381.141174,606.578894 377,610.832381 377,616.078894 C377,621.325407 381.141174,625.578894 386.25,625.578894 C391.358826,625.578894 395.5,621.325407 395.5,616.078894 C395.5,610.832381 391.358826,606.578894 386.25,606.578894" id="Shape-4" fill="#D9F3BE"></path>
                            <path d="M305.163946,463.777478 C303.507196,463.777478 302.163946,462.434228 302.163946,460.777478 C302.163946,459.120728 303.507196,457.777478 305.163946,457.777478 C306.820696,457.777478 308.163946,459.120728 308.163946,460.777478 C308.163946,462.434228 306.820696,463.777478 305.163946,463.777478 Z" id="Stroke-171-2" fill="#FDE699"></path>
                            <circle id="Oval-2" fill="#FEB6A8" cx="274.246479" cy="436.03995" r="6"></circle>
                            <ellipse id="Oval-path-2" fill="#D9F3BE" cx="382.246479" cy="348.335392" rx="6" ry="6"></ellipse>
                            <ellipse id="Oval-path" stroke="#979797" stroke-width="0.5" stroke-linecap="square" fill="#D8D8D8" cx="327.296673" cy="321.872494" rx="4" ry="4.25"></ellipse>
                            <ellipse id="Oval-path" stroke="#9B9B9B" stroke-width="0.5" stroke-linecap="square" fill="#D8D8D8" cx="313.522944" cy="373.80423" rx="4" ry="4.25"></ellipse>
                            <ellipse id="Oval-3" fill="#ACD7F7" cx="367.246946" cy="423.043854" rx="7.03235877" ry="7.05423048"></ellipse>
                            <ellipse id="Oval-path" stroke="#979797" stroke-width="0.5" stroke-linecap="square" fill="#D8D8D8" cx="28.8171145" cy="362.76393" rx="4" ry="4.25"></ellipse>
                            <ellipse id="Oval-2" fill="#FDE699" cx="7.73117555" cy="337.835392" rx="6" ry="6.25"></ellipse>
                            <path d="M7.71621738,293.890113 C6.05946738,293.890113 4.71621738,292.546863 4.71621738,290.890113 C4.71621738,289.233363 6.05946738,287.890113 7.71621738,287.890113 C9.37296738,287.890113 10.7162174,289.233363 10.7162174,290.890113 C10.7162174,292.546863 9.37296738,293.890113 7.71621738,293.890113 Z" id="Stroke-171-2" fill="#D3D7D9"></path>
                            <ellipse id="Oval-path" stroke="#979797" stroke-width="0.5" stroke-linecap="square" fill="#D8D8D8" cx="58.153275" cy="86.0681601" rx="7.03179651" ry="7.05423048"></ellipse>
                            <ellipse id="Oval-path" stroke="#979797" stroke-width="0.5" stroke-linecap="square" fill="#D8D8D8" cx="67.8714785" cy="450.723248" rx="7.03179651" ry="7.05423048"></ellipse>
                            <ellipse id="Oval-path" stroke="#979797" stroke-width="0.5" stroke-linecap="square" fill="#D8D8D8" cx="181.90856" cy="191.454497" rx="4" ry="4.25"></ellipse>
                            <ellipse id="Oval-path" stroke="#979797" stroke-width="0.5" stroke-linecap="square" fill="#D8D8D8" cx="156.317114" cy="364.003732" rx="3" ry="3"></ellipse>
                            <ellipse id="Oval-path" stroke="#979797" stroke-width="0.5" stroke-linecap="square" fill="#F7A696" cx="238.317114" cy="669.973248" rx="4" ry="4.25"></ellipse>
                            <ellipse id="Oval-path" stroke="#979797" stroke-width="0.5" stroke-linecap="square" fill="#D8D8D8" cx="393" cy="583.96278" rx="4" ry="4.25"></ellipse>
                            <ellipse id="Oval-path" stroke="#979797" stroke-width="0.5" stroke-linecap="square" fill="#D8D8D8" cx="56.4964785" cy="614.304542" rx="5.375" ry="5.7109375"></ellipse>
                            <ellipse id="Oval-3" fill="#F7A696" cx="200.284756" cy="254.389622" rx="7.03235877" ry="7.05423048"></ellipse>
                            <ellipse id="Oval-2" fill="#FDE699" cx="238.317114" cy="768.253732" rx="6" ry="6.25"></ellipse>
                            <ellipse id="Oval-3" fill="#ACD7F7" cx="446.702398" cy="613.633124" rx="7.03235877" ry="7.05423048"></ellipse>
                            <ellipse id="Oval-2" fill="#D9F3BE" cx="106.592446" cy="692.463501" rx="3" ry="3"></ellipse>
                            <ellipse id="Oval-path" stroke="#979797" stroke-width="0.5" stroke-linecap="square" fill="#D8D8D8" cx="401.869004" cy="441.28995" rx="4" ry="4.25"></ellipse>
                            <path d="M382.246479,548.463501 C380.589729,548.463501 379.246479,547.120251 379.246479,545.463501 C379.246479,543.806751 380.589729,542.463501 382.246479,542.463501 C383.903229,542.463501 385.246479,543.806751 385.246479,545.463501 C385.246479,547.120251 383.903229,548.463501 382.246479,548.463501 Z" id="Stroke-171-2" fill="#FDE699"></path>
                            <path d="M126,675.723248 C124.34325,675.723248 123,674.379998 123,672.723248 C123,671.066498 124.34325,669.723248 126,669.723248 C127.65675,669.723248 129,671.066498 129,672.723248 C129,674.379998 127.65675,675.723248 126,675.723248 Z" id="Stroke-171-2" fill="#FDE699"></path>
                            <ellipse id="Oval-2" fill="#ACD7F7" cx="67.8714785" cy="726.92471" rx="6" ry="6"></ellipse>
                            <path d="M239.317114,819.723248 C237.660364,819.723248 236.317114,818.379998 236.317114,816.723248 C236.317114,815.066498 237.660364,813.723248 239.317114,813.723248 C240.973864,813.723248 242.317114,815.066498 242.317114,816.723248 C242.317114,818.379998 240.973864,819.723248 239.317114,819.723248 Z" id="Stroke-171-2" stroke="#9B9B9B" stroke-width="0.5" fill="#D3D7D9"></path>
                            <path d="M347.621299,502.463501 C345.964549,502.463501 344.621299,501.120251 344.621299,499.463501 C344.621299,497.806751 345.964549,496.463501 347.621299,496.463501 C349.278049,496.463501 350.621299,497.806751 350.621299,499.463501 C350.621299,501.120251 349.278049,502.463501 347.621299,502.463501 Z" id="Stroke-171-2" stroke="#9B9B9B" stroke-width="0.5" fill="#D3D7D9"></path>
                            <ellipse id="Oval-path-18" stroke="#979797" stroke-width="0.5" stroke-linecap="square" fill="#D8D8D8" cx="502" cy="583.963501" rx="7.03179651" ry="7.05423048"></ellipse>
                            <ellipse id="Oval-path-6" stroke="#979797" stroke-width="0.5" stroke-linecap="square" fill="#D8D8D8" cx="184.532507" cy="471.06886" rx="3" ry="3"></ellipse>
                            <ellipse id="Oval-path-7" stroke="#979797" stroke-width="0.5" stroke-linecap="square" fill="#F7A696" cx="168.317114" cy="583.713501" rx="4" ry="4.25"></ellipse>
                            <ellipse id="Oval-path-9" stroke="#979797" stroke-width="0.5" stroke-linecap="square" fill="#D8D8D8" cx="95.2174462" cy="284.5073" rx="5.375" ry="5.7109375"></ellipse>
                            <ellipse id="Oval-4" fill="#ACD7F7" cx="338.245071" cy="387.822442" rx="9.37622882" ry="9.40539033"></ellipse>
                            <ellipse id="Oval-24" fill="#FDE699" cx="163.317114" cy="354.253732" rx="6" ry="6.25"></ellipse>
                            <ellipse id="Oval-32" fill="#FDE699" cx="360.214587" cy="613.383124" rx="6" ry="6.25"></ellipse>
                            <ellipse id="Oval-35" fill="#FDE699" cx="360.214587" cy="613.383124" rx="6" ry="6.25"></ellipse>
                            <ellipse id="Oval-32" fill="#FDE699" cx="412.869004" cy="639.937355" rx="6" ry="6.25"></ellipse>
                            <ellipse id="Oval-25" fill="#FDE699" cx="100.592446" cy="435.28995" rx="6" ry="6.25"></ellipse>
                            <ellipse id="Oval-30" fill="#ACD7F7" cx="494.967641" cy="631.741585" rx="7.03235877" ry="7.05423048"></ellipse>
                            <ellipse id="Oval-31" fill="#ACD7F7" cx="78.2141197" cy="334.585392" rx="7.03235877" ry="7.05423048"></ellipse>
                            <ellipse id="Oval-path-27" stroke="#979797" stroke-width="0.5" stroke-linecap="square" fill="#D9F3BE" cx="129" cy="167.890113" rx="6" ry="6"></ellipse>
                            <circle id="Oval-11" fill="#D9F3BE" cx="384.5" cy="547.5" r="4.5"></circle>
                            <ellipse id="Oval-12" fill="#ACD7F7" cx="382.5" cy="669.723248" rx="3" ry="3"></ellipse>
                            <ellipse id="Oval-13" fill="#FEB6A8" cx="497" cy="517.604319" rx="6" ry="6"></ellipse>
                            <ellipse id="Oval-13" fill="#FEB6A8" cx="444.358527" cy="732" rx="6" ry="6"></ellipse>
                            <ellipse id="Oval-path-14" stroke="#979797" stroke-width="0.5" stroke-linecap="square" fill="#D8D8D8" cx="471.110985" cy="693.713501" rx="4" ry="4.25"></ellipse>
                            <ellipse id="Oval-path-15" fill="#D9F3BE" cx="93.2464785" cy="547" rx="6" ry="6"></ellipse>
                            <ellipse id="Oval-path-17" stroke="#979797" stroke-width="0.5" stroke-linecap="square" fill="#D8D8D8" cx="469.110985" cy="546.463501" rx="6" ry="6"></ellipse>
                            <ellipse id="Oval-15" fill="#ACD7F7" cx="205.317114" cy="813.723248" rx="6" ry="6"></ellipse>
                            <path d="M91.2464785,612.225086 C87.9329785,612.225086 85.2464785,609.538586 85.2464785,606.225086 C85.2464785,602.911586 87.9329785,600.225086 91.2464785,600.225086 C94.5599785,600.225086 97.2464785,602.911586 97.2464785,606.225086 C97.2464785,609.538586 94.5599785,612.225086 91.2464785,612.225086 Z" id="Stroke-171-4" fill="#D9F3BE"></path>
                            <path d="M7.71621738,550.463501 C6.05946738,550.463501 4.71621738,549.120251 4.71621738,547.463501 C4.71621738,545.806751 6.05946738,544.463501 7.71621738,544.463501 C9.37296738,544.463501 10.7162174,545.806751 10.7162174,547.463501 C10.7162174,549.120251 9.37296738,550.463501 7.71621738,550.463501 Z" id="Stroke-171-5" stroke="#9B9B9B" stroke-width="0.5" fill="#D3D7D9"></path>
                            <path d="M475.110985,627.687355 C473.454235,627.687355 472.110985,626.344105 472.110985,624.687355 C472.110985,623.030605 473.454235,621.687355 475.110985,621.687355 C476.767735,621.687355 478.110985,623.030605 478.110985,624.687355 C478.110985,626.344105 476.767735,627.687355 475.110985,627.687355 Z" id="Stroke-171-6" stroke="#9B9B9B" stroke-width="0.5" fill="#D3D7D9"></path>
                            <ellipse id="Oval-16" fill="#ACD7F7" cx="329" cy="615.225086" rx="3" ry="3"></ellipse>
                            <ellipse id="Oval-17" fill="#FDE699" cx="453.734756" cy="498.40539" rx="9.37622882" ry="9.40539033"></ellipse>
                            <ellipse id="Oval-path-19" stroke="#979797" stroke-width="0.5" stroke-linecap="square" fill="#D9F3BE" cx="431.132444" cy="442.03995" rx="6" ry="6"></ellipse>
                            <ellipse id="Oval-path-20" stroke="#979797" stroke-width="0.5" stroke-linecap="square" fill="#FEB6A8" cx="393.837207" cy="507.810781" rx="7.03179651" ry="7.05423048"></ellipse>
                            <ellipse id="Oval-path-28" stroke="#979797" stroke-width="0.5" stroke-linecap="square" fill="#FEB6A8" cx="344.621299" cy="583.963501" rx="7.03179651" ry="7.05423048"></ellipse>
                            <ellipse id="Oval-path-21" fill="#D9F3BE" cx="420.945989" cy="504.40539" rx="6" ry="6"></ellipse>
                            <ellipse id="Oval-18" fill="#ACD7F7" cx="426.945989" cy="530.71278" rx="3" ry="3"></ellipse>
                            <ellipse id="Oval-path-12" fill="#D9F3BE" cx="484.095113" cy="474.06886" rx="6" ry="6"></ellipse>
                            <ellipse id="Oval-path-22" stroke="#979797" stroke-width="0.5" stroke-linecap="square" fill="#D8D8D8" cx="443.132444" cy="403.227832" rx="6" ry="6"></ellipse>
                            <path d="M403.869004,551.463501 C402.212254,551.463501 400.869004,550.120251 400.869004,548.463501 C400.869004,546.806751 402.212254,545.463501 403.869004,545.463501 C405.525754,545.463501 406.869004,546.806751 406.869004,548.463501 C406.869004,550.120251 405.525754,551.463501 403.869004,551.463501 Z" id="Stroke-171-3" fill="#FDE699"></path>
                            <path d="M447.358527,587.71278 C445.701777,587.71278 444.358527,586.36953 444.358527,584.71278 C444.358527,583.05603 445.701777,581.71278 447.358527,581.71278 C449.015277,581.71278 450.358527,583.05603 450.358527,584.71278 C450.358527,586.36953 449.015277,587.71278 447.358527,587.71278 Z" id="Stroke-171-3" fill="#FDE699"></path>
                            <ellipse id="Oval-19" fill="#ACD7F7" cx="367.21412" cy="527.71278" rx="7.03235877" ry="7.05423048"></ellipse>
                            <ellipse id="Oval-33" fill="#FDE699" cx="163.317114" cy="354.253732" rx="6" ry="6.25"></ellipse>
                            <ellipse id="Oval-path-13" stroke="#979797" stroke-width="0.5" stroke-linecap="square" fill="#ACD7F7" cx="444.627618" cy="669.918235" rx="14.3723821" ry="14.4182352"></ellipse>
                            <ellipse id="Oval-34" fill="#FDE699" cx="327.5" cy="684.08647" rx="6" ry="6.25"></ellipse>
                            <ellipse id="Oval-36" fill="#ACD7F7" cx="321.836483" cy="750.424223" rx="7.03235877" ry="7.05423048"></ellipse>
                            <ellipse id="Oval-37" fill="#FEB6A8" cx="363.105557" cy="731.033541" rx="6" ry="6"></ellipse>
                            <ellipse id="Oval-38" fill="#FDE699" cx="271.296673" cy="750.728454" rx="6" ry="6.25"></ellipse>
                            <circle id="Oval-39" fill="#ACD7F7" cx="287.746479" cy="687.83647" r="3"></circle>
                            <ellipse id="Oval-40" fill="#D9F3BE" cx="283.246479" cy="717.92471" rx="3" ry="3"></ellipse>
                            <path d="M302.163946,768.503732 C297.05512,768.503732 292.913946,772.757219 292.913946,778.003732 C292.913946,783.250245 297.05512,787.503732 302.163946,787.503732 C307.272771,787.503732 311.413946,783.250245 311.413946,778.003732 C311.413946,772.757219 307.272771,768.503732 302.163946,768.503732" id="Shape-5" fill="#D9F3BE"></path>
                            <circle id="Oval-41" fill="#FEB6A8" cx="312.522944" cy="699.963501" r="6"></circle>
                            <path d="M475.110985,627.687355 C473.454235,627.687355 472.110985,626.344105 472.110985,624.687355 C472.110985,623.030605 473.454235,621.687355 475.110985,621.687355 C476.767735,621.687355 478.110985,623.030605 478.110985,624.687355 C478.110985,626.344105 476.767735,627.687355 475.110985,627.687355 Z" id="Stroke-171-7" stroke="#9B9B9B" stroke-width="0.5" fill="#D3D7D9"></path>
                            <path d="M272.296673,819.723248 C270.639923,819.723248 269.296673,818.379998 269.296673,816.723248 C269.296673,815.066498 270.639923,813.723248 272.296673,813.723248 C273.953423,813.723248 275.296673,815.066498 275.296673,816.723248 C275.296673,818.379998 273.953423,819.723248 272.296673,819.723248 Z" id="Stroke-171-8" stroke="#9B9B9B" stroke-width="0.5" fill="#D3D7D9"></path>
                            <path d="M345,781.003732 C343.34325,781.003732 342,779.660482 342,778.003732 C342,776.346982 343.34325,775.003732 345,775.003732 C346.65675,775.003732 348,776.346982 348,778.003732 C348,779.660482 346.65675,781.003732 345,781.003732 Z" id="Stroke-171-9" stroke="#9B9B9B" stroke-width="0.5" fill="#D3D7D9"></path>
                            <path d="M302.996479,644.795816 C301.339729,644.795816 299.996479,643.452566 299.996479,641.795816 C299.996479,640.139066 301.339729,638.795816 302.996479,638.795816 C304.653229,638.795816 305.996479,640.139066 305.996479,641.795816 C305.996479,643.452566 304.653229,644.795816 302.996479,644.795816 Z" id="Stroke-171-10" stroke="#9B9B9B" stroke-width="0.5" fill="#D3D7D9"></path>
                            <circle id="Oval-42" fill="#D9F3BE" cx="272.296673" cy="654.5" r="3"></circle>
                            <ellipse id="Oval-43" fill="#ACD7F7" cx="384.5" cy="780.449501" rx="7.03235877" ry="7.05423048"></ellipse>
                            <ellipse id="Oval-44" fill="#FEB6A8" cx="331.296673" cy="807.723248" rx="6" ry="6"></ellipse>
                            <ellipse id="Oval-path-16" fill="#D9F3BE" cx="302.163946" cy="813.723248" rx="6" ry="6"></ellipse>
                            <ellipse id="Oval-45" fill="#FDE699" cx="363.105557" cy="754.253732" rx="6" ry="6.25"></ellipse>
                            <ellipse id="Oval-path-29" stroke="#979797" stroke-width="0.5" stroke-linecap="square" fill="#D8D8D8" cx="356.181761" cy="695.213501" rx="4" ry="4.25"></ellipse>
                            <path d="M385.246479,741 C383.589729,741 382.246479,739.65675 382.246479,738 C382.246479,736.34325 383.589729,735 385.246479,735 C386.903229,735 388.246479,736.34325 388.246479,738 C388.246479,739.65675 386.903229,741 385.246479,741 Z" id="Stroke-171-11" stroke="#9B9B9B" stroke-width="0.5" fill="#D3D7D9"></path>
                            <ellipse id="Oval-46" fill="#ACD7F7" cx="380" cy="719.92471" rx="3" ry="3"></ellipse>
                            <ellipse id="Oval-47" fill="#FDE699" cx="415.5" cy="754.253732" rx="6" ry="6.25"></ellipse>
                        </g>
                    </g>
                    <g id="icon" transform="translate(155.000000, 0.000000)">
                        <g id="Group"></g>
                    </g>
                    <g transform="translate(517.000000, 320.000000)"></g>
                    <g transform="translate(574.000000, 581.000000)"></g>
                    <g transform="translate(517.000000, 640.000000)"></g>
                    <g transform="translate(251.000000, 6.000000)">
                        <g transform="translate(87.000000, 642.000000)"></g>
                        <g id="paths"></g>
                        <g id="Path-48-+-Path-49" transform="translate(211.000000, 664.000000)"></g>
                        <g transform="translate(1.000000, 356.000000)"></g>
                        <g id="path" transform="translate(3.000000, 577.000000)">
                            <g id="Group">
                                <g></g>
                            </g>
                        </g>
                    </g>
                    <g transform="translate(0.000000, 577.000000)"></g>
                    <g id="Group-+-Stroke-171-2" transform="translate(245.000000, 382.000000)">
                        <g id="Group"></g>
                    </g>
                    <g transform="translate(245.000000, 0.000000)">
                        <g></g>
                    </g>
                </g>
                <g id="all" transform="translate(155.000000, 0.000000)"></g>
            </g>
            <g id="Group" sketch:type="MSLayerGroup" transform="translate(298.000000, 107.000000)"></g>
        </g>
    </g>
</svg>