<?xml version="1.0" encoding="UTF-8" standalone="no"?>
<svg width="26px" height="26px" viewBox="0 0 26 26" version="1.1" xmlns="http://www.w3.org/2000/svg" xmlns:xlink="http://www.w3.org/1999/xlink" xmlns:sketch="http://www.bohemiancoding.com/sketch/ns">
    <!-- Generator: Sketch 3.2 (9961) - http://www.bohemiancoding.com/sketch -->
    <title>Shape</title>
    <desc>Created with Sketch.</desc>
    <defs></defs>
    <g id="General-Stuff" stroke="none" stroke-width="1" fill="none" fill-rule="evenodd" sketch:type="MSPage">
        <g id="Desktop-HD-2" sketch:type="MSArtboardGroup" transform="translate(-469.000000, -290.000000)" fill="#FFFFFF">
            <g id="Rectangle-7-+-OPEN-YOUR-ACCOUNT-+-Shape" sketch:type="MSLayerGroup" transform="translate(442.000000, 269.000000)">
                <path d="M40,21 C32.85,21 27,26.85 27,34 C27,41.15 32.85,47 40,47 C47.15,47 53,41.15 53,34 C53,26.85 47.15,21 40,21 L40,21 Z M40,25 C42.2666667,25 44,26.7333333 44,29 C44,31.2666667 42.2666667,33 40,33 C37.7333333,33 36,31.2666667 36,29 C36,26.7333333 37.7333333,25 40,25 L40,25 Z M40,43 C36.6666667,43 33.7333333,41.3492063 32,38.9365079 C32,36.3968254 37.3333333,35 40,35 C42.6666667,35 48,36.3968254 48,38.9365079 C46.2666667,41.3492063 43.3333333,43 40,43 L40,43 Z" id="Shape" sketch:type="MSShapeGroup"></path>
            </g>
        </g>
    </g>
</svg>