<?xml version="1.0" encoding="UTF-8" standalone="no"?>
<svg width="51px" height="32px" viewBox="0 0 51 32" version="1.1" xmlns="http://www.w3.org/2000/svg" xmlns:xlink="http://www.w3.org/1999/xlink" xmlns:sketch="http://www.bohemiancoding.com/sketch/ns">
    <!-- Generator: Sketch 3.2 (9961) - http://www.bohemiancoding.com/sketch -->
    <title>Bigger</title>
    <desc>Created with Sketch.</desc>
    <defs></defs>
    <g id="Icons" stroke="none" stroke-width="1" fill="none" fill-rule="evenodd" sketch:type="MSPage">
        <g id="Design-&amp;-Development" sketch:type="MSArtboardGroup" transform="translate(-795.000000, -85.000000)">
            <g id="Bigger" sketch:type="MSLayerGroup" transform="translate(801.000000, 83.000000)">
                <g transform="translate(19.000000, 18.000000) rotate(-315.000000) translate(-19.000000, -18.000000) translate(1.000000, 0.000000)" sketch:type="MSShapeGroup">
                    <path d="M25.956,29.9509969 L9.956,29.9509969 C7.747,29.9509969 5.956,28.1599969 5.956,25.9509969 L5.956,9.95099695 C5.956,7.74199695 7.747,5.95099695 9.956,5.95099695 L25.956,5.95099695 C28.166,5.95099695 29.956,7.74199695 29.956,9.95099695 L29.956,25.9509969 C29.956,28.1599969 28.166,29.9509969 25.956,29.9509969" id="Fill-259" fill="#E1E1E1"></path>
                    <path d="M24.956,11.9509969 C24.7,11.9509969 24.444,11.8529969 24.249,11.6579969 C23.858,11.2669969 23.858,10.6349969 24.249,10.2439969 L32.542,1.95099695 L26.956,1.95099695 C26.403,1.95099695 25.956,1.50299695 25.956,0.950996948 C25.956,0.398996948 26.403,-0.0490030518 26.956,-0.0490030518 L34.956,-0.0490030518 C35.509,-0.0490030518 35.956,0.398996948 35.956,0.950996948 L35.956,8.95099695 C35.956,9.50299695 35.509,9.95099695 34.956,9.95099695 C34.403,9.95099695 33.956,9.50299695 33.956,8.95099695 L33.956,3.36599695 L25.663,11.6579969 C25.468,11.8529969 25.212,11.9509969 24.956,11.9509969" id="Fill-260" fill="#58A0DF"></path>
                    <path d="M8.956,35.9509969 L0.956,35.9509969 C0.403,35.9509969 -0.044,35.5029969 -0.044,34.9509969 L-0.044,26.9509969 C-0.044,26.3989969 0.403,25.9509969 0.956,25.9509969 C1.509,25.9509969 1.956,26.3989969 1.956,26.9509969 L1.956,32.5369969 L10.249,24.2439969 C10.64,23.8529969 11.273,23.8529969 11.663,24.2439969 C12.054,24.6349969 12.054,25.2669969 11.663,25.6579969 L3.371,33.9509969 L8.956,33.9509969 C9.509,33.9509969 9.956,34.3989969 9.956,34.9509969 C9.956,35.5029969 9.509,35.9509969 8.956,35.9509969" id="Fill-261" fill="#58A0DF"></path>
                </g>
            </g>
        </g>
    </g>
</svg>