<?xml version="1.0" encoding="UTF-8" standalone="no"?>
<svg width="101px" height="100px" viewBox="0 0 101 100" version="1.1" xmlns="http://www.w3.org/2000/svg" xmlns:xlink="http://www.w3.org/1999/xlink" xmlns:sketch="http://www.bohemiancoding.com/sketch/ns">
    <!-- Generator: Sketch 3.2 (9961) - http://www.bohemiancoding.com/sketch -->
    <title>browser</title>
    <desc>Created with Sketch.</desc>
    <defs>
        <linearGradient x1="0%" y1="0%" x2="101.999998%" y2="100.999999%" id="linearGradient-1">
            <stop stop-color="#00A9E0" offset="0%"></stop>
            <stop stop-color="#81C064" offset="100%"></stop>
        </linearGradient>
    </defs>
    <g id="Page-1" stroke="none" stroke-width="1" fill="none" fill-rule="evenodd" sketch:type="MSPage">
        <g id="browser" sketch:type="MSLayerGroup">
            <path d="M50.97,0 C78.584,0 100.97,22.386 100.97,50 C100.97,77.614 78.584,100 50.97,100 C23.356,100 0.97,77.613 0.97,50 C0.97,22.385 23.355,0 50.97,0 L50.97,0 Z" id="Shape" fill="url(#linearGradient-1)" sketch:type="MSShapeGroup"></path>
            <path d="M25.97,20 C23.209,20 20.97,22.239 20.97,25 L20.97,90 C29.326,96.277 39.713,100 50.97,100 C78.584,100 100.97,77.613 100.97,50 C100.97,38.743 97.248,28.357 90.971,20 L25.97,20 L25.97,20 Z" id="Shape" fill="#F7F7F7" sketch:type="MSShapeGroup"></path>
            <path d="M26.97,49 L26.97,69 C26.97,70.104 27.866,71 28.97,71 L96.346,71 C99.306,64.613 100.97,57.502 100.97,50 C100.97,48.992 100.931,47.993 100.872,47 L28.97,47 C27.865,47 26.97,47.895 26.97,49 L26.97,49 Z" id="Shape" fill="#324D5B" sketch:type="MSShapeGroup"></path>
            <path d="M90.368,48.001 C90.075,50.634 88.608,52.097 85.97,52.39 C88.609,52.683 90.075,54.148 90.368,56.781 C90.661,54.148 92.128,52.683 94.766,52.39 C92.128,52.098 90.661,50.635 90.368,48.001 L90.368,48.001 Z M58.22,58.172 C57.992,60.219 56.853,61.358 54.8,61.586 C56.853,61.815 57.992,62.953 58.22,65 C58.449,62.953 59.589,61.814 61.642,61.586 C59.589,61.357 58.448,60.219 58.22,58.172 L58.22,58.172 Z" id="Shape" fill="#EFC75E" sketch:type="MSShapeGroup"></path>
            <path d="M39.526,50.025 C39.364,51.488 38.549,52.301 37.083,52.465 C38.55,52.627 39.364,53.44 39.526,54.903 C39.69,53.44 40.505,52.628 41.969,52.465 C40.505,52.301 39.69,51.488 39.526,50.025 L39.526,50.025 Z M85.322,63.049 C85.192,64.219 84.54,64.871 83.368,65 C84.54,65.131 85.192,65.781 85.322,66.951 C85.452,65.781 86.104,65.131 87.276,65 C86.104,64.871 85.452,64.219 85.322,63.049 L85.322,63.049 Z M73.005,54.707 C72.841,56.17 72.026,56.984 70.562,57.146 C72.027,57.308 72.841,58.123 73.005,59.585 C73.167,58.122 73.982,57.308 75.448,57.146 C73.981,56.984 73.167,56.17 73.005,54.707 L73.005,54.707 Z" id="Shape" fill="#556C77" sketch:type="MSShapeGroup"></path>
            <path d="M41.97,59 C46.941,59 50.97,63.029 50.97,68 C50.97,72.971 46.941,77 41.97,77 C36.999,77 32.97,72.971 32.97,68 C32.97,63.029 36.999,59 41.97,59 L41.97,59 Z" id="Shape" fill="#DCDDDD" sketch:type="MSShapeGroup"></path>
            <path d="M30.47,26 C28.537,26 26.97,27.567 26.97,29.5 C26.97,31.434 28.537,33 30.47,33 C32.404,33 33.97,31.434 33.97,29.5 C33.97,27.567 32.403,26 30.47,26 L30.47,26 Z M30.47,31 C29.642,31 28.97,30.328 28.97,29.5 C28.97,28.672 29.642,28 30.47,28 C31.298,28 31.97,28.672 31.97,29.5 C31.97,30.328 31.298,31 30.47,31 L30.47,31 Z" id="Shape" fill="#E2574C" sketch:type="MSShapeGroup"></path>
            <path d="M40.47,26 C38.536,26 36.97,27.567 36.97,29.5 C36.97,31.434 38.536,33 40.47,33 C42.404,33 43.97,31.434 43.97,29.5 C43.97,27.567 42.403,26 40.47,26 L40.47,26 Z M40.47,31 C39.642,31 38.97,30.328 38.97,29.5 C38.97,28.672 39.642,28 40.47,28 C41.298,28 41.97,28.672 41.97,29.5 C41.97,30.328 41.298,31 40.47,31 L40.47,31 Z" id="Shape" fill="#EFC75E" sketch:type="MSShapeGroup"></path>
            <path d="M50.47,26 C48.536,26 46.97,27.567 46.97,29.5 C46.97,31.434 48.536,33 50.47,33 C52.404,33 53.97,31.434 53.97,29.5 C53.97,27.567 52.403,26 50.47,26 L50.47,26 Z M50.47,31 C49.642,31 48.97,30.328 48.97,29.5 C48.97,28.672 49.642,28 50.47,28 C51.298,28 51.97,28.672 51.97,29.5 C51.97,30.328 51.298,31 50.47,31 L50.47,31 Z" id="Shape" fill="#3DB39E" sketch:type="MSShapeGroup"></path>
            <path d="M26.97,82 C26.97,82.553 27.418,83 27.97,83 L53.97,83 C54.523,83 54.97,82.553 54.97,82 C54.97,81.447 54.523,81 53.97,81 L27.97,81 C27.417,81 26.97,81.447 26.97,82 L26.97,82 Z M58.97,86 C58.97,86.553 59.417,87 59.97,87 L84.601,87 C85.31,86.355 85.994,85.684 86.664,85 L59.97,85 C59.417,85 58.97,85.447 58.97,86 L58.97,86 Z M54.97,90 C54.97,89.447 54.523,89 53.97,89 L27.97,89 C27.418,89 26.97,89.447 26.97,90 C26.97,90.553 27.418,91 27.97,91 L53.97,91 C54.522,91 54.97,90.553 54.97,90 L54.97,90 Z M58.97,82 C58.97,82.553 59.417,83 59.97,83 L88.517,83 C89.09,82.348 89.646,81.682 90.185,81 L59.97,81 C59.417,81 58.97,81.447 58.97,82 L58.97,82 Z M94.839,26 L60.97,26 C59.866,26 58.97,26.896 58.97,28 L58.97,31 C58.97,32.104 59.866,33 60.97,33 L98.001,33 C97.123,30.574 96.064,28.235 94.839,26 L94.839,26 Z M53.97,85 L27.97,85 C27.418,85 26.97,85.447 26.97,86 C26.97,86.553 27.418,87 27.97,87 L53.97,87 C54.523,87 54.97,86.553 54.97,86 C54.97,85.447 54.522,85 53.97,85 L53.97,85 Z M59.97,89 C59.417,89 58.97,89.447 58.97,90 C58.97,90.553 59.417,91 59.97,91 L79.574,91 C80.486,90.361 81.377,89.695 82.244,89 L59.97,89 L59.97,89 Z M99.741,39 L20.97,39 L20.97,41 L100.147,41 C100.024,40.328 99.89,39.662 99.741,39 L99.741,39 Z" id="Shape" fill="#E4E7E7" sketch:type="MSShapeGroup"></path>
            <path d="M44.97,67.5 C44.97,65.014 43.626,63 41.97,63 C40.314,63 38.97,65.014 38.97,67.5 C38.97,68.979 39.452,70.279 40.186,71.1 C37.878,71.358 35.89,72.106 34.588,73.141 C36.214,75.471 38.911,77 41.97,77 C45.029,77 47.726,75.471 49.352,73.141 C48.05,72.106 46.062,71.358 43.754,71.1 C44.487,70.279 44.97,68.979 44.97,67.5 L44.97,67.5 Z" id="Shape" fill="#00A9E0" sketch:type="MSShapeGroup"></path>
        </g>
    </g>
</svg>