<?xml version="1.0" encoding="UTF-8" standalone="no"?>
<svg width="1024px" height="1024px" viewBox="0 0 1024 1024" version="1.1" xmlns="http://www.w3.org/2000/svg" xmlns:xlink="http://www.w3.org/1999/xlink" xmlns:sketch="http://www.bohemiancoding.com/sketch/ns">
    <!-- Generator: Sketch 3.2 (9961) - http://www.bohemiancoding.com/sketch -->
    <title>BitShares Network Mesh-complete-BTS-2</title>
    <desc>Created with Sketch.</desc>
    <defs></defs>
    <g id="BitShares-Mesh-GFX" stroke="none" stroke-width="1" fill="none" fill-rule="evenodd" sketch:type="MSPage">
        <g id="BitShares-Network-Mesh-complete-BTS-2" sketch:type="MSArtboardGroup">
            <g id="icon" sketch:type="MSLayerGroup" transform="translate(263.000000, 95.000000)" stroke="#ACD7F7" stroke-width="2">
                <path d="M163.929114,579.576449 L2.35141791,579.576449 C6.21292798,636.32904 28.1938315,687.953816 62.4174109,728.384659 L176.684328,611.132227 C170.60376,601.70733 166.194766,591.039325 163.929114,579.576449" id="Fill-1" sketch:type="MSShapeGroup"></path>
                <path d="M202.498158,636.068454 L87.4907461,752.574507 C127.147464,787.46872 177.783786,809.880354 233.44388,813.811594 L233.44388,649.073615 C222.200483,646.757627 211.742599,642.268175 202.498158,636.068454" id="Fill-2" sketch:type="MSShapeGroup"></path>
                <path d="M296.823633,636.068454 C287.579191,642.268175 277.121308,646.757627 265.87791,649.073615 L265.87791,813.811594 C321.538004,809.880354 372.174326,787.462781 411.831044,752.574507 L296.823633,636.068454" id="Fill-3" sketch:type="MSShapeGroup"></path>
                <path d="M335.392676,579.576449 C333.127024,591.039325 328.71803,601.70733 322.637463,611.126251 L436.904379,728.384659 C471.127959,687.953816 493.108863,636.32904 496.970373,579.576449 L335.392676,579.576449" id="Fill-4" sketch:type="MSShapeGroup"></path>
                <path d="M335.392676,545.130104 L496.970373,545.130104 C493.108863,488.38121 471.127959,436.75436 436.904379,396.321894 L322.637463,513.579034 C328.71803,523.004311 333.127024,533.666768 335.392676,545.130104" id="Fill-5" sketch:type="MSShapeGroup"></path>
                <path d="M296.823633,485.88239 L411.831044,369.38023 C372.174326,334.487183 321.538004,312.07036 265.87791,308.13925 L265.87791,472.871726 C277.121308,475.187636 287.579191,479.682878 296.823633,485.88239" id="Fill-6" sketch:type="MSShapeGroup"></path>
                <path d="M1,283.245511 L200.089164,487.260244 C209.245825,481.05619 219.604408,476.557656 230.741044,474.245992 L230.741044,209.789272 L1,0.8778538 L1,283.245511 Z" id="Fill-7" sketch:type="MSShapeGroup"></path>
                <path d="M174.848634,513.657406 C168.789524,523.059271 164.396088,533.695243 162.138432,545.130104 L0.515724134,545.130104 L0.515724134,334.318473 L174.848634,513.657406" id="Fill-8" sketch:type="MSShapeGroup"></path>
            </g>
            <g id="Group" sketch:type="MSLayerGroup" transform="translate(529.000000, 411.000000)" stroke="#ACD7F7" stroke-width="0.5">
                <path d="M32.60304,168.67749 L31.7441951,117.163682 L96.7110418,104.367865 L110.767071,26.9486062 L65.5564701,72.7256021 L56.1929741,0.86924067 L0.985203895,19.3733282" id="Path-74" sketch:type="MSShapeGroup"></path>
                <path d="M65.4923377,72.6224715 L0.874105304,20.0275755 L31.7392538,117.481036 L65.4923377,72.6224715 Z" id="Path-75" sketch:type="MSShapeGroup"></path>
                <path d="M65.3697965,72.0228128 L96.221385,104.787571 L32.5495481,142.034402 L1.00166295,116.843825 L32.5495488,116.843827" id="Path-76" sketch:type="MSShapeGroup"></path>
                <path d="M19.9902826,74.9432745 L42.4320526,52.5015046" id="Path-77" sketch:type="MSShapeGroup"></path>
                <path d="M20.50357,75.2501886 L1.37435559,83.2828712" id="Path-78" sketch:type="MSShapeGroup"></path>
            </g>
            <g id="Group" sketch:type="MSLayerGroup" transform="translate(598.296673, 493.101269)" stroke="#ACD7F7" stroke-width="0.5">
                <path d="M0.458709727,146.532148 L50.3658825,108.232995 L110.031761,98.1491361 L102.354045,0.167850982 L88.1285295,41.1210779 L143.433269,73.0919078 L126.695934,146.44273 L86.3157923,130.010227 L60.8602485,40.9991449 L43.6229881,146.47931 L4.78326644,98.1491372" id="Path-83" sketch:type="MSShapeGroup"></path>
                <path d="M5.82376128,98.9213795 L51.0283851,108.984916 L88.8276119,40.3000624 L109.422094,97.8808846 L88.8276119,127.230155 L62.2949933,147.5889" id="Path-84" sketch:type="MSShapeGroup"></path>
                <path d="M111.734756,98.4214542 L125.118934,143.231828 L158.62612,114.886472" id="Path-85" sketch:type="MSShapeGroup"></path>
                <path d="M111.734756,97.3077996 L143.128437,72.8561707" id="Path-86" sketch:type="MSShapeGroup"></path>
                <path d="M89.1324444,40.25 L61.3642382,40.25" id="Path-87" sketch:type="MSShapeGroup"></path>
                <path d="M51.8372072,108.302091 L62.3681531,147.914055" id="Path-88" sketch:type="MSShapeGroup"></path>
            </g>
            <g id="Group" sketch:type="MSLayerGroup" transform="translate(586.000000, 672.000000)" stroke="#ACD7F7" stroke-width="0.5">
                <path d="M0.417051665,33.7427314 L55.5087894,36.2574183 L63.0193617,1.76419396 L115.800388,33.7701311 L172.82533,1.76419396" id="Path-88" sketch:type="MSShapeGroup"></path>
                <path d="M114.442579,150.85834 L115.94652,32.588898 L56.2333602,35.478048 L53.1432787,87.7080354" id="Path-89" sketch:type="MSShapeGroup"></path>
                <path d="M54.4736882,88.8618688 L115.544657,89.6412391 L140.764593,111.999424 L145.185084,44.9492238 L116.068297,32.7898294" id="Path-90" sketch:type="MSShapeGroup"></path>
                <path d="M171.561897,2.63794113 L145.185084,43.48486 L162.949247,50.0151307" id="Path-91" sketch:type="MSShapeGroup"></path>
                <path d="M115.572057,34.0654394 L54.9029507,86.6455345" id="Path-92" sketch:type="MSShapeGroup"></path>
                <path d="M56.4099363,36.1752191 L115.572057,91.0934251" id="Path-93" sketch:type="MSShapeGroup"></path>
                <path d="M14.6344707,3.44471116 L29.8565468,33.2586693 L62.9402069,2.63794113" id="Path-94" sketch:type="MSShapeGroup"></path>
                <path d="M116.902467,32.104836 L118.0563,0.878269134" id="Path-95" sketch:type="MSShapeGroup"></path>
                <path d="M147.349663,44.5595386 L116.698491,88.298652" id="Path-96" sketch:type="MSShapeGroup"></path>
            </g>
            <g id="Group" sketch:type="MSLayerGroup" transform="translate(529.000000, 731.000000)" stroke="#ACD7F7" stroke-width="0.5">
                <path d="M2.1626195,175.691233 L27.608113,139.302549 L57.6628398,166.173681" id="Path-99" sketch:type="MSShapeGroup"></path>
                <path d="M29.2530809,139.246055 L0.839998843,111.932941" id="Path-100" sketch:type="MSShapeGroup"></path>
                <path d="M30.0739033,138.644562 L48.3646171,111.713612 L145.547327,116.349431" id="Path-101" sketch:type="MSShapeGroup"></path>
                <path d="M48.64044,110.424223 L31.6125298,0.872683687" id="Path-102" sketch:type="MSShapeGroup"></path>
                <path d="M2.10280249,110.394315 L41.3959349,61.1715578 L1.44149216,13.4276105" id="Path-103" sketch:type="MSShapeGroup"></path>
                <path d="M42.3795925,60.7295766 L85.1055569,55.4656792 L49.9464449,110.145077" id="Path-104" sketch:type="MSShapeGroup"></path>
                <path d="M88.0066822,93.496008 L108.849589,78.7710529" id="Path-105" sketch:type="MSShapeGroup"></path>
                <path d="M84.4442466,56.0073555 L90.7516185,91.98729 L50.3286091,110.9659 L71.992338,137.484776 L30.7485063,138.524928 L28.6349717,172.201907" id="Path-106" sketch:type="MSShapeGroup"></path>
                <path d="M73.6040742,136.441302 L59.2313748,165.103621" id="Path-107" sketch:type="MSShapeGroup"></path>
                <path d="M74.5578233,136.913191 L90.9543317,112.916599 L112.046476,99.4511242 L89.5021075,91.0335409" id="Path-108" sketch:type="MSShapeGroup"></path>
                <path d="M112.677878,98.8230455 L144.653395,115.880864" id="Path-109" sketch:type="MSShapeGroup"></path>
                <path d="M113.060042,98.6303018 L120.218145,88.5112568" id="Path-110" sketch:type="MSShapeGroup"></path>
                <path d="M112.853341,141.000089 L90.9753951,112.957594" id="Path-111" sketch:type="MSShapeGroup"></path>
                <path d="M40.4886566,59.911732 L0.594371336,64.5176154" id="Path-112" sketch:type="MSShapeGroup"></path>
                <path d="M16.1001264,48.2945506 L2.41461215,62.2928766" id="Path-113" sketch:type="MSShapeGroup"></path>
                <path d="M1.36561411,64.6955945 L11.7558183,79.381567" id="Path-114" sketch:type="MSShapeGroup"></path>
                <path d="M41.9286693,58.7332946 L53.5458507,45.2230628" id="Path-115" sketch:type="MSShapeGroup"></path>
            </g>
            <g id="Group" sketch:type="MSLayerGroup" transform="translate(263.000000, 97.000000)">
                <g transform="translate(88.000000, 642.000000)" sketch:type="MSShapeGroup">
                    <g>
                        <path d="M0.92414816,108.440761 L60.053031,93.3668365 L50.0220748,58.1821273 L96.7497145,63.7749046 L109.123467,27.2553818" id="Path-42" stroke="#D3D7D9"></path>
                        <path d="M145.847641,167.542154 L57.7346706,91.7754455 L96.0196906,62.5622708 L96.2243417,96.3877305 L145.725461,89.227998" id="Path-43" stroke="#E1E6E8"></path>
                        <path d="M109.731311,26.7422269 L146.305815,22.8599658 L107.843634,0.601872522 L109.731311,26.7422269 Z" id="Path-44" stroke="#E1E6E8" stroke-width="0.5"></path>
                        <path d="M77.8485095,32.2830779 L104.16297,44.6598851 L124.45397,68.0481409 L97.7882423,94.5122715 L126.62266,119.061235 L115.030857,137.437067" id="Path-45" stroke="#ECF0F2"></path>
                        <path d="M126.503535,118.859638 L87.057807,115.557731 L52.0441494,140.916135 L114.62461,138.799371 L113.060709,162.163191" id="Path-46" stroke="#E1E6E8"></path>
                        <path d="M96.8291314,95.672979 L60.3096085,92.3955076 L53.7302297,139.000968 L32.4831738,76.7167931" id="Path-47" stroke="#D3D7D9"></path>
                    </g>
                </g>
                <g id="paths" stroke-width="0.5" sketch:type="MSShapeGroup">
                    <g id="Path-268-+-Path-269-+-Path-270">
                        <path d="M181.321871,464.332611 L231.711764,429.644867 L129.943514,322.663256 L230.110415,206.109455 L1.77454659,115.751716 L74.0973612,64.5803532 L229.668787,368.761286 L104.903584,385.830375 L1.0923575,206.648026 L141.257082,124.196498 L31.2487056,310.523881 L120.069725,264.871069 L0.790758114,152.611469 L67.8068597,108.904691" id="Path-268" stroke="#ACD7F7"></path>
                        <path d="M120.558028,262.996844 L130.06559,323.201826 L54.4287727,298.431182 L180.350107,375.464691 L197.845171,453.907556 L136.707957,380.232834 L192.137616,291.411815 L96.264916,202.113264 L68.0905068,108.728759 L3.32203867,0.0811702662 L21.6908775,98.4743794 L35.524954,182.731913 L59.8467902,260.067022 L2.81578256,206.917311 L229.284607,258.261016" id="Path-269" stroke="#ACD7F7"></path>
                        <path d="M192.184292,290.905559 L229.665197,257.927102 L182.615693,374.926121" id="Path-270" stroke="#D3D7D9"></path>
                        <path d="M122.317358,263.585681 L187.969082,166.790231 L67.5016699,186.789142 L97.2127998,310.157653 L58.1341366,337.477531 L1.78531799,254.756718" id="Path-271" stroke="#DBE7EA"></path>
                    </g>
                </g>
                <g id="Path-48-+-Path-49" transform="translate(211.000000, 664.000000)" stroke="#E1E6E8" sketch:type="MSShapeGroup">
                    <path d="M0.631130126,45.293681 L22.3088697,0.603388352" id="Path-48"></path>
                    <path d="M1.38558999,45.064594 L22.632646,67.1485812 L4.07965315,95.9555083 L21.7285159,97.898166" id="Path-49"></path>
                </g>
                <g transform="translate(1.000000, 356.000000)" sketch:type="MSShapeGroup">
                    <path d="M32.7689851,184.986348 L62.0017548,134.008076 L0.939629239,88.5206276 L47.6249432,24.9804924 L61.7016833,92.5135142" id="Path-22" stroke="#E1E6E8"></path>
                    <path d="M62.8148517,91.2212709 L0.438703467,87.6875351 L0.438703467,147.968659 L137.643966,117.6566 L131.971647,185.509053 L62.8148517,91.2212709 Z" id="Path-23" stroke="#ACD7F7"></path>
                    <path d="M95.2516103,73.7058084 L0.0974931592,28.973379 L24.0233536,0.137478095" id="Path-24" stroke="#ACD7F7"></path>
                    <path d="M85.5210667,186.065637 L90.2520323,128.313977" id="Path-25" stroke="#D3D7D9"></path>
                </g>
                <g id="path" transform="translate(3.000000, 577.000000)" stroke-width="0.5" stroke="#BABEC1" sketch:type="MSShapeGroup">
                    <g id="Group">
                        <g>
                            <path d="M0.352689036,0.887569486 L82.5107508,54.3618522 L160.895195,0.970699922" id="Path-29"></path>
                            <path d="M82.7891118,53.7282975 L59.590682,147.994433" id="Path-30"></path>
                            <path d="M114.893834,92.4645616 L114.726314,68.1652832 L83.7010275,53.9776888" id="Path-31"></path>
                            <path d="M115.710024,67.1362292 L173.486937,31.2692247" id="Path-32"></path>
                            <path d="M82.0157469,1.05508991 L83.1392673,53.1048193" id="Path-33"></path>
                            <path d="M15.6335746,70.8884348 L57.3108928,62.0337838 L47.3553933,30.779259 L82.3381922,23.3693142 L126.751257,23.8466844" id="Path-34"></path>
                            <path d="M57.1547083,61.6836283 L35.7246896,116.030781 L65.2108033,81.6802769 L57.1547083,61.6836283 Z" id="Path-35"></path>
                            <path d="M66.4061182,81.2747011 L114.058751,67.8037918 L87.4418972,97.6854049 L97.3369381,109.170001" id="Path-36"></path>
                            <path d="M87.608158,98.2459056 L66.0836729,81.1903111" id="Path-37"></path>
                        </g>
                    </g>
                </g>
            </g>
            <g id="Group" sketch:type="MSLayerGroup" transform="translate(-310.000000, 668.000000)"></g>
            <g id="Group-+-Stroke-171-2" sketch:type="MSLayerGroup" transform="translate(-65.000000, 473.000000)">
                <g id="Group"></g>
            </g>
            <g id="Group" sketch:type="MSLayerGroup" transform="translate(257.000000, 91.000000)">
                <g sketch:type="MSShapeGroup">
                    <ellipse id="Oval-path" stroke="#979797" stroke-width="0.5" stroke-linecap="square" fill="#D8D8D8" cx="112.244669" cy="389.604659" rx="7.03179651" ry="7.05423048"></ellipse>
                    <ellipse id="Oval-path" stroke="#979797" stroke-width="0.5" stroke-linecap="square" fill="#D8D8D8" cx="7.78531799" cy="214.743732" rx="7.03179651" ry="7.05423048"></ellipse>
                    <ellipse id="Oval-path" stroke="#979797" stroke-width="0.5" stroke-linecap="square" fill="#D8D8D8" cx="145.5" cy="130.990996" rx="4" ry="4.25"></ellipse>
                    <ellipse id="Oval-path" stroke="#979797" stroke-width="0.5" stroke-linecap="square" fill="#D8D8D8" cx="73.4681084" cy="111.93177" rx="4" ry="4.25"></ellipse>
                    <ellipse id="Oval-path" stroke="#979797" stroke-width="0.5" stroke-linecap="square" fill="#D8D8D8" cx="65.484697" cy="265.790919" rx="3" ry="3"></ellipse>
                    <ellipse id="Oval-path" fill="#F7A696" cx="127.050195" cy="269.677102" rx="4" ry="4.25"></ellipse>
                    <ellipse id="Oval-path" stroke="#979797" stroke-width="0.5" stroke-linecap="square" fill="#F7A696" cx="236.070636" cy="211.540231" rx="4" ry="4.25"></ellipse>
                    <ellipse id="Oval-path" stroke="#979797" stroke-width="0.5" stroke-linecap="square" fill="#D8D8D8" cx="236.070636" cy="373.871891" rx="4" ry="4.25"></ellipse>
                    <ellipse id="Oval-path" stroke="#979797" stroke-width="0.5" stroke-linecap="square" fill="#D8D8D8" cx="135.050195" cy="608.408992" rx="4" ry="4.25"></ellipse>
                    <ellipse id="Oval-path" stroke="#979797" stroke-width="0.5" stroke-linecap="square" fill="#D8D8D8" cx="146.25" cy="791.164062" rx="5.375" ry="5.7109375"></ellipse>
                    <ellipse id="Oval-path" stroke="#9B9B9B" stroke-width="0.5" stroke-linecap="square" fill="#D8D8D8" cx="123.276466" cy="650.75" rx="4" ry="4.25"></ellipse>
                    <ellipse id="Oval-path" stroke="#979797" stroke-width="0.5" stroke-linecap="square" fill="#D8D8D8" cx="236.570636" cy="434.008762" rx="4" ry="4.25"></ellipse>
                    <ellipse id="Oval-path" stroke="#979797" stroke-width="0.5" stroke-linecap="square" fill="#D8D8D8" cx="96.8771998" cy="188.290231" rx="4" ry="4.25"></ellipse>
                    <ellipse id="Oval" fill="#ACD7F7" cx="196.998592" cy="295.740996" rx="9.37622882" ry="9.40539033"></ellipse>
                    <ellipse id="Oval-3" fill="#ACD7F7" cx="188.615693" cy="380.926121" rx="7.03235877" ry="7.05423048"></ellipse>
                    <ellipse id="Oval-3" fill="#ACD7F7" cx="80.0004672" cy="70.5803532" rx="7.03235877" ry="7.05423048"></ellipse>
                    <ellipse id="Oval-2" fill="#FDE699" cx="60.3459677" cy="302.09461" rx="9.37622882" ry="9.40539033"></ellipse>
                    <ellipse id="Oval-2" fill="#FDE699" cx="190.998592" cy="172.790231" rx="6" ry="6.25"></ellipse>
                    <ellipse id="Oval-2" fill="#ACD7F7" cx="35.4080253" cy="135.146387" rx="9.37622882" ry="9.40539033"></ellipse>
                    <ellipse id="Oval-path-2" stroke="#979797" stroke-width="0.5" stroke-linecap="square" fill="#ACD7F7" cx="87.3404905" cy="229.161968" rx="14.3723821" ry="14.4182352"></ellipse>
                    <ellipse id="Oval-path-2" stroke="#979797" stroke-width="0.5" stroke-linecap="square" fill="#D8D8D8" cx="136.25" cy="328.426612" rx="6" ry="6"></ellipse>
                    <path d="M8,264 C6.34325,264 5,262.65675 5,261 C5,259.34325 6.34325,258 8,258 C9.65675,258 11,259.34325 11,261 C11,262.65675 9.65675,264 8,264 Z" id="Stroke-171-2" fill="#FDE699"></path>
                    <ellipse id="Oval-3" fill="#ACD7F7" cx="95.5178727" cy="677.195048" rx="7.03235877" ry="7.05423048"></ellipse>
                    <ellipse id="Oval-3" fill="#ACD7F7" cx="152.517873" cy="740.195048" rx="7.03235877" ry="7.05423048"></ellipse>
                    <ellipse id="Oval-path-2" fill="#D9F3BE" cx="180.848634" cy="614.658992" rx="6" ry="6"></ellipse>
                    <ellipse id="Oval-path-2" fill="#D9F3BE" cx="195" cy="690.249279" rx="6" ry="6"></ellipse>
                    <ellipse id="Oval-path-2" stroke="#979797" stroke-width="0.5" stroke-linecap="square" fill="#D9F3BE" cx="62.3459677" cy="645.605359" rx="9" ry="9"></ellipse>
                    <path d="M91.5,645.253061 C86.52975,645.253061 82.5,641.223311 82.5,636.253061 C82.5,631.282811 86.52975,627.253061 91.5,627.253061 C96.47025,627.253061 100.5,631.282811 100.5,636.253061 C100.5,641.223311 96.47025,645.253061 91.5,645.253061 Z" id="Stroke-171-2" fill="#FDE699"></path>
                    <path d="M25,657 C23.34325,657 22,655.65675 22,654 C22,652.34325 23.34325,651 25,651 C26.65675,651 28,652.34325 28,654 C28,655.65675 26.65675,657 25,657 Z" id="Stroke-171-2" fill="#FDE699"></path>
                    <circle id="Oval-2" fill="#ACD7F7" cx="91.8865495" cy="584" r="3"></circle>
                    <circle id="Oval-2" fill="#D9F3BE" cx="74.3459677" cy="664" r="3"></circle>
                    <circle id="Oval-2" fill="#ACD7F7" cx="95.5178727" cy="755.761585" r="3"></circle>
                    <circle id="Oval-2" fill="#FEB6A8" cx="9" cy="583.576449" r="6"></circle>
                    <circle id="Oval-2" fill="#FEB6A8" cx="207" cy="785.576449" r="6"></circle>
                    <path d="M8.8171145,12.0811703 C5.5036145,12.0811703 2.8171145,9.39467027 2.8171145,6.08117027 C2.8171145,2.76767027 5.5036145,0.0811702662 8.8171145,0.0811702662 C12.1306145,0.0811702662 14.8171145,2.76767027 14.8171145,6.08117027 C14.8171145,9.39467027 12.1306145,12.0811703 8.8171145,12.0811703 Z" id="Stroke-171-2" fill="#FDE699"></path>
                    <path d="M204.140445,468.724288 C199.170195,468.724288 195.140445,464.694538 195.140445,459.724288 C195.140445,454.754038 199.170195,450.724288 204.140445,450.724288 C209.110695,450.724288 213.140445,454.754038 213.140445,459.724288 C213.140445,464.694538 209.110695,468.724288 204.140445,468.724288 Z" id="Stroke-171-2" fill="#FDE699"></path>
                    <path d="M190.998592,750.384659 C186.028342,750.384659 181.998592,746.354909 181.998592,741.384659 C181.998592,736.414409 186.028342,732.384659 190.998592,732.384659 C195.968842,732.384659 199.998592,736.414409 199.998592,741.384659 C199.998592,746.354909 195.968842,750.384659 190.998592,750.384659 Z" id="Stroke-171-2" fill="#FDE699"></path>
                    <path d="M91.5,165.728956 C86.52975,165.728956 82.5,161.699206 82.5,156.728956 C82.5,151.758706 86.52975,147.728956 91.5,147.728956 C96.47025,147.728956 100.5,151.758706 100.5,156.728956 C100.5,161.699206 96.47025,165.728956 91.5,165.728956 Z" id="Stroke-171-2" fill="#FDE699"></path>
                    <path d="M41.9697389,197.290231 C36.9994889,197.290231 32.9697389,193.260481 32.9697389,188.290231 C32.9697389,183.319981 36.9994889,179.290231 41.9697389,179.290231 C46.9399889,179.290231 50.9697389,183.319981 50.9697389,188.290231 C50.9697389,193.260481 46.9399889,197.290231 41.9697389,197.290231 Z" id="Stroke-171-2" fill="#D9F3BE"></path>
                    <path d="M36.4697389,319.418235 C34.8129889,319.418235 33.4697389,318.074985 33.4697389,316.418235 C33.4697389,314.761485 34.8129889,313.418235 36.4697389,313.418235 C38.1264889,313.418235 39.4697389,314.761485 39.4697389,316.418235 C39.4697389,318.074985 38.1264889,319.418235 36.4697389,319.418235 Z" id="Stroke-171-2" fill="#D3D7D9"></path>
                    <ellipse id="Oval-path" stroke="#979797" stroke-width="0.5" stroke-linecap="square" fill="#D8D8D8" cx="140.25" cy="546.736348" rx="4" ry="4.25"></ellipse>
                    <ellipse id="Oval-3" fill="#ACD7F7" cx="95.5178727" cy="490.313977" rx="7.03235877" ry="7.05423048"></ellipse>
                    <ellipse id="Oval-path-2" fill="#D9F3BE" cx="68.484697" cy="495.470631" rx="6" ry="6"></ellipse>
                    <path d="M8,513 C6.34325,513 5,511.65675 5,510 C5,508.34325 6.34325,507 8,507 C9.65675,507 11,508.34325 11,510 C11,511.65675 9.65675,513 8,513 Z" id="Stroke-171-2" fill="#FDE699"></path>
                    <path d="M143.5,485 C141.014875,485 139,482.985125 139,480.5 C139,478.014875 141.014875,476 143.5,476 C145.985125,476 148,478.014875 148,480.5 C148,482.985125 145.985125,485 143.5,485 Z" id="Stroke-171-2" fill="#FDE699"></path>
                    <path d="M202.917467,676.259747 C201.260717,676.259747 199.917467,674.916497 199.917467,673.259747 C199.917467,671.602997 201.260717,670.259747 202.917467,670.259747 C204.574217,670.259747 205.917467,671.602997 205.917467,673.259747 C205.917467,674.916497 204.574217,676.259747 202.917467,676.259747 Z" id="Stroke-171-2" fill="#FDE699"></path>
                    <ellipse id="Oval-path" stroke="#979797" stroke-width="0.5" stroke-linecap="square" fill="#FEB6A8" cx="7.78531799" cy="389.604659" rx="7.03179651" ry="7.05423048"></ellipse>
                    <ellipse id="Oval-path-2" stroke="#979797" stroke-width="0.5" stroke-linecap="square" fill="#D8D8D8" cx="8" cy="449.43221" rx="6" ry="6"></ellipse>
                    <circle id="Oval-2" fill="#ACD7F7" cx="60.3459677" cy="417.461209" r="6"></circle>
                    <ellipse id="Oval-2" fill="#FDE699" cx="56.484697" cy="388.800428" rx="6" ry="6.25"></ellipse>
                    <path d="M37.4697389,552.130104 C35.8129889,552.130104 34.4697389,550.786854 34.4697389,549.130104 C34.4697389,547.473354 35.8129889,546.130104 37.4697389,546.130104 C39.1264889,546.130104 40.4697389,547.473354 40.4697389,549.130104 C40.4697389,550.786854 39.1264889,552.130104 37.4697389,552.130104 Z" id="Stroke-171-2" fill="#D3D7D9"></path>
                    <path d="M220,772.130104 C216.6865,772.130104 214,769.443604 214,766.130104 C214,762.816604 216.6865,760.130104 220,760.130104 C223.3135,760.130104 226,762.816604 226,766.130104 C226,769.443604 223.3135,772.130104 220,772.130104 Z" id="Stroke-171-2" fill="#D9F3BE"></path>
                    <path d="M203,651.130104 C201.34325,651.130104 200,649.786854 200,648.130104 C200,646.473354 201.34325,645.130104 203,645.130104 C204.65675,645.130104 206,646.473354 206,648.130104 C206,649.786854 204.65675,651.130104 203,651.130104 Z" id="Stroke-171-2" stroke="#9B9B9B" stroke-width="0.5" fill="#D3D7D9"></path>
                    <path d="M240,741 C238.34325,741 237,739.65675 237,738 C237,736.34325 238.34325,735 240,735 C241.65675,735 243,736.34325 243,738 C243,739.65675 241.65675,741 240,741 Z" id="Stroke-171-2" stroke="#9B9B9B" stroke-width="0.5" fill="#D3D7D9"></path>
                    <path d="M235.284607,272.927102 C230.314357,272.927102 226.284607,268.897352 226.284607,263.927102 C226.284607,258.956852 230.314357,254.927102 235.284607,254.927102 C240.254857,254.927102 244.284607,258.956852 244.284607,263.927102 C244.284607,268.897352 240.254857,272.927102 235.284607,272.927102 Z" id="Stroke-171-2" fill="#FDE699"></path>
                    <path d="M145.5,234.080203 C140.391174,234.080203 136.25,238.33369 136.25,243.580203 C136.25,248.826716 140.391174,253.080203 145.5,253.080203 C150.608826,253.080203 154.75,248.826716 154.75,243.580203 C154.75,238.33369 150.608826,234.080203 145.5,234.080203" id="Shape-4" fill="#D9F3BE"></path>
                    <circle id="Oval-2" fill="#ACD7F7" cx="217" cy="714" r="3"></circle>
                    <path d="M304.531086,445.723248 C299.560836,445.723248 295.531086,441.693498 295.531086,436.723248 C295.531086,431.752998 299.560836,427.723248 304.531086,427.723248 C309.501336,427.723248 313.531086,431.752998 313.531086,436.723248 C313.531086,441.693498 309.501336,445.723248 304.531086,445.723248 Z" id="Stroke-171-2" fill="#FDE699"></path>
                    <ellipse id="Oval-path" fill="#F7A696" cx="271.296673" cy="338.835392" rx="4" ry="4.25"></ellipse>
                    <path d="M290.746479,386.395711 C285.637653,386.395711 281.496479,390.649198 281.496479,395.895711 C281.496479,401.142224 285.637653,405.395711 290.746479,405.395711 C295.855304,405.395711 299.996479,401.142224 299.996479,395.895711 C299.996479,390.649198 295.855304,386.395711 290.746479,386.395711" id="Shape-4" fill="#D9F3BE"></path>
                    <path d="M386.25,606.578894 C381.141174,606.578894 377,610.832381 377,616.078894 C377,621.325407 381.141174,625.578894 386.25,625.578894 C391.358826,625.578894 395.5,621.325407 395.5,616.078894 C395.5,610.832381 391.358826,606.578894 386.25,606.578894" id="Shape-4" fill="#D9F3BE"></path>
                    <path d="M305.163946,463.777478 C303.507196,463.777478 302.163946,462.434228 302.163946,460.777478 C302.163946,459.120728 303.507196,457.777478 305.163946,457.777478 C306.820696,457.777478 308.163946,459.120728 308.163946,460.777478 C308.163946,462.434228 306.820696,463.777478 305.163946,463.777478 Z" id="Stroke-171-2" fill="#FDE699"></path>
                    <circle id="Oval-2" fill="#FEB6A8" cx="274.246479" cy="436.03995" r="6"></circle>
                    <ellipse id="Oval-path-2" fill="#D9F3BE" cx="382.246479" cy="348.335392" rx="6" ry="6"></ellipse>
                    <ellipse id="Oval-path" stroke="#979797" stroke-width="0.5" stroke-linecap="square" fill="#D8D8D8" cx="327.296673" cy="321.872494" rx="4" ry="4.25"></ellipse>
                    <ellipse id="Oval-path" stroke="#9B9B9B" stroke-width="0.5" stroke-linecap="square" fill="#D8D8D8" cx="313.522944" cy="373.80423" rx="4" ry="4.25"></ellipse>
                    <ellipse id="Oval-3" fill="#ACD7F7" cx="367.246946" cy="423.043854" rx="7.03235877" ry="7.05423048"></ellipse>
                    <ellipse id="Oval-path" stroke="#979797" stroke-width="0.5" stroke-linecap="square" fill="#D8D8D8" cx="28.8171145" cy="362.76393" rx="4" ry="4.25"></ellipse>
                    <ellipse id="Oval-2" fill="#FDE699" cx="7.73117555" cy="337.835392" rx="6" ry="6.25"></ellipse>
                    <path d="M7.71621738,293.890113 C6.05946738,293.890113 4.71621738,292.546863 4.71621738,290.890113 C4.71621738,289.233363 6.05946738,287.890113 7.71621738,287.890113 C9.37296738,287.890113 10.7162174,289.233363 10.7162174,290.890113 C10.7162174,292.546863 9.37296738,293.890113 7.71621738,293.890113 Z" id="Stroke-171-2" fill="#D3D7D9"></path>
                    <ellipse id="Oval-path" stroke="#979797" stroke-width="0.5" stroke-linecap="square" fill="#D8D8D8" cx="58.153275" cy="86.0681601" rx="7.03179651" ry="7.05423048"></ellipse>
                    <ellipse id="Oval-path" stroke="#979797" stroke-width="0.5" stroke-linecap="square" fill="#D8D8D8" cx="67.8714785" cy="450.723248" rx="7.03179651" ry="7.05423048"></ellipse>
                    <ellipse id="Oval-path" stroke="#979797" stroke-width="0.5" stroke-linecap="square" fill="#D8D8D8" cx="181.90856" cy="191.454497" rx="4" ry="4.25"></ellipse>
                    <ellipse id="Oval-path" stroke="#979797" stroke-width="0.5" stroke-linecap="square" fill="#D8D8D8" cx="156.317114" cy="364.003732" rx="3" ry="3"></ellipse>
                    <ellipse id="Oval-path" stroke="#979797" stroke-width="0.5" stroke-linecap="square" fill="#F7A696" cx="238.317114" cy="669.973248" rx="4" ry="4.25"></ellipse>
                    <ellipse id="Oval-path" stroke="#979797" stroke-width="0.5" stroke-linecap="square" fill="#D8D8D8" cx="393" cy="583.96278" rx="4" ry="4.25"></ellipse>
                    <ellipse id="Oval-path" stroke="#979797" stroke-width="0.5" stroke-linecap="square" fill="#D8D8D8" cx="56.4964785" cy="614.304542" rx="5.375" ry="5.7109375"></ellipse>
                    <ellipse id="Oval-3" fill="#F7A696" cx="200.284756" cy="254.389622" rx="7.03235877" ry="7.05423048"></ellipse>
                    <ellipse id="Oval-2" fill="#FDE699" cx="238.317114" cy="768.253732" rx="6" ry="6.25"></ellipse>
                    <ellipse id="Oval-3" fill="#ACD7F7" cx="446.702398" cy="613.633124" rx="7.03235877" ry="7.05423048"></ellipse>
                    <ellipse id="Oval-2" fill="#D9F3BE" cx="106.592446" cy="692.463501" rx="3" ry="3"></ellipse>
                    <ellipse id="Oval-path" stroke="#979797" stroke-width="0.5" stroke-linecap="square" fill="#D8D8D8" cx="401.869004" cy="441.28995" rx="4" ry="4.25"></ellipse>
                    <path d="M382.246479,548.463501 C380.589729,548.463501 379.246479,547.120251 379.246479,545.463501 C379.246479,543.806751 380.589729,542.463501 382.246479,542.463501 C383.903229,542.463501 385.246479,543.806751 385.246479,545.463501 C385.246479,547.120251 383.903229,548.463501 382.246479,548.463501 Z" id="Stroke-171-2" fill="#FDE699"></path>
                    <path d="M126,675.723248 C124.34325,675.723248 123,674.379998 123,672.723248 C123,671.066498 124.34325,669.723248 126,669.723248 C127.65675,669.723248 129,671.066498 129,672.723248 C129,674.379998 127.65675,675.723248 126,675.723248 Z" id="Stroke-171-2" fill="#FDE699"></path>
                    <ellipse id="Oval-2" fill="#ACD7F7" cx="67.8714785" cy="726.92471" rx="6" ry="6"></ellipse>
                    <path d="M239.317114,819.723248 C237.660364,819.723248 236.317114,818.379998 236.317114,816.723248 C236.317114,815.066498 237.660364,813.723248 239.317114,813.723248 C240.973864,813.723248 242.317114,815.066498 242.317114,816.723248 C242.317114,818.379998 240.973864,819.723248 239.317114,819.723248 Z" id="Stroke-171-2" stroke="#9B9B9B" stroke-width="0.5" fill="#D3D7D9"></path>
                    <path d="M347.621299,502.463501 C345.964549,502.463501 344.621299,501.120251 344.621299,499.463501 C344.621299,497.806751 345.964549,496.463501 347.621299,496.463501 C349.278049,496.463501 350.621299,497.806751 350.621299,499.463501 C350.621299,501.120251 349.278049,502.463501 347.621299,502.463501 Z" id="Stroke-171-2" stroke="#9B9B9B" stroke-width="0.5" fill="#D3D7D9"></path>
                    <ellipse id="Oval-path-18" stroke="#979797" stroke-width="0.5" stroke-linecap="square" fill="#D8D8D8" cx="502" cy="583.963501" rx="7.03179651" ry="7.05423048"></ellipse>
                    <ellipse id="Oval-path-6" stroke="#979797" stroke-width="0.5" stroke-linecap="square" fill="#D8D8D8" cx="184.532507" cy="471.06886" rx="3" ry="3"></ellipse>
                    <ellipse id="Oval-path-7" stroke="#979797" stroke-width="0.5" stroke-linecap="square" fill="#F7A696" cx="168.317114" cy="583.713501" rx="4" ry="4.25"></ellipse>
                    <ellipse id="Oval-path-9" stroke="#979797" stroke-width="0.5" stroke-linecap="square" fill="#D8D8D8" cx="95.2174462" cy="284.5073" rx="5.375" ry="5.7109375"></ellipse>
                    <ellipse id="Oval-4" fill="#ACD7F7" cx="338.245071" cy="387.822442" rx="9.37622882" ry="9.40539033"></ellipse>
                    <ellipse id="Oval-24" fill="#FDE699" cx="163.317114" cy="354.253732" rx="6" ry="6.25"></ellipse>
                    <ellipse id="Oval-32" fill="#FDE699" cx="360.214587" cy="613.383124" rx="6" ry="6.25"></ellipse>
                    <ellipse id="Oval-35" fill="#FDE699" cx="360.214587" cy="613.383124" rx="6" ry="6.25"></ellipse>
                    <ellipse id="Oval-32" fill="#FDE699" cx="412.869004" cy="639.937355" rx="6" ry="6.25"></ellipse>
                    <ellipse id="Oval-25" fill="#FDE699" cx="100.592446" cy="435.28995" rx="6" ry="6.25"></ellipse>
                    <ellipse id="Oval-30" fill="#ACD7F7" cx="494.967641" cy="631.741585" rx="7.03235877" ry="7.05423048"></ellipse>
                    <ellipse id="Oval-31" fill="#ACD7F7" cx="78.2141197" cy="334.585392" rx="7.03235877" ry="7.05423048"></ellipse>
                    <ellipse id="Oval-path-27" stroke="#979797" stroke-width="0.5" stroke-linecap="square" fill="#D9F3BE" cx="129" cy="167.890113" rx="6" ry="6"></ellipse>
                    <circle id="Oval-11" fill="#D9F3BE" cx="384.5" cy="547.5" r="4.5"></circle>
                    <ellipse id="Oval-12" fill="#ACD7F7" cx="382.5" cy="669.723248" rx="3" ry="3"></ellipse>
                    <ellipse id="Oval-13" fill="#FEB6A8" cx="497" cy="517.604319" rx="6" ry="6"></ellipse>
                    <ellipse id="Oval-13" fill="#FEB6A8" cx="444.358527" cy="732" rx="6" ry="6"></ellipse>
                    <ellipse id="Oval-path-14" stroke="#979797" stroke-width="0.5" stroke-linecap="square" fill="#D8D8D8" cx="471.110985" cy="693.713501" rx="4" ry="4.25"></ellipse>
                    <ellipse id="Oval-path-15" fill="#D9F3BE" cx="93.2464785" cy="547" rx="6" ry="6"></ellipse>
                    <ellipse id="Oval-path-17" stroke="#979797" stroke-width="0.5" stroke-linecap="square" fill="#D8D8D8" cx="469.110985" cy="546.463501" rx="6" ry="6"></ellipse>
                    <ellipse id="Oval-15" fill="#ACD7F7" cx="205.317114" cy="813.723248" rx="6" ry="6"></ellipse>
                    <path d="M91.2464785,612.225086 C87.9329785,612.225086 85.2464785,609.538586 85.2464785,606.225086 C85.2464785,602.911586 87.9329785,600.225086 91.2464785,600.225086 C94.5599785,600.225086 97.2464785,602.911586 97.2464785,606.225086 C97.2464785,609.538586 94.5599785,612.225086 91.2464785,612.225086 Z" id="Stroke-171-4" fill="#D9F3BE"></path>
                    <path d="M7.71621738,550.463501 C6.05946738,550.463501 4.71621738,549.120251 4.71621738,547.463501 C4.71621738,545.806751 6.05946738,544.463501 7.71621738,544.463501 C9.37296738,544.463501 10.7162174,545.806751 10.7162174,547.463501 C10.7162174,549.120251 9.37296738,550.463501 7.71621738,550.463501 Z" id="Stroke-171-5" stroke="#9B9B9B" stroke-width="0.5" fill="#D3D7D9"></path>
                    <path d="M475.110985,627.687355 C473.454235,627.687355 472.110985,626.344105 472.110985,624.687355 C472.110985,623.030605 473.454235,621.687355 475.110985,621.687355 C476.767735,621.687355 478.110985,623.030605 478.110985,624.687355 C478.110985,626.344105 476.767735,627.687355 475.110985,627.687355 Z" id="Stroke-171-6" stroke="#9B9B9B" stroke-width="0.5" fill="#D3D7D9"></path>
                    <ellipse id="Oval-16" fill="#ACD7F7" cx="329" cy="615.225086" rx="3" ry="3"></ellipse>
                    <ellipse id="Oval-17" fill="#FDE699" cx="453.734756" cy="498.40539" rx="9.37622882" ry="9.40539033"></ellipse>
                    <ellipse id="Oval-path-19" stroke="#979797" stroke-width="0.5" stroke-linecap="square" fill="#D9F3BE" cx="431.132444" cy="442.03995" rx="6" ry="6"></ellipse>
                    <ellipse id="Oval-path-20" stroke="#979797" stroke-width="0.5" stroke-linecap="square" fill="#FEB6A8" cx="393.837207" cy="507.810781" rx="7.03179651" ry="7.05423048"></ellipse>
                    <ellipse id="Oval-path-28" stroke="#979797" stroke-width="0.5" stroke-linecap="square" fill="#FEB6A8" cx="344.621299" cy="583.963501" rx="7.03179651" ry="7.05423048"></ellipse>
                    <ellipse id="Oval-path-21" fill="#D9F3BE" cx="420.945989" cy="504.40539" rx="6" ry="6"></ellipse>
                    <ellipse id="Oval-18" fill="#ACD7F7" cx="426.945989" cy="530.71278" rx="3" ry="3"></ellipse>
                    <ellipse id="Oval-path-12" fill="#D9F3BE" cx="484.095113" cy="474.06886" rx="6" ry="6"></ellipse>
                    <ellipse id="Oval-path-22" stroke="#979797" stroke-width="0.5" stroke-linecap="square" fill="#D8D8D8" cx="443.132444" cy="403.227832" rx="6" ry="6"></ellipse>
                    <path d="M403.869004,551.463501 C402.212254,551.463501 400.869004,550.120251 400.869004,548.463501 C400.869004,546.806751 402.212254,545.463501 403.869004,545.463501 C405.525754,545.463501 406.869004,546.806751 406.869004,548.463501 C406.869004,550.120251 405.525754,551.463501 403.869004,551.463501 Z" id="Stroke-171-3" fill="#FDE699"></path>
                    <path d="M447.358527,587.71278 C445.701777,587.71278 444.358527,586.36953 444.358527,584.71278 C444.358527,583.05603 445.701777,581.71278 447.358527,581.71278 C449.015277,581.71278 450.358527,583.05603 450.358527,584.71278 C450.358527,586.36953 449.015277,587.71278 447.358527,587.71278 Z" id="Stroke-171-3" fill="#FDE699"></path>
                    <ellipse id="Oval-19" fill="#ACD7F7" cx="367.21412" cy="527.71278" rx="7.03235877" ry="7.05423048"></ellipse>
                    <ellipse id="Oval-33" fill="#FDE699" cx="163.317114" cy="354.253732" rx="6" ry="6.25"></ellipse>
                    <ellipse id="Oval-path-13" stroke="#979797" stroke-width="0.5" stroke-linecap="square" fill="#ACD7F7" cx="444.627618" cy="669.918235" rx="14.3723821" ry="14.4182352"></ellipse>
                    <ellipse id="Oval-34" fill="#FDE699" cx="327.5" cy="684.08647" rx="6" ry="6.25"></ellipse>
                    <ellipse id="Oval-36" fill="#ACD7F7" cx="321.836483" cy="750.424223" rx="7.03235877" ry="7.05423048"></ellipse>
                    <ellipse id="Oval-37" fill="#FEB6A8" cx="363.105557" cy="731.033541" rx="6" ry="6"></ellipse>
                    <ellipse id="Oval-38" fill="#FDE699" cx="271.296673" cy="750.728454" rx="6" ry="6.25"></ellipse>
                    <circle id="Oval-39" fill="#ACD7F7" cx="287.746479" cy="687.83647" r="3"></circle>
                    <ellipse id="Oval-40" fill="#D9F3BE" cx="283.246479" cy="717.92471" rx="3" ry="3"></ellipse>
                    <path d="M302.163946,768.503732 C297.05512,768.503732 292.913946,772.757219 292.913946,778.003732 C292.913946,783.250245 297.05512,787.503732 302.163946,787.503732 C307.272771,787.503732 311.413946,783.250245 311.413946,778.003732 C311.413946,772.757219 307.272771,768.503732 302.163946,768.503732" id="Shape-5" fill="#D9F3BE"></path>
                    <circle id="Oval-41" fill="#FEB6A8" cx="312.522944" cy="699.963501" r="6"></circle>
                    <path d="M475.110985,627.687355 C473.454235,627.687355 472.110985,626.344105 472.110985,624.687355 C472.110985,623.030605 473.454235,621.687355 475.110985,621.687355 C476.767735,621.687355 478.110985,623.030605 478.110985,624.687355 C478.110985,626.344105 476.767735,627.687355 475.110985,627.687355 Z" id="Stroke-171-7" stroke="#9B9B9B" stroke-width="0.5" fill="#D3D7D9"></path>
                    <path d="M272.296673,819.723248 C270.639923,819.723248 269.296673,818.379998 269.296673,816.723248 C269.296673,815.066498 270.639923,813.723248 272.296673,813.723248 C273.953423,813.723248 275.296673,815.066498 275.296673,816.723248 C275.296673,818.379998 273.953423,819.723248 272.296673,819.723248 Z" id="Stroke-171-8" stroke="#9B9B9B" stroke-width="0.5" fill="#D3D7D9"></path>
                    <path d="M345,781.003732 C343.34325,781.003732 342,779.660482 342,778.003732 C342,776.346982 343.34325,775.003732 345,775.003732 C346.65675,775.003732 348,776.346982 348,778.003732 C348,779.660482 346.65675,781.003732 345,781.003732 Z" id="Stroke-171-9" stroke="#9B9B9B" stroke-width="0.5" fill="#D3D7D9"></path>
                    <path d="M302.996479,644.795816 C301.339729,644.795816 299.996479,643.452566 299.996479,641.795816 C299.996479,640.139066 301.339729,638.795816 302.996479,638.795816 C304.653229,638.795816 305.996479,640.139066 305.996479,641.795816 C305.996479,643.452566 304.653229,644.795816 302.996479,644.795816 Z" id="Stroke-171-10" stroke="#9B9B9B" stroke-width="0.5" fill="#D3D7D9"></path>
                    <circle id="Oval-42" fill="#D9F3BE" cx="272.296673" cy="654.5" r="3"></circle>
                    <ellipse id="Oval-43" fill="#ACD7F7" cx="384.5" cy="780.449501" rx="7.03235877" ry="7.05423048"></ellipse>
                    <ellipse id="Oval-44" fill="#FEB6A8" cx="331.296673" cy="807.723248" rx="6" ry="6"></ellipse>
                    <ellipse id="Oval-path-16" fill="#D9F3BE" cx="302.163946" cy="813.723248" rx="6" ry="6"></ellipse>
                    <ellipse id="Oval-45" fill="#FDE699" cx="363.105557" cy="754.253732" rx="6" ry="6.25"></ellipse>
                    <ellipse id="Oval-path-29" stroke="#979797" stroke-width="0.5" stroke-linecap="square" fill="#D8D8D8" cx="356.181761" cy="695.213501" rx="4" ry="4.25"></ellipse>
                    <path d="M385.246479,741 C383.589729,741 382.246479,739.65675 382.246479,738 C382.246479,736.34325 383.589729,735 385.246479,735 C386.903229,735 388.246479,736.34325 388.246479,738 C388.246479,739.65675 386.903229,741 385.246479,741 Z" id="Stroke-171-11" stroke="#9B9B9B" stroke-width="0.5" fill="#D3D7D9"></path>
                    <ellipse id="Oval-46" fill="#ACD7F7" cx="380" cy="719.92471" rx="3" ry="3"></ellipse>
                    <ellipse id="Oval-47" fill="#FDE699" cx="415.5" cy="754.253732" rx="6" ry="6.25"></ellipse>
                </g>
            </g>
        </g>
    </g>
</svg>