<?xml version="1.0" encoding="UTF-8" standalone="no"?>
<svg width="100px" height="100px" viewBox="0 0 100 100" version="1.1" xmlns="http://www.w3.org/2000/svg" xmlns:xlink="http://www.w3.org/1999/xlink" xmlns:sketch="http://www.bohemiancoding.com/sketch/ns">
    <!-- Generator: Sketch 3.2 (9961) - http://www.bohemiancoding.com/sketch -->
    <title>console</title>
    <desc>Created with Sketch.</desc>
    <defs></defs>
    <g id="Page-1" stroke="none" stroke-width="1" fill="none" fill-rule="evenodd" sketch:type="MSPage">
        <g id="console" sketch:type="MSLayerGroup">
            <path d="M50,0 C77.614,0 100,22.386 100,50 C100,77.614 77.614,100 50,100 C22.386,100 0,77.614 0,50 C0,22.386 22.386,0 50,0 L50,0 Z" id="Shape" fill="#D3D7D9" sketch:type="MSShapeGroup"></path>
            <path d="M26,28 C24.343,28 23,29.344 23,31 L23,92.073 C30.789,97.082 40.051,100 50,100 C77.614,100 100,77.614 100,50 C100,42.104 98.163,34.64 94.904,28 L26,28 L26,28 Z" id="Shape" fill="#ECF0F2" sketch:type="MSShapeGroup"></path>
            <path d="M27,42 L27,94.392 C33.887,97.968 41.704,100 50,100 C77.614,100 100,77.614 100,50 C100,46.574 99.654,43.23 98.998,39.999 L29,39.999 C27.896,39.999 27,40.896 27,42 L27,42 Z" id="Shape" fill="#2B414D" sketch:type="MSShapeGroup"></path>
            <path d="M64,47 L35,47 C34.447,47 34,47.447 34,48 L34,49 C34,49.553 34.447,50 35,50 L64,50 C64.553,50 65,49.553 65,49 L65,48 C65,47.447 64.553,47 64,47 L64,47 Z M58,89 L35,89 C34.447,89 34,89.448 34,90.001 L34,91 C34,91.553 34.447,92 35,92 L58,92 C58.553,92 59,91.553 59,91 L59,90.001 C59,89.448 58.553,89 58,89 L58,89 Z" id="Shape" fill="#E4E7E7" sketch:type="MSShapeGroup"></path>
            <path d="M47,54 L35,54 C34.447,54 34,54.447 34,55 L34,56 C34,56.552 34.447,57 35,57 L47,57 C47.553,57 48,56.552 48,56 L48,55 C48,54.447 47.553,54 47,54 L47,54 Z M44,67.999 L35,67.999 C34.447,67.999 34,68.447 34,68.999 L34,70 C34,70.552 34.447,71 35,71 L44,71 C44.553,71 45,70.552 45,70 L45,68.999 C45,68.447 44.553,67.999 44,67.999 L44,67.999 Z M80,67.999 L68,67.999 C67.447,67.999 67,68.447 67,68.999 L67,70 C67,70.552 67.447,71 68,71 L80,71 C80.553,71 81,70.552 81,70 L81,68.999 C81,68.447 80.553,67.999 80,67.999 L80,67.999 Z M44,82 L35,82 C34.447,82 34,82.447 34,82.999 L34,83.999 C34,84.553 34.447,85 35,85 L44,85 C44.553,85 45,84.553 45,83.999 L45,82.999 C45,82.447 44.553,82 44,82 L44,82 Z" id="Shape" fill="#E35E53" sketch:type="MSShapeGroup"></path>
            <path d="M84,54 L53,54 C52.447,54 52,54.447 52,55 L52,56 C52,56.552 52.447,57 53,57 L84,57 C84.553,57 85,56.552 85,56 L85,55 C85,54.447 84.553,54 84,54 L84,54 Z M69,74.999 L35,74.999 C34.447,74.999 34,75.448 34,76 L34,77 C34,77.553 34.447,78 35,78 L69,78 C69.553,78 70,77.553 70,77 L70,76 C70,75.448 69.553,74.999 69,74.999 L69,74.999 Z" id="Shape" fill="#26A6D1" sketch:type="MSShapeGroup"></path>
            <path d="M74,60.999 L35,60.999 C34.447,60.999 34,61.448 34,62 L34,63 C34,63.553 34.447,63.999 35,63.999 L74,63.999 C74.553,63.999 75,63.553 75,63 L75,62 C75,61.448 74.553,60.999 74,60.999 L74,60.999 Z M50,71 L62,71 C62.553,71 63,70.552 63,70 L63,68.999 C63,68.447 62.553,67.999 62,67.999 L50,67.999 C49.447,67.999 49,68.447 49,68.999 L49,70 C49,70.552 49.447,71 50,71 L50,71 Z M64,82 L50,82 C49.447,82 49,82.447 49,82.999 L49,83.999 C49,84.553 49.447,85 50,85 L64,85 C64.553,85 65,84.553 65,83.999 L65,82.999 C65,82.447 64.553,82 64,82 L64,82 Z" id="Shape" fill="#49B8A4" sketch:type="MSShapeGroup"></path>
            <path d="M29,32 C27.896,32 27,32.896 27,34 C27,35.104 27.896,36 29,36 C30.104,36 31,35.104 31,34 C31,32.896 30.104,32 29,32 L29,32 Z M35,32 C33.896,32 33,32.896 33,34 C33,35.104 33.896,36 35,36 C36.104,36 37,35.104 37,34 C37,32.896 36.104,32 35,32 L35,32 Z M41,32 C39.896,32 39,32.896 39,34 C39,35.104 39.896,36 41,36 C42.104,36 43,35.104 43,34 C43,32.896 42.104,32 41,32 L41,32 Z" id="Shape" fill="#737373" sketch:type="MSShapeGroup"></path>
        </g>
    </g>
</svg>