<?xml version="1.0" encoding="UTF-8" standalone="no"?>
<svg width="38px" height="31px" viewBox="0 0 38 31" version="1.1" xmlns="http://www.w3.org/2000/svg" xmlns:xlink="http://www.w3.org/1999/xlink" xmlns:sketch="http://www.bohemiancoding.com/sketch/ns">
    <!-- Generator: Sketch 3.2 (9961) - http://www.bohemiancoding.com/sketch -->
    <title>Eye (unhide)</title>
    <desc>Created with Sketch.</desc>
    <defs></defs>
    <g id="Icons" stroke="none" stroke-width="1" fill="none" fill-rule="evenodd" sketch:type="MSPage">
        <g id="Design-&amp;-Development" sketch:type="MSArtboardGroup" transform="translate(-81.000000, -565.000000)">
            <g id="Eye-(unhide)" sketch:type="MSLayerGroup" transform="translate(66.000000, 566.000000)">
                <g transform="translate(15.000000, 0.000000)" sketch:type="MSShapeGroup">
                    <path d="M2.252,6.72801221 C1.904,6.30001221 1.274,6.23401221 0.845,6.58201221 C0.416,6.92901221 0.351,7.55901221 0.699,7.98901221 L3.277,11.1650122 C3.475,11.4080122 3.763,11.5340122 4.054,11.5340122 C4.275,11.5340122 4.498,11.4610122 4.684,11.3110122 C5.112,10.9630122 5.178,10.3330122 4.83,9.90401221 L2.252,6.72801221" id="Fill-98" fill="#9AA6B0"></path>
                    <path d="M10.605,2.23101221 C10.419,1.71101221 9.846,1.44001221 9.327,1.62501221 C8.807,1.81101221 8.536,2.38301221 8.721,2.90301221 L10.102,6.77501221 C10.248,7.18401221 10.632,7.43901221 11.044,7.43901221 C11.155,7.43901221 11.269,7.42001221 11.379,7.38101221 C11.899,7.19501221 12.171,6.62301221 11.985,6.10301221 L10.605,2.23101221" id="Fill-99" fill="#9AA6B0"></path>
                    <path d="M18.983,-0.077987793 L18.983,-0.077987793 C18.431,-0.077987793 17.983,0.369012207 17.983,0.921012207 L17.98,5.03901221 C17.979,5.59201221 18.427,6.03901221 18.979,6.04001221 L18.98,6.04001221 C19.532,6.04001221 19.979,5.59301221 19.98,5.04001221 L19.983,0.922012207 C19.983,0.370012207 19.536,-0.077987793 18.983,-0.077987793" id="Fill-100" fill="#9AA6B0"></path>
                    <path d="M28.636,1.63401221 C28.117,1.45001221 27.544,1.72001221 27.358,2.24001221 L25.975,6.11001221 C25.79,6.63001221 26.06,7.20201221 26.581,7.38801221 C26.692,7.42801221 26.805,7.44701221 26.917,7.44701221 C27.328,7.44701221 27.712,7.19201221 27.859,6.78301221 L29.242,2.91201221 C29.427,2.39201221 29.156,1.82001221 28.636,1.63401221" id="Fill-101" fill="#9AA6B0"></path>
                    <path d="M37.115,6.59901221 C36.687,6.25001221 36.057,6.31501221 35.708,6.74401221 L33.127,9.91601221 C32.778,10.3440122 32.843,10.9740122 33.271,11.3230122 C33.456,11.4740122 33.68,11.5470122 33.902,11.5470122 C34.192,11.5470122 34.48,11.4210122 34.678,11.1790122 L37.259,8.00601221 C37.608,7.57701221 37.543,6.94801221 37.115,6.59901221" id="Fill-102" fill="#9AA6B0"></path>
                    <path d="M18.927,9.95101221 C28.368,9.95101221 33.74,16.2220122 35.568,18.8320122 C36.041,19.5090122 36.043,20.3950122 35.571,21.0720122 C33.752,23.6840122 28.402,29.9510122 18.927,29.9510122 C9.533,29.9510122 4.14,23.6930122 2.297,21.0780122 C1.818,20.3980122 1.818,19.5040122 2.297,18.8240122 C4.14,16.2090122 9.533,9.95101221 18.927,9.95101221" id="Fill-103" fill="#E5E5E5"></path>
                    <path d="M18.956,14.9510122 C21.718,14.9510122 23.956,17.1900122 23.956,19.9510122 C23.956,22.7120122 21.718,24.9510122 18.956,24.9510122 C16.195,24.9510122 13.956,22.7120122 13.956,19.9510122 C13.956,17.1900122 16.195,14.9510122 18.956,14.9510122" id="Fill-104" fill="#58A0DF"></path>
                </g>
            </g>
        </g>
    </g>
</svg>