<?xml version="1.0" encoding="UTF-8" standalone="no"?>
<svg width="34px" height="32px" viewBox="0 0 34 32" version="1.1" xmlns="http://www.w3.org/2000/svg" xmlns:xlink="http://www.w3.org/1999/xlink" xmlns:sketch="http://www.bohemiancoding.com/sketch/ns">
    <!-- Generator: Sketch 3.2 (9961) - http://www.bohemiancoding.com/sketch -->
    <title>Fill 3</title>
    <desc>Created with Sketch.</desc>
    <defs></defs>
    <g id="Page-1" stroke="none" stroke-width="1" fill="none" fill-rule="evenodd" sketch:type="MSPage">
        <path d="M16.9985,0.225133191 C8.0045,0.225133191 0.7105,7.51813319 0.7105,16.5151332 C0.7105,23.7121332 5.3775,29.8171332 11.8505,31.9711332 C12.6655,32.1211332 12.9625,31.6181332 12.9625,31.1861332 C12.9625,30.8001332 12.9485,29.7751332 12.9405,28.4161332 C8.4095,29.4001332 7.4535,26.2321332 7.4535,26.2321332 C6.7125,24.3501332 5.6445,23.8491332 5.6445,23.8491332 C4.1655,22.8391332 5.7565,22.8591332 5.7565,22.8591332 C7.3915,22.9741332 8.2515,24.5381332 8.2515,24.5381332 C9.7045,27.0271332 12.0645,26.3081332 12.9925,25.8911332 C13.1405,24.8391332 13.5615,24.1211332 14.0265,23.7141332 C10.4095,23.3031332 6.6065,21.9051332 6.6065,15.6631332 C6.6065,13.8851332 7.2415,12.4301332 8.2835,11.2921332 C8.1155,10.8801332 7.5565,9.22313319 8.4435,6.98113319 C8.4435,6.98113319 9.8105,6.54313319 12.9225,8.65113319 C14.2215,8.28913319 15.6155,8.10913319 17.0005,8.10213319 C18.3845,8.10913319 19.7775,8.28913319 21.0785,8.65113319 C24.1885,6.54313319 25.5535,6.98113319 25.5535,6.98113319 C26.4425,9.22313319 25.8835,10.8801332 25.7165,11.2921332 C26.7605,12.4301332 27.3905,13.8851332 27.3905,15.6631332 C27.3905,21.9211332 23.5815,23.2981332 19.9535,23.7011332 C20.5375,24.2041332 21.0585,25.1981332 21.0585,26.7181332 C21.0585,28.8951332 21.0385,30.6521332 21.0385,31.1861332 C21.0385,31.6221332 21.3325,32.1291332 22.1585,31.9701332 C28.6265,29.8111332 33.2895,23.7101332 33.2895,16.5151332 C33.2895,7.51813319 25.9955,0.225133191 16.9985,0.225133191" id="Fill-3" fill="#D3D7D9" sketch:type="MSShapeGroup"></path>
    </g>
</svg>