<svg xmlns="http://www.w3.org/2000/svg" width="100" height="100" viewBox="0 0 100 100"><circle fill="#EFC75E" cx="50" cy="50" r="50"/><path fill="#3B5665" d="M6.705 74.999c8.646 14.941 24.791 25.001 43.295 25.001s34.648-10.06 43.295-25.001h-86.59z"/><path fill="#CCD0D2" d="M42 69.999h17v8h-17v-8z"/><path fill="#E4E7E7" d="M40 77.999h21c1.104 0 2 .896 2 2s-.896 2-2 2h-21c-1.104 0-2-.896-2-2s.896-2 2-2z"/><path fill="#36434F" d="M19 22.999h62c1.656 0 3 1.344 3 3v41c0 1.657-1.344 3-3 3h-62c-1.657 0-3-1.343-3-3v-41c0-1.656 1.343-3 3-3z"/><path fill="#596875" d="M19 25.999h62v34h-62v-34z"/><path fill="#E4E7E7" d="M43 35.001h14c.553 0 1 .446 1 1v14.998c0 .554-.447 1.002-1 1.002h-14c-.552 0-1-.448-1-1.002v-14.998c0-.554.448-1 1-1z"/><path fill="#fff" d="M46 47h8v2h-8v-2z"/><path fill="#C2C5C5" d="M50 38c1.656 0 3 1.344 3 3 0 1.657-1.344 3-3 3s-3-1.343-3-3c0-1.656 1.344-3 3-3z"/><path fill="#E4E7E7" d="M16 62.999v4c0 1.657 1.343 3 3 3h62c1.656 0 3-1.343 3-3v-4h-68z"/><path fill="#B7BBBD" d="M42 69.999h17v3h-17z"/></svg>