<?xml version="1.0" encoding="UTF-8" standalone="no"?>
<svg width="100px" height="100px" viewBox="0 0 100 100" version="1.1" xmlns="http://www.w3.org/2000/svg" xmlns:xlink="http://www.w3.org/1999/xlink" xmlns:sketch="http://www.bohemiancoding.com/sketch/ns">
    <!-- Generator: Sketch 3.2 (9961) - http://www.bohemiancoding.com/sketch -->
    <title>laptop</title>
    <desc>Created with Sketch.</desc>
    <defs></defs>
    <g id="Page-1" stroke="none" stroke-width="1" fill="none" fill-rule="evenodd" sketch:type="MSPage">
        <g id="laptop" sketch:type="MSLayerGroup">
            <path d="M50,0 C77.614,0 100,22.385 100,50 C100,77.613 77.614,100 50,100 C22.386,100 0,77.613 0,50 C0,22.385 22.386,0 50,0 L50,0 Z" id="Shape" fill="#D3D7D9" sketch:type="MSShapeGroup"></path>
            <path d="M4.624,70.998 L24,70.998 L24,27.998 L0.049,51.949 C0.31,58.734 1.921,65.168 4.624,70.998 L4.624,70.998 Z" id="Shape" fill="#C2C7CA" sketch:type="MSShapeGroup"></path>
            <path d="M7.927,77 C16.821,90.83 32.335,100 50,100 C67.665,100 83.179,90.83 92.073,77 L7.927,77 L7.927,77 Z" id="Shape" fill="#923604" sketch:type="MSShapeGroup"></path>
            <path d="M92.073,77 L7.927,77 C8.585,78.023 9.27,79.029 10,80 L90.001,80 C90.729,79.029 91.415,78.023 92.073,77 L92.073,77 Z" id="Shape" fill="#7B2B00" sketch:type="MSShapeGroup"></path>
            <path d="M60.821,92.377 C62.311,91.504 62.993,91.106 62.507,89.129 C61.601,85.44 62.834,80.326 63.893,76.996 L61.854,76.996 C60.776,80.601 59.555,86.221 61.066,88.228 C61.346,88.597 61.27,89.126 60.894,89.404 C60.518,89.682 59.987,89.605 59.706,89.234 C57.724,86.601 59.037,80.58 60.081,76.996 L59.206,76.996 C58.46,79.461 57.385,83.748 56.91,89.203 C56.339,95.746 55.645,98.748 52.528,99.992 C53.84,99.926 55.134,99.795 56.418,99.629 C56.671,94.818 59.059,93.406 60.821,92.377 L60.821,92.377 Z M67.152,76.996 L65.681,76.996 C64.653,80.121 63.302,85.264 64.155,88.73 C64.939,91.918 63.211,92.931 61.683,93.824 C60.068,94.767 58.403,95.744 58.125,99.385 C58.927,99.252 59.722,99.102 60.51,98.934 C60.708,97.979 61.087,97.108 61.696,96.379 C63.373,94.379 65.682,93.941 68.033,95.18 C68.504,95.428 68.968,95.748 69.418,96.121 C70.074,95.842 70.72,95.545 71.361,95.238 C70.709,94.394 69.985,93.547 69.19,92.697 C64.139,87.299 65.454,80.98 67.152,76.996 L67.152,76.996 Z M63.002,97.453 C62.745,97.76 62.553,98.113 62.401,98.494 C64.161,98.043 65.879,97.49 67.557,96.857 L67.237,96.666 C65.592,95.799 64.167,96.064 63.002,97.453 L63.002,97.453 Z M87.739,82.715 C88.363,81.99 88.968,81.25 89.55,80.492 C89.695,79.377 89.885,78.224 90.172,76.996 L88.282,76.996 C88.313,78.467 88.229,80.535 87.739,82.715 L87.739,82.715 Z M55.221,89.059 C55.682,83.756 56.674,79.588 57.433,76.997 L55.197,76.997 C54.808,80.159 53.39,85.821 48.228,88.669 C44.471,90.741 43.161,94.181 43.811,96.511 C44.283,98.202 45.733,99.134 47.79,99.072 C53.687,98.889 54.451,97.859 55.221,89.059 L55.221,89.059 Z M85.467,76.996 C85.557,77.672 85.615,78.406 85.615,79.182 C85.615,82.705 84.416,87.018 79.47,89.86 C76.39,91.628 74.161,90.94 72.836,90.049 C70.323,88.363 68.912,84.35 69.478,80.502 C69.676,79.158 70.106,77.982 70.713,76.996 L68.963,76.996 C67.298,80.486 65.669,86.463 70.434,91.555 C71.349,92.534 72.153,93.504 72.889,94.469 C77.323,92.166 81.368,89.221 84.903,85.748 C86.403,82.678 86.616,79.131 86.574,76.996 L85.467,76.996 L85.467,76.996 Z M37.837,76.996 L34.899,76.996 C33.714,77.51 32.121,77.92 29.971,77.99 C24.226,78.185 20.328,78.967 20.29,78.972 C19.831,79.066 19.383,78.773 19.288,78.318 C19.197,77.859 19.489,77.42 19.949,77.326 C20.015,77.314 20.725,77.172 21.939,76.996 L17.791,76.996 C17.295,80.144 15.718,82.516 13.323,83.92 C13.569,84.188 13.823,84.449 14.075,84.713 L14.216,84.617 C17.893,82.127 22.058,79.305 27.975,79.305 C32.898,79.305 35.954,78.215 37.837,76.996 L37.837,76.996 Z M91.915,76.996 L91.872,77.197 L92,76.996 L91.915,76.996 L91.915,76.996 Z M42.176,96.957 C41.349,93.992 42.881,89.691 47.404,87.197 C51.756,84.797 53.08,79.873 53.478,76.996 L52.41,76.996 C51.632,82.121 48.486,84.539 45.669,86.701 C42.117,89.428 39.047,91.773 39.819,98.824 L39.85,99.017 C41.227,99.302 42.627,99.519 44.042,99.689 C43.152,99.039 42.5,98.119 42.176,96.957 L42.176,96.957 Z M44.629,85.373 C47.363,83.273 49.963,81.269 50.691,76.996 L48.494,76.996 C47.657,79.93 44.973,84.535 36.475,87.139 C31.513,88.659 27.167,90.639 23.988,92.717 C24.37,92.951 24.76,93.172 25.149,93.397 C26.59,92.926 28.162,92.803 29.58,93.295 C30.771,93.707 32.23,94.697 32.891,97.033 C34.585,97.654 36.327,98.176 38.102,98.611 C37.398,90.947 41.067,88.105 44.629,85.373 L44.629,85.373 Z M16.073,76.996 L13.244,76.996 C13.414,77.584 13.308,78.225 12.913,78.824 C12.462,79.508 11.613,80.142 10.5,80.558 C11.045,81.267 11.608,81.958 12.189,82.634 C14.878,81.182 15.776,78.584 16.073,76.996 L16.073,76.996 Z M29.02,94.881 C28.544,94.717 28.026,94.654 27.494,94.668 C28.533,95.195 29.586,95.699 30.664,96.154 C30.254,95.547 29.706,95.119 29.02,94.881 L29.02,94.881 Z M11.494,77.904 C11.708,77.58 11.617,77.431 11.584,77.375 C11.512,77.256 11.357,77.123 11.103,76.996 L7.997,76.996 C8.461,77.721 8.941,78.434 9.441,79.131 C10.466,78.842 11.2,78.35 11.494,77.904 L11.494,77.904 Z M73.969,85.414 C74.167,85.648 74.771,86.361 76.535,85.57 C79.825,84.093 80.973,80.351 79.982,77.787 C79.869,77.494 79.729,77.234 79.574,76.996 L77.124,76.996 C78.495,77.867 78.918,79.019 79.034,79.723 C79.264,81.094 78.686,82.58 77.598,83.409 C77.227,83.69 76.694,83.624 76.409,83.255 C76.123,82.888 76.193,82.36 76.564,82.077 C77.162,81.622 77.486,80.765 77.36,79.995 C77.208,79.077 76.472,78.368 75.234,77.948 C74.931,77.846 74.604,78.042 74.263,78.536 C73.113,80.195 72.75,83.973 73.969,85.414 L73.969,85.414 Z M46.72,76.996 L44.711,76.996 C43.263,79.383 40.193,82.654 33.993,83.574 C29.586,84.226 23.945,86.642 19.693,89.75 C20.584,90.434 21.495,91.09 22.431,91.715 C26.245,89.102 31.398,86.936 35.974,85.533 C43.311,83.285 45.848,79.518 46.72,76.996 L46.72,76.996 Z M73.788,88.658 C75.132,89.558 76.757,89.474 78.619,88.404 C84.006,85.31 84.294,80.258 83.794,76.996 L81.484,76.996 L81.566,77.185 C82.829,80.453 81.53,85.175 77.233,87.101 C74.677,88.247 73.276,87.21 72.668,86.492 C70.931,84.435 71.331,79.797 72.865,77.584 C73.021,77.357 73.19,77.168 73.366,76.996 L72.827,76.996 C71.973,77.898 71.388,79.182 71.157,80.746 C70.689,83.93 71.818,87.336 73.788,88.658 L73.788,88.658 Z M42.67,76.996 L40.505,76.996 C38.635,78.871 34.975,80.986 27.975,80.986 C22.639,80.986 18.731,83.595 15.285,85.929 C16.271,86.89 17.291,87.816 18.353,88.691 C22.905,85.273 29.005,82.613 33.743,81.91 C38.553,81.195 41.225,78.932 42.67,76.996 L42.67,76.996 Z" id="Shape" fill="#9B481A" sketch:type="MSShapeGroup"></path>
            <path d="M7.927,76.998 L92.073,76.998 C93.304,75.084 94.41,73.08 95.375,70.998 L4.625,70.998 C5.59,73.08 6.695,75.084 7.927,76.998 L7.927,76.998 Z" id="Shape" fill="#A34A1B" sketch:type="MSShapeGroup"></path>
            <path d="M85,67 L85,68 C85,69.656 83.657,71 82,71 L18,71 C16.343,71 15,69.656 15,68 L15,67 L85,67 L85,67 Z" id="Shape" fill="#F3F3F3" sketch:type="MSShapeGroup"></path>
            <path d="M45.5,66 L54.5,66 C55.328,66 56,66.672 56,67.5 C56,68.328 55.328,69 54.5,69 L45.5,69 C44.672,69 44,68.328 44,67.5 C44,66.672 44.672,66 45.5,66 L45.5,66 Z" id="Shape" fill="#D5D5D5" sketch:type="MSShapeGroup"></path>
            <path d="M24,28 L76,28 C77.104,28 78,28.895 78,30 L78,67 L22,67 L22,30 C22,28.895 22.896,28 24,28 L24,28 Z" id="Shape" fill="#36434F" sketch:type="MSShapeGroup"></path>
            <path d="M25,31 L75,31 L75,64 L25,64 L25,31 L25,31 Z" id="Shape" fill="#465765" sketch:type="MSShapeGroup"></path>
            <path d="M38,60 L62,60 C63.657,60 65,61.342 65,63 L65,64 L34.89,63.99 L35,63 C35,61.342 36.343,60 38,60 L38,60 Z" id="Shape" fill="#7E8A94" sketch:type="MSShapeGroup"></path>
            <path d="M41,58 C42.104,58 43,58.895 43,60 C43,61.104 42.104,62 41,62 C39.896,62 39,61.104 39,60 C39,58.895 39.896,58 41,58 L41,58 Z" id="Shape" fill="#E4E7E7" sketch:type="MSShapeGroup"></path>
            <path d="M47,58 C48.104,58 49,58.895 49,60 C49,61.104 48.104,62 47,62 C45.896,62 45,61.104 45,60 C45,58.895 45.896,58 47,58 L47,58 Z" id="Shape" fill="#00A9E0" sketch:type="MSShapeGroup"></path>
            <path d="M53,58 C54.104,58 55,58.895 55,60 C55,61.104 54.104,62 53,62 C51.896,62 51,61.104 51,60 C51,58.895 51.896,58 53,58 L53,58 Z M59,58 C60.104,58 61,58.895 61,60 C61,61.104 60.104,62 59,62 C57.896,62 57,61.104 57,60 C57,58.895 57.896,58 59,58 L59,58 Z" id="Shape" fill="#E4E7E7" sketch:type="MSShapeGroup"></path>
            <path d="M67.83,80 L69.577,80 C69.801,78.867 70.183,77.857 70.712,77 L68.963,77 C68.55,77.863 68.141,78.881 67.83,80 L67.83,80 Z M75.234,77.947 C74.931,77.845 74.604,78.041 74.263,78.535 C73.993,78.924 73.772,79.435 73.599,80 L77.36,80 L77.36,79.994 C77.208,79.076 76.473,78.367 75.234,77.947 L75.234,77.947 Z M71.316,80 L71.845,80 C72.074,79.072 72.42,78.225 72.865,77.584 C73.02,77.359 73.188,77.17 73.363,77 L72.825,77 C72.114,77.752 71.604,78.777 71.316,80 L71.316,80 Z M81.566,77.186 C81.899,78.047 82.048,79.012 82.017,80 L83.933,80 C84.002,78.918 83.93,77.891 83.793,77 L81.484,77 L81.566,77.186 L81.566,77.186 Z M79.034,79.723 L79.06,80 L80.31,80 C80.346,79.223 80.244,78.463 79.982,77.787 C79.869,77.496 79.73,77.236 79.576,77 L77.128,77 C78.496,77.871 78.918,79.02 79.034,79.723 L79.034,79.723 Z M9.441,79.131 C10.465,78.842 11.2,78.35 11.494,77.904 C11.708,77.58 11.617,77.431 11.584,77.375 C11.512,77.258 11.358,77.125 11.107,77 L7.999,77 C8.462,77.723 8.942,78.434 9.441,79.131 L9.441,79.131 Z M42.667,77 L40.502,77 C39.436,78.068 37.784,79.211 35.269,80 L39.307,80 C40.835,79.084 41.92,78 42.667,77 L42.667,77 Z M16.073,77 L13.245,77 C13.413,77.586 13.308,78.227 12.913,78.824 C12.631,79.25 12.179,79.652 11.62,80 L14.94,80 C15.59,78.928 15.917,77.828 16.073,77 L16.073,77 Z M37.832,77 L34.891,77 C33.706,77.512 32.117,77.92 29.971,77.99 C24.226,78.185 20.328,78.967 20.29,78.972 C19.831,79.066 19.383,78.773 19.288,78.318 C19.197,77.859 19.489,77.42 19.949,77.326 C20.015,77.314 20.719,77.174 21.92,77 L17.791,77 C17.617,78.1 17.305,79.098 16.878,80 L23.038,80 C24.547,79.568 26.179,79.305 27.975,79.305 C32.895,79.305 35.948,78.217 37.832,77 L37.832,77 Z M61.062,80 L63.052,80 C63.316,78.914 63.609,77.891 63.892,77 L61.853,77 C61.583,77.902 61.304,78.932 61.062,80 L61.062,80 Z M86.446,80 C86.565,78.863 86.591,77.824 86.574,77 L85.467,77 C85.557,77.674 85.615,78.406 85.615,79.182 C85.615,79.45 85.605,79.723 85.591,80 L86.446,80 L86.446,80 Z M90.171,77 L88.282,77 C88.3,77.834 88.269,78.871 88.16,80 L89.624,80 C89.76,79.037 89.926,78.049 90.171,77 L90.171,77 Z M42.183,80 L45.038,80 C45.892,78.926 46.411,77.885 46.719,77 L44.709,77 C44.145,77.93 43.329,78.992 42.183,80 L42.183,80 Z M91.914,77 L91.872,77.197 L91.998,77 L91.914,77 L91.914,77 Z M47.124,80 L49.717,80 C50.153,79.131 50.494,78.152 50.691,77 L48.494,77 C48.241,77.881 47.817,78.916 47.124,80 L47.124,80 Z M54.6,80 L56.651,80 C56.919,78.852 57.188,77.836 57.432,77 L55.197,77 C55.091,77.852 54.907,78.889 54.6,80 L54.6,80 Z M58.399,80 L59.314,80 C59.55,78.91 59.823,77.881 60.08,77 L59.205,77 C58.961,77.807 58.682,78.826 58.399,80 L58.399,80 Z M51.577,80 L52.814,80 C53.153,78.898 53.358,77.857 53.477,77 L52.409,77 C52.237,78.123 51.948,79.109 51.577,80 L51.577,80 Z M64.807,80 L66.139,80 C66.414,78.908 66.771,77.893 67.152,77 L65.681,77 C65.395,77.867 65.088,78.898 64.807,80 L64.807,80 Z" id="Shape" fill="#88411A" sketch:type="MSShapeGroup"></path>
            <path d="M37.215,71 L33.65,71 C32.235,71.781 30.56,72.504 28.551,73.115 C24.932,74.213 21.636,75.553 18.877,76.996 L31.343,76.996 C32.624,74.498 34.708,72.91 36.754,71.355 L37.215,71 L37.215,71 Z M47.41,75.031 C47.536,73.597 47.702,72.256 47.891,71 L44.447,71 C43.447,72.396 42.131,73.68 40.375,74.639 C39.148,75.309 38.186,76.123 37.461,76.996 L47.218,76.996 C47.283,76.383 47.348,75.74 47.41,75.031 L47.41,75.031 Z M54.741,75.1 C54.432,73.856 54.384,72.446 54.477,71 L52.585,71 C52.566,72.348 52.756,73.498 53.29,74.201 C53.571,74.572 53.494,75.097 53.116,75.375 C52.738,75.65 52.204,75.574 51.922,75.203 C51.153,74.191 50.881,72.68 50.891,71 L49.619,71 C49.418,72.299 49.24,73.688 49.109,75.174 C49.052,75.819 48.994,76.418 48.932,76.996 L54.702,76.996 C54.932,76.559 54.963,75.996 54.741,75.1 L54.741,75.1 Z M28.047,71.514 C28.583,71.352 29.087,71.178 29.573,71 L20.625,71 C16.85,72.379 12.945,74.531 10.034,76.996 L15.476,76.996 C19.179,74.697 23.852,72.787 28.047,71.514 L28.047,71.514 Z M4.83,71.479 L5.561,71 L4.612,71 L4.83,71.479 L4.83,71.479 Z M39.545,73.174 C40.63,72.58 41.526,71.834 42.27,71 L39.917,71 C39.218,71.6 38.499,72.146 37.799,72.68 C36.05,74.008 34.42,75.252 33.299,76.996 L35.385,76.996 C36.281,75.561 37.648,74.209 39.545,73.174 L39.545,73.174 Z M16.402,71 L8.602,71 C8.097,71.328 7.603,71.66 7.119,71.984 C6.607,72.328 6.101,72.658 5.595,72.984 C6.274,74.285 7.009,75.55 7.798,76.781 C10.104,74.578 13.176,72.566 16.402,71 L16.402,71 Z M81.706,71 L79.443,71 C78.886,72.496 78.096,73.965 76.968,75.248 C76.531,75.746 76.171,76.348 75.854,76.996 L82.716,76.996 C82.156,75.221 81.782,73.242 81.706,71 L81.706,71 Z M93.615,74.393 C94.097,73.541 94.546,72.666 94.977,71.782 C94.951,71.52 94.939,71.259 94.939,71.001 L92.835,71.001 C92.902,72.035 93.147,73.18 93.615,74.393 L93.615,74.393 Z M89.265,76.996 L92.052,76.996 L92.53,76.201 C91.619,74.336 91.193,72.576 91.11,71 L87.53,71 C87.633,72.895 88.266,74.98 89.265,76.996 L89.265,76.996 Z M60.129,76.996 C58.756,75.023 58.114,72.978 57.943,71 L56.188,71 C56.093,72.322 56.126,73.6 56.399,74.699 C56.631,75.638 56.64,76.383 56.503,76.996 L60.129,76.996 L60.129,76.996 Z M85.797,71 L83.395,71 C83.473,73.262 83.877,75.238 84.485,76.996 L87.337,76.996 C86.429,74.988 85.877,72.932 85.797,71 L85.797,71 Z M74.002,76.996 C74.438,75.91 74.987,74.939 75.677,74.154 C76.511,73.203 77.134,72.121 77.606,71 L76.634,71 C75.698,72.779 74.188,74.473 71.808,75.826 C68.708,77.59 66.467,76.902 65.133,76.015 C63.613,75.003 62.505,73.148 61.978,70.999 L59.627,70.999 C59.842,72.987 60.61,75.046 62.27,76.995 L74.002,76.995 L74.002,76.996 Z M64.963,72.471 C64.62,72.069 64.362,71.563 64.178,71 L63.744,71 C64.199,72.572 65.014,73.912 66.09,74.629 C67.443,75.527 69.077,75.443 70.951,74.377 C72.656,73.404 73.852,72.24 74.677,71 L72.393,71 C71.659,71.838 70.721,72.559 69.557,73.078 C66.985,74.221 65.575,73.188 64.963,72.471 L64.963,72.471 Z M68.854,71.551 C69.205,71.395 69.517,71.201 69.819,71 L66.034,71 C66.11,71.135 66.179,71.283 66.273,71.395 C66.472,71.629 67.078,72.34 68.854,71.551 L68.854,71.551 Z" id="Shape" fill="#AC5C32" sketch:type="MSShapeGroup"></path>
        </g>
    </g>
</svg>