<?xml version="1.0" encoding="UTF-8" standalone="no"?>
<svg width="39px" height="39px" viewBox="0 0 39 39" version="1.1" xmlns="http://www.w3.org/2000/svg" xmlns:xlink="http://www.w3.org/1999/xlink" xmlns:sketch="http://www.bohemiancoding.com/sketch/ns">
    <!-- Generator: Sketch 3.2 (9961) - http://www.bohemiancoding.com/sketch -->
    <title>Link</title>
    <desc>Created with Sketch.</desc>
    <defs></defs>
    <g id="Icons" stroke="none" stroke-width="1" fill="none" fill-rule="evenodd" sketch:type="MSPage">
        <g id="Design-&amp;-Development" sketch:type="MSArtboardGroup" transform="translate(-920.000000, -721.000000)">
            <g id="Link" sketch:type="MSLayerGroup" transform="translate(921.000000, 722.000000)">
                <g sketch:type="MSShapeGroup">
                    <path d="M8.97,37.9510122 C6.557,37.9510122 4.289,37.0120122 2.584,35.3060122 C-0.938,31.7850122 -0.938,26.0570122 2.584,22.5370122 L5.526,19.5960122 C7.231,17.8900122 9.499,16.9510122 11.912,16.9510122 C14.324,16.9510122 16.592,17.8900122 18.297,19.5960122 C21.819,23.1170122 21.819,28.8440122 18.297,32.3650122 L15.356,35.3060122 C13.651,37.0120122 11.382,37.9510122 8.97,37.9510122 L8.97,37.9510122 Z M11.912,20.9510122 C10.568,20.9510122 9.305,21.4740122 8.355,22.4240122 L5.412,25.3650122 C3.451,27.3260122 3.451,30.5170122 5.412,32.4780122 C6.363,33.4270122 7.626,33.9510122 8.97,33.9510122 C10.314,33.9510122 11.577,33.4270122 12.527,32.4780122 L15.469,29.5370122 C17.43,27.5760122 17.43,24.3850122 15.469,22.4240122 C14.518,21.4740122 13.255,20.9510122 11.912,20.9510122 L11.912,20.9510122 Z" id="Fill-121" fill="#B2B2B2"></path>
                    <path d="M25.97,20.9510122 C23.557,20.9510122 21.289,20.0120122 19.584,18.3060122 C16.062,14.7850122 16.062,9.05701221 19.584,5.53701221 L22.526,2.59601221 C24.231,0.890012207 26.5,-0.048987793 28.912,-0.048987793 C31.324,-0.048987793 33.592,0.890012207 35.297,2.59601221 C38.819,6.11701221 38.819,11.8440122 35.297,15.3650122 L32.356,18.3060122 C30.65,20.0120122 28.382,20.9510122 25.97,20.9510122 L25.97,20.9510122 Z M28.912,3.95101221 C27.568,3.95101221 26.305,4.47401221 25.355,5.42401221 L22.412,8.36501221 C20.451,10.3260122 20.451,13.5170122 22.412,15.4780122 C23.363,16.4280122 24.626,16.9510122 25.97,16.9510122 C27.314,16.9510122 28.577,16.4280122 29.527,15.4780122 L32.469,12.5370122 C34.43,10.5760122 34.43,7.38501221 32.469,5.42401221 C31.518,4.47401221 30.255,3.95101221 28.912,3.95101221 L28.912,3.95101221 Z" id="Fill-122" fill="#B2B2B2"></path>
                    <path d="M12.947,26.9570122 C12.435,26.9570122 11.924,26.7620122 11.533,26.3710122 C10.751,25.5910122 10.751,24.3240122 11.533,23.5430122 L23.536,11.5430122 C24.317,10.7620122 25.583,10.7620122 26.365,11.5430122 C27.146,12.3240122 27.146,13.5910122 26.365,14.3720122 L14.362,26.3710122 C13.971,26.7620122 13.459,26.9570122 12.947,26.9570122" id="Fill-123" fill="#E5E5E5"></path>
                </g>
            </g>
        </g>
    </g>
</svg>