<?xml version="1.0" encoding="UTF-8" standalone="no"?>
<svg width="43px" height="43px" viewBox="0 0 43 43" version="1.1" xmlns="http://www.w3.org/2000/svg" xmlns:xlink="http://www.w3.org/1999/xlink" xmlns:sketch="http://www.bohemiancoding.com/sketch/ns">
    <!-- Generator: Sketch 3.2 (9961) - http://www.bohemiancoding.com/sketch -->
    <title>Repeat</title>
    <desc>Created with Sketch.</desc>
    <defs></defs>
    <g id="Page-1" stroke="none" stroke-width="1" fill="none" fill-rule="evenodd" sketch:type="MSPage">
        <g id="Artboard-1" sketch:type="MSArtboardGroup" transform="translate(-1295.000000, -201.000000)" fill="#1A1918">
            <g id="Row-1" sketch:type="MSLayerGroup" transform="translate(198.000000, 197.000000)">
                <g id="Repeat" transform="translate(1097.000000, 4.000000)" sketch:type="MSShapeGroup">
                    <path d="M41.821,19.787 C41.269,19.787 40.821,20.235 40.821,20.787 L40.821,26.69 C40.821,28.895 39.026,30.69 36.821,30.69 L4.234,30.682 L12.426,22.489 C12.621,22.294 12.719,22.038 12.719,21.782 C12.719,21.526 12.621,21.271 12.426,21.075 C12.237,20.887 11.992,20.794 11.745,20.787 L11.693,20.787 C11.446,20.794 11.2,20.887 11.012,21.075 L1.113,30.974 C1.02,31.066 0.947,31.177 0.897,31.3 C0.796,31.544 0.796,31.819 0.897,32.064 C0.947,32.186 1.02,32.297 1.113,32.389 L11.012,42.288 C11.402,42.679 12.035,42.679 12.426,42.288 C12.621,42.093 12.719,41.837 12.719,41.581 C12.719,41.325 12.621,41.069 12.426,40.874 L4.234,32.682 L36.821,32.69 C40.135,32.69 42.821,30.003 42.821,26.69 L42.821,20.787 C42.821,20.235 42.373,19.787 41.821,19.787" id="Fill-12"></path>
                    <path d="M1.821,23.375 C2.373,23.375 2.821,22.927 2.821,22.375 L2.821,16.473 C2.821,14.267 4.615,12.472 6.821,12.472 L39.408,12.481 L31.216,20.673 C31.021,20.868 30.923,21.124 30.923,21.38 C30.923,21.636 31.021,21.892 31.216,22.087 C31.405,22.275 31.65,22.368 31.897,22.375 L31.949,22.375 C32.196,22.368 32.441,22.275 32.63,22.087 L42.529,12.188 C42.621,12.096 42.694,11.985 42.745,11.863 C42.846,11.618 42.846,11.343 42.745,11.098 C42.694,10.976 42.621,10.865 42.529,10.773 L32.63,0.874 C32.239,0.483 31.606,0.483 31.216,0.874 C31.021,1.069 30.923,1.325 30.923,1.581 C30.923,1.837 31.021,2.093 31.216,2.288 L39.408,10.481 L6.821,10.473 C3.507,10.473 0.821,13.159 0.821,16.473 L0.821,22.375 C0.821,22.927 1.269,23.375 1.821,23.375" id="Fill-13"></path>
                </g>
            </g>
        </g>
    </g>
</svg>