<?xml version="1.0" encoding="UTF-8" standalone="no"?>
<svg width="483px" height="73px" viewBox="0 0 483 73" version="1.1" xmlns="http://www.w3.org/2000/svg" xmlns:xlink="http://www.w3.org/1999/xlink" xmlns:sketch="http://www.bohemiancoding.com/sketch/ns">
    <!-- Generator: Sketch 3.2 (9961) - http://www.bohemiancoding.com/sketch -->
    <title>BitAssets Buttons</title>
    <desc>Created with Sketch.</desc>
    <defs>
        <path id="path-1" d="M0.347069984,12.1164948 C2.22634526,14.0122371 4.10637014,15.9079794 5.98564541,17.8029691 C6.96988491,18.7956186 7.95412442,19.788268 8.93761431,20.7801649 C9.35289891,20.5152577 9.81990669,20.3248557 10.320647,20.2292784 L10.320647,14.3215464 L10.320647,9.38539175 C9.98332193,9.04597938 7.95862208,7.19238144 5.82073095,5.24395876 C4.71880249,4.23926804 3.58688958,3.20974227 2.64013064,2.34954639 C1.31106998,1.14165979 0.347069984,0.267917526 0.347069984,0.267917526 L0.347069984,8.41983505 L0.347069984,12.1164948"></path>
        <path id="path-3" d="M0.347069984,12.1164948 C2.22634526,14.0122371 4.10637014,15.9079794 5.98564541,17.8029691 C6.96988491,18.7956186 7.95412442,19.788268 8.93761431,20.7801649 C9.35289891,20.5152577 9.81990669,20.3248557 10.320647,20.2292784 L10.320647,14.3215464 L10.320647,9.38539175 C9.98332193,9.04597938 7.95862208,7.19238144 5.82073095,5.24395876 C4.71880249,4.23926804 3.58688958,3.20974227 2.64013064,2.34954639 C1.31106998,1.14165979 0.347069984,0.267917526 0.347069984,0.267917526 L0.347069984,8.41983505 L0.347069984,12.1164948"></path>
        <path id="path-4" d="M0.422780715,12.1164948 C2.3028056,14.0122371 4.18208087,15.9079794 6.06210575,17.8029691 C7.04559565,18.7956186 8.02983515,19.788268 9.01407465,20.7801649 C9.42860964,20.5152577 9.89561742,20.3248557 10.3963577,20.2292784 L10.3963577,14.3215464 L10.3963577,9.38539175 C10.0590327,9.04597938 8.03433281,7.19238144 5.89719129,5.24395876 C4.79526283,4.23926804 3.66260031,3.20974227 2.71659098,2.34954639 C1.38678072,1.14165979 0.422780715,0.267917526 0.422780715,0.267917526 L0.422780715,8.41983505 L0.422780715,12.1164948"></path>
        <linearGradient x1="50%" y1="0%" x2="50%" y2="100%" id="linearGradient-6">
            <stop stop-color="#FFFFFF" offset="0%"></stop>
            <stop stop-color="#000000" offset="100%"></stop>
        </linearGradient>
        <path id="path-7" d="M0.422780715,12.1164948 C2.3028056,14.0122371 4.18208087,15.9079794 6.06210575,17.8029691 C7.04559565,18.7956186 8.02983515,19.788268 9.01407465,20.7801649 C9.42860964,20.5152577 9.89561742,20.3248557 10.3963577,20.2292784 L10.3963577,14.3215464 L10.3963577,9.38539175 C10.0590327,9.04597938 8.03433281,7.19238144 5.89719129,5.24395876 C4.79526283,4.23926804 3.66260031,3.20974227 2.71659098,2.34954639 C1.38678072,1.14165979 0.422780715,0.267917526 0.422780715,0.267917526 L0.422780715,8.41983505 L0.422780715,12.1164948"></path>
        <path id="path-8" d="M0.271359253,12.1164948 C2.15063453,14.0122371 4.03065941,15.9079794 5.90993468,17.8029691 C6.89417418,18.7956186 7.87766407,19.788268 8.86190358,20.7801649 C9.27718818,20.5152577 9.74419596,20.3248557 10.2449362,20.2292784 L10.2449362,14.3215464 L10.2449362,9.38539175 C9.9076112,9.04597938 7.88291135,7.19238144 5.74502022,5.24395876 C4.64309176,4.23926804 3.51117885,3.20974227 2.56441991,2.34954639 C1.23460964,1.14165979 0.271359253,0.267917526 0.271359253,0.267917526 L0.271359253,8.41983505 L0.271359253,12.1164948"></path>
        <path id="path-10" d="M0.271359253,12.1164948 C2.15063453,14.0122371 4.03065941,15.9079794 5.90993468,17.8029691 C6.89417418,18.7956186 7.87766407,19.788268 8.86190358,20.7801649 C9.27718818,20.5152577 9.74419596,20.3248557 10.2449362,20.2292784 L10.2449362,14.3215464 L10.2449362,9.38539175 C9.9076112,9.04597938 7.88291135,7.19238144 5.74502022,5.24395876 C4.64309176,4.23926804 3.51117885,3.20974227 2.56441991,2.34954639 C1.23460964,1.14165979 0.271359253,0.267917526 0.271359253,0.267917526 L0.271359253,8.41983505 L0.271359253,12.1164948"></path>
        <path id="path-11" d="M0.194898911,12.1164948 C2.07492379,14.0122371 3.95419907,15.9079794 5.83422395,17.8029691 C6.81771384,18.7956186 7.80195334,19.788268 8.78619285,20.7801649 C9.20072784,20.5152577 9.66773561,20.3248557 10.1684759,20.2292784 L10.1684759,14.3215464 L10.1684759,9.38539175 C9.83115086,9.04597938 7.80720062,7.19238144 5.66930949,5.24395876 C4.56738103,4.23926804 3.43546812,3.20974227 2.48870918,2.34954639 C1.15889891,1.14165979 0.194898911,0.267917526 0.194898911,0.267917526 L0.194898911,8.41983505 L0.194898911,12.1164948"></path>
        <path id="path-13" d="M0.194898911,12.1164948 C2.07492379,14.0122371 3.95419907,15.9079794 5.83422395,17.8029691 C6.81771384,18.7956186 7.80195334,19.788268 8.78619285,20.7801649 C9.20072784,20.5152577 9.66773561,20.3248557 10.1684759,20.2292784 L10.1684759,14.3215464 L10.1684759,9.38539175 C9.83115086,9.04597938 7.80720062,7.19238144 5.66930949,5.24395876 C4.56738103,4.23926804 3.43546812,3.20974227 2.48870918,2.34954639 C1.15889891,1.14165979 0.194898911,0.267917526 0.194898911,0.267917526 L0.194898911,8.41983505 L0.194898911,12.1164948"></path>
        <path id="path-14" d="M0.11918818,12.1164948 C1.99921306,14.0122371 3.87848834,15.9079794 5.75776361,17.8029691 C6.74200311,18.7956186 7.72624261,19.788268 8.7097325,20.7801649 C9.12501711,20.5152577 9.59202488,20.3248557 10.0927652,20.2292784 L10.0927652,14.3215464 L10.0927652,9.38539175 C9.75544012,9.04597938 7.73074028,7.19238144 5.59284914,5.24395876 C4.49092068,4.23926804 3.35900778,3.20974227 2.41299844,2.34954639 C1.08318818,1.14165979 0.11918818,0.267917526 0.11918818,0.267917526 L0.11918818,8.41983505 L0.11918818,12.1164948"></path>
        <path id="path-16" d="M0.11918818,12.1164948 C1.99921306,14.0122371 3.87848834,15.9079794 5.75776361,17.8029691 C6.74200311,18.7956186 7.72624261,19.788268 8.7097325,20.7801649 C9.12501711,20.5152577 9.59202488,20.3248557 10.0927652,20.2292784 L10.0927652,14.3215464 L10.0927652,9.38539175 C9.75544012,9.04597938 7.73074028,7.19238144 5.59284914,5.24395876 C4.49092068,4.23926804 3.35900778,3.20974227 2.41299844,2.34954639 C1.08318818,1.14165979 0.11918818,0.267917526 0.11918818,0.267917526 L0.11918818,8.41983505 L0.11918818,12.1164948"></path>
        <path id="path-17" d="M0.0434774495,12.1164948 C1.92275272,14.0122371 3.8027776,15.9079794 5.68205288,17.8029691 C6.66629238,18.7956186 7.64978227,19.788268 8.63402177,20.7801649 C9.04930638,20.5152577 9.51631415,20.3248557 10.0170544,20.2292784 L10.0170544,14.3215464 L10.0170544,9.38539175 C9.67972939,9.04597938 7.65502955,7.19238144 5.51713841,5.24395876 C4.41520995,4.23926804 3.28329705,3.20974227 2.3365381,2.34954639 C1.00672784,1.14165979 0.0434774495,0.267917526 0.0434774495,0.267917526 L0.0434774495,8.41983505 L0.0434774495,12.1164948"></path>
        <path id="path-19" d="M0.0434774495,12.1164948 C1.92275272,14.0122371 3.8027776,15.9079794 5.68205288,17.8029691 C6.66629238,18.7956186 7.64978227,19.788268 8.63402177,20.7801649 C9.04930638,20.5152577 9.51631415,20.3248557 10.0170544,20.2292784 L10.0170544,14.3215464 L10.0170544,9.38539175 C9.67972939,9.04597938 7.65502955,7.19238144 5.51713841,5.24395876 C4.41520995,4.23926804 3.28329705,3.20974227 2.3365381,2.34954639 C1.00672784,1.14165979 0.0434774495,0.267917526 0.0434774495,0.267917526 L0.0434774495,8.41983505 L0.0434774495,12.1164948"></path>
    </defs>
    <g id="General-Stuff" stroke="none" stroke-width="1" fill="none" fill-rule="evenodd" sketch:type="MSPage">
        <g id="Desktop-HD-2" sketch:type="MSArtboardGroup" transform="translate(-458.000000, -1258.000000)">
            <g id="Group" sketch:type="MSLayerGroup" transform="translate(103.000000, 423.000000)">
                <g id="GATEWAYS-+-Rectangle-6-+-MERCHANTS-+-Rectangle-6-+-TRADERS-+-Rectangle-6-+-Line-+-Line">
                    <g transform="translate(5.000000, 813.000000)">
                        <g id="Group">
                            <g id="BitAssets-Buttons" transform="translate(351.000000, 22.000000)">
                                <path d="M150.458212,72.3610619 L83.9976827,72.3610619 C83.2060933,72.3610619 82.5591788,71.7108351 82.5591788,70.916866 L82.5591788,4.19336082 C82.5591788,3.39939175 83.2060933,2.74916495 83.9976827,2.74916495 L150.458212,2.74916495 C151.249051,2.74916495 151.896715,3.39939175 151.896715,4.19336082 L151.896715,70.916866 C151.896715,71.7108351 151.249051,72.3610619 150.458212,72.3610619" id="Fill-1" fill="#B6B8B4" sketch:type="MSShapeGroup"></path>
                                <path d="M150.458212,70.2297629 L83.9976827,70.2297629 C83.2060933,70.2297629 82.5591788,69.5802887 82.5591788,68.785567 L82.5591788,2.06206186 C82.5591788,1.26809278 83.2060933,0.617865979 83.9976827,0.617865979 L150.458212,0.617865979 C151.249051,0.617865979 151.896715,1.26809278 151.896715,2.06206186 L151.896715,68.785567 C151.896715,69.5802887 151.249051,70.2297629 150.458212,70.2297629 L150.458212,70.2297629 Z" id="Fill-2" fill="#FFFFFF" sketch:type="MSShapeGroup"></path>
                                <path d="M150.458212,70.2297629 L83.9976827,70.2297629 C83.2060933,70.2297629 82.5591788,69.5802887 82.5591788,68.785567 L82.5591788,2.06206186 C82.5591788,1.26809278 83.2060933,0.617865979 83.9976827,0.617865979 L150.458212,0.617865979 C151.249051,0.617865979 151.896715,1.26809278 151.896715,2.06206186 L151.896715,68.785567 C151.896715,69.5802887 151.249051,70.2297629 150.458212,70.2297629 L150.458212,70.2297629 Z" id="Stroke-3" stroke="#CBCCCB" stroke-width="0.5" sketch:type="MSShapeGroup"></path>
                                <path d="M112.740025,33.9284433 L105.126974,26.2920412 L105.126974,35.4358557 L112.1141,35.4358557 C112.218295,34.8849691 112.434933,34.3739691 112.740025,33.9284433" id="Fill-4" fill="#CBCCCB" sketch:type="MSShapeGroup"></path>
                                <path d="M112.1141,36.9289691 L105.126974,36.9289691 C105.292638,39.3914021 106.267882,41.6303196 107.788843,43.3800619 L112.728781,38.4205773 C112.429686,37.9788144 112.216796,37.4730825 112.1141,36.9289691" id="Fill-5" fill="#CBCCCB" sketch:type="MSShapeGroup"></path>
                                <path d="M123.17911,27.9288969 C121.436264,26.4019175 119.206171,25.4228144 116.753443,25.2564948 L116.753443,32.2705155 C117.296162,32.3743711 117.799151,32.5873505 118.239173,32.8883814 L123.17911,27.9288969" id="Fill-6" fill="#CBCCCB" sketch:type="MSShapeGroup"></path>
                                <path d="M119.357593,38.3167216 L124.309524,43.2882474 C125.785509,41.5528041 126.730019,39.3485052 126.892684,36.9289691 L119.905558,36.9289691 C119.811107,37.4316907 119.621456,37.9005464 119.357593,38.3167216" id="Fill-7" fill="#CBCCCB" sketch:type="MSShapeGroup"></path>
                                <path d="M119.905558,35.4358557 L126.892684,35.4358557 C126.72702,32.9734227 125.751776,30.7337526 124.230815,28.9847629 L119.290877,33.9442474 C119.589972,34.3860103 119.802862,34.8909897 119.905558,35.4358557" id="Fill-8" fill="#CBCCCB" sketch:type="MSShapeGroup"></path>
                                <path d="M108.840547,44.4359278 C110.583393,45.9629072 112.813487,46.9420103 115.266215,47.1083299 L115.266215,40.0935567 C114.723496,39.9904536 114.220507,39.7767216 113.780485,39.4764433 L108.840547,44.4359278" id="Fill-9" fill="#CBCCCB" sketch:type="MSShapeGroup"></path>
                                <path d="M116.753443,40.0935567 L116.753443,47.1083299 C119.212918,46.9412577 121.448258,45.9576392 123.193353,44.423134 L118.254165,39.4651546 C117.811145,39.7714536 117.302159,39.9889485 116.753443,40.0935567" id="Fill-10" fill="#CBCCCB" sketch:type="MSShapeGroup"></path>
                                <g id="Group-13" transform="translate(104.945568, 12.041237)">
                                    <mask id="mask-2" sketch:name="Clip 12" fill="white">
                                        <use xlink:href="#path-1"></use>
                                    </mask>
                                    <g id="Clip-12"></g>
                                    <g id="Fill-11">
                                        <use fill="none" sketch:type="MSShapeGroup" mask="url(#mask-2)" xlink:href="#path-3"></use>
                                        <use fill="#D1595B" fill-rule="evenodd" xlink:href="#path-3"></use>
                                    </g>
                                </g>
                                <path d="M147.148678,14.6970825 C147.148678,19.6987113 143.109773,23.7528454 138.127857,23.7528454 C133.145191,23.7528454 129.106286,19.6987113 129.106286,14.6970825 C129.106286,9.69470103 133.145191,5.64056701 138.127857,5.64056701 C143.109773,5.64056701 147.148678,9.69470103 147.148678,14.6970825 L147.148678,14.6970825 Z" id="Fill-14" fill="#FFFFFF" sketch:type="MSShapeGroup"></path>
                                <path d="M147.148678,14.6970825 C147.148678,19.6987113 143.109773,23.7528454 138.127857,23.7528454 C133.145191,23.7528454 129.106286,19.6987113 129.106286,14.6970825 C129.106286,9.69470103 133.145191,5.64056701 138.127857,5.64056701 C143.109773,5.64056701 147.148678,9.69470103 147.148678,14.6970825 L147.148678,14.6970825 Z" id="Stroke-15" stroke="#81C064" stroke-width="0.5" sketch:type="MSShapeGroup"></path>
                                <path d="M134.313835,14.3305773 L137.09939,17.1271546 L141.941129,12.2662577" id="Stroke-16" stroke="#81C064" stroke-width="2.124" stroke-linecap="round" stroke-linejoin="round" sketch:type="MSShapeGroup"></path>
                                <path d="M68.0766905,72.3610619 L1.61616174,72.3610619 C0.825321928,72.3610619 0.177657854,71.7108351 0.177657854,70.916866 L0.177657854,3.12771134 C0.177657854,2.33374227 0.825321928,1.68351546 1.61616174,1.68351546 L68.0766905,1.68351546 C68.8682799,1.68351546 69.5151944,2.33374227 69.5151944,3.12771134 L69.5151944,70.916866 C69.5151944,71.7108351 68.8682799,72.3610619 68.0766905,72.3610619" id="Fill-17" fill="#B6B8B4" sketch:type="MSShapeGroup"></path>
                                <path d="M1.61616174,70.2297629 C0.825321928,70.2297629 0.177657854,69.5802887 0.177657854,68.785567 L0.177657854,2.06206186 C0.177657854,1.26809278 0.825321928,0.617865979 1.61616174,0.617865979 L68.0766905,0.617865979 C68.8682799,0.617865979 69.5151944,1.26809278 69.5151944,2.06206186 L69.5151944,68.785567 C69.5151944,69.5802887 68.8682799,70.2297629 68.0766905,70.2297629 L1.61616174,70.2297629 Z" id="Fill-18" fill="#FFFFFF" sketch:type="MSShapeGroup"></path>
                                <path d="M68.0766905,70.2297629 L1.61616174,70.2297629 C0.825321928,70.2297629 0.177657854,69.5802887 0.177657854,68.785567 L0.177657854,2.06206186 C0.177657854,1.26809278 0.825321928,0.617865979 1.61616174,0.617865979 L68.0766905,0.617865979 C68.8682799,0.617865979 69.5151944,1.26809278 69.5151944,2.06206186 L69.5151944,68.785567 C69.5151944,69.5802887 68.8682799,70.2297629 68.0766905,70.2297629 L68.0766905,70.2297629 Z" id="Stroke-19" stroke="#E4E5E3" stroke-width="0.5" sketch:type="MSShapeGroup"></path>
                                <path d="M30.3585039,33.9284433 L22.7462022,26.2920412 L22.7462022,35.4358557 L29.7325785,35.4358557 C29.8367745,34.8849691 30.0534121,34.3739691 30.3585039,33.9284433" id="Fill-20" fill="#CBCCCB" sketch:type="MSShapeGroup"></path>
                                <path d="M29.7325785,36.9289691 L22.7462022,36.9289691 C22.9111166,39.3914021 23.8863608,41.6303196 25.4073219,43.3800619 L30.3472597,38.4205773 C30.0481649,37.9788144 29.8352753,37.4730825 29.7325785,36.9289691" id="Fill-21" fill="#CBCCCB" sketch:type="MSShapeGroup"></path>
                                <path d="M40.7975894,27.9288969 C39.055493,26.4019175 36.8246501,25.4228144 34.3719222,25.2564948 L34.3719222,32.2705155 C34.9146407,32.3743711 35.4176299,32.5873505 35.8576516,32.8883814 L40.7975894,27.9288969" id="Fill-22" fill="#CBCCCB" sketch:type="MSShapeGroup"></path>
                                <path d="M36.9760715,38.3167216 L41.9280031,43.2882474 C43.4039876,41.5528041 44.3484977,39.3485052 44.5111633,36.9289691 L37.5247869,36.9289691 C37.4295863,37.4316907 37.2406843,37.9005464 36.9760715,38.3167216" id="Fill-23" fill="#CBCCCB" sketch:type="MSShapeGroup"></path>
                                <path d="M37.5247869,35.4358557 L44.5111633,35.4358557 C44.3462488,32.9734227 43.3702551,30.7337526 41.8492939,28.9847629 L36.9093561,33.9442474 C37.2092006,34.3860103 37.4213406,34.8909897 37.5247869,35.4358557" id="Fill-24" fill="#CBCCCB" sketch:type="MSShapeGroup"></path>
                                <path d="M26.4590264,44.4359278 C28.2018725,45.9629072 30.4319658,46.9420103 32.8846936,47.1083299 L32.8846936,40.0935567 C32.3427247,39.9904536 31.838986,39.7767216 31.3989642,39.4764433 L26.4590264,44.4359278" id="Fill-25" fill="#CBCCCB" sketch:type="MSShapeGroup"></path>
                                <path d="M34.3719222,40.0935567 L34.3719222,47.1083299 C36.8313966,46.9412577 39.0674868,45.9576392 40.811832,44.423134 L35.8733935,39.4651546 C35.4296236,39.7714536 34.9206376,39.9889485 34.3719222,40.0935567" id="Fill-26" fill="#CBCCCB" sketch:type="MSShapeGroup"></path>
                                <g id="Group-29" transform="translate(22.488336, 12.041237)">
                                    <mask id="mask-5" sketch:name="Clip 28" fill="white">
                                        <use xlink:href="#path-4"></use>
                                    </mask>
                                    <g id="Clip-28"></g>
                                    <g id="Fill-27">
                                        <use fill="url(#linearGradient-6)" sketch:type="MSShapeGroup" mask="url(#mask-5)" xlink:href="#path-7"></use>
                                        <use fill="#81BF64" xlink:href="#path-7"></use>
                                    </g>
                                </g>
                                <path d="M64.7671571,14.6970825 C64.7671571,19.6987113 60.7282519,23.7528454 55.7463359,23.7528454 C50.7636703,23.7528454 46.7255148,19.6987113 46.7255148,14.6970825 C46.7255148,9.69470103 50.7636703,5.64056701 55.7463359,5.64056701 C60.7282519,5.64056701 64.7671571,9.69470103 64.7671571,14.6970825 L64.7671571,14.6970825 Z" id="Fill-30" fill="#FFFFFF" sketch:type="MSShapeGroup"></path>
                                <path d="M64.7671571,14.6970825 C64.7671571,19.6987113 60.7282519,23.7528454 55.7463359,23.7528454 C50.7636703,23.7528454 46.7255148,19.6987113 46.7255148,14.6970825 C46.7255148,9.69470103 50.7636703,5.64056701 55.7463359,5.64056701 C60.7282519,5.64056701 64.7671571,9.69470103 64.7671571,14.6970825 L64.7671571,14.6970825 Z" id="Stroke-31" stroke="#81C064" stroke-width="0.5" sketch:type="MSShapeGroup"></path>
                                <path d="M51.9323142,14.3305773 L54.7178694,17.1271546 L59.5603577,12.2662577" id="Stroke-32" stroke="#81C064" stroke-width="2.124" stroke-linecap="round" stroke-linejoin="round" sketch:type="MSShapeGroup"></path>
                                <path d="M232.838983,72.3610619 L166.379204,72.3610619 C165.587614,72.3610619 164.93995,71.7108351 164.93995,70.916866 L164.93995,4.19336082 C164.93995,3.39939175 165.587614,2.74916495 166.379204,2.74916495 L232.838983,2.74916495 C233.630572,2.74916495 234.278236,3.39939175 234.278236,4.19336082 L234.278236,70.916866 C234.278236,71.7108351 233.630572,72.3610619 232.838983,72.3610619" id="Fill-33" fill="#B6B8B4" sketch:type="MSShapeGroup"></path>
                                <path d="M232.838983,70.2297629 L166.379204,70.2297629 C165.587614,70.2297629 164.93995,69.5802887 164.93995,68.785567 L164.93995,2.06206186 C164.93995,1.26809278 165.587614,0.617865979 166.379204,0.617865979 L232.838983,0.617865979 C233.630572,0.617865979 234.278236,1.26809278 234.278236,2.06206186 L234.278236,68.785567 C234.278236,69.5802887 233.630572,70.2297629 232.838983,70.2297629 L232.838983,70.2297629 Z" id="Fill-34" fill="#FFFFFF" sketch:type="MSShapeGroup"></path>
                                <path d="M232.838983,70.2297629 L166.379204,70.2297629 C165.587614,70.2297629 164.93995,69.5802887 164.93995,68.785567 L164.93995,2.06206186 C164.93995,1.26809278 165.587614,0.617865979 166.379204,0.617865979 L232.838983,0.617865979 C233.630572,0.617865979 234.278236,1.26809278 234.278236,2.06206186 L234.278236,68.785567 C234.278236,69.5802887 233.630572,70.2297629 232.838983,70.2297629 L232.838983,70.2297629 Z" id="Stroke-35" stroke="#CBCCCB" stroke-width="0.5" sketch:type="MSShapeGroup"></path>
                                <path d="M195.120796,33.9284433 L187.508495,26.2920412 L187.508495,35.4358557 L194.494871,35.4358557 C194.599067,34.8849691 194.815705,34.3739691 195.120796,33.9284433" id="Fill-36" fill="#CBCCCB" sketch:type="MSShapeGroup"></path>
                                <path d="M194.494871,36.9289691 L187.508495,36.9289691 C187.674159,39.3914021 188.649403,41.6303196 190.170364,43.3800619 L195.110302,38.4205773 C194.810457,37.9788144 194.598317,37.4730825 194.494871,36.9289691" id="Fill-37" fill="#CBCCCB" sketch:type="MSShapeGroup"></path>
                                <path d="M205.560631,27.9288969 C203.817785,26.4019175 201.587692,25.4228144 199.134964,25.2564948 L199.134964,32.2705155 C199.676933,32.3743711 200.180672,32.5873505 200.620694,32.8883814 L205.560631,27.9288969" id="Fill-38" fill="#CBCCCB" sketch:type="MSShapeGroup"></path>
                                <path d="M201.739114,38.3167216 L206.690295,43.2882474 C208.16628,41.5528041 209.11154,39.3485052 209.273456,36.9289691 L202.287079,36.9289691 C202.191879,37.4316907 202.002977,37.9005464 201.739114,38.3167216" id="Fill-39" fill="#CBCCCB" sketch:type="MSShapeGroup"></path>
                                <path d="M202.287079,35.4358557 L209.273456,35.4358557 C209.108541,32.9734227 208.133297,30.7337526 206.612336,28.9847629 L201.672398,33.9442474 C201.971493,34.3860103 202.184383,34.8909897 202.287079,35.4358557" id="Fill-40" fill="#CBCCCB" sketch:type="MSShapeGroup"></path>
                                <path d="M191.222068,44.4359278 C192.964165,45.9629072 195.195008,46.9420103 197.647736,47.1083299 L197.647736,40.0935567 C197.105017,39.9904536 196.602028,39.7767216 196.162006,39.4764433 L191.222068,44.4359278" id="Fill-41" fill="#CBCCCB" sketch:type="MSShapeGroup"></path>
                                <path d="M199.134964,40.0935567 L199.134964,47.1083299 C201.594439,46.9412577 203.829779,45.9576392 205.574124,44.423134 L200.635686,39.4651546 C200.191916,39.7714536 199.68368,39.9889485 199.134964,40.0935567" id="Fill-42" fill="#CBCCCB" sketch:type="MSShapeGroup"></path>
                                <g id="Group-45" transform="translate(187.402799, 12.041237)">
                                    <mask id="mask-9" sketch:name="Clip 44" fill="white">
                                        <use xlink:href="#path-8"></use>
                                    </mask>
                                    <g id="Clip-44"></g>
                                    <g id="Fill-43">
                                        <use fill="none" sketch:type="MSShapeGroup" mask="url(#mask-9)" xlink:href="#path-10"></use>
                                        <use fill="#2585A6" fill-rule="evenodd" xlink:href="#path-10"></use>
                                    </g>
                                </g>
                                <path d="M229.529449,14.6970825 C229.529449,19.6987113 225.491294,23.7528454 220.508628,23.7528454 C215.526712,23.7528454 211.487807,19.6987113 211.487807,14.6970825 C211.487807,9.69470103 215.526712,5.64056701 220.508628,5.64056701 C225.491294,5.64056701 229.529449,9.69470103 229.529449,14.6970825 L229.529449,14.6970825 Z" id="Fill-46" fill="#FFFFFF" sketch:type="MSShapeGroup"></path>
                                <path d="M229.529449,14.6970825 C229.529449,19.6987113 225.491294,23.7528454 220.508628,23.7528454 C215.526712,23.7528454 211.487807,19.6987113 211.487807,14.6970825 C211.487807,9.69470103 215.526712,5.64056701 220.508628,5.64056701 C225.491294,5.64056701 229.529449,9.69470103 229.529449,14.6970825 L229.529449,14.6970825 Z" id="Stroke-47" stroke="#81C064" stroke-width="0.5" sketch:type="MSShapeGroup"></path>
                                <path d="M216.694607,14.3305773 L219.480911,17.1271546 L224.32265,12.2662577" id="Stroke-48" stroke="#81C064" stroke-width="2.124" stroke-linecap="round" stroke-linejoin="round" sketch:type="MSShapeGroup"></path>
                                <path d="M315.220504,72.3610619 L248.759975,72.3610619 C247.969135,72.3610619 247.321471,71.7108351 247.321471,70.916866 L247.321471,4.19336082 C247.321471,3.39939175 247.969135,2.74916495 248.759975,2.74916495 L315.220504,2.74916495 C316.012093,2.74916495 316.659008,3.39939175 316.659008,4.19336082 L316.659008,70.916866 C316.659008,71.7108351 316.012093,72.3610619 315.220504,72.3610619" id="Fill-49" fill="#B6B8B4" sketch:type="MSShapeGroup"></path>
                                <path d="M315.220504,70.2297629 L248.759975,70.2297629 C247.969135,70.2297629 247.321471,69.5802887 247.321471,68.785567 L247.321471,2.06206186 C247.321471,1.26809278 247.969135,0.617865979 248.759975,0.617865979 L315.220504,0.617865979 C316.012093,0.617865979 316.659008,1.26809278 316.659008,2.06206186 L316.659008,68.785567 C316.659008,69.5802887 316.012093,70.2297629 315.220504,70.2297629 L315.220504,70.2297629 Z" id="Fill-50" fill="#FFFFFF" sketch:type="MSShapeGroup"></path>
                                <path d="M315.220504,70.2297629 L248.759975,70.2297629 C247.969135,70.2297629 247.321471,69.5802887 247.321471,68.785567 L247.321471,2.06206186 C247.321471,1.26809278 247.969135,0.617865979 248.759975,0.617865979 L315.220504,0.617865979 C316.012093,0.617865979 316.659008,1.26809278 316.659008,2.06206186 L316.659008,68.785567 C316.659008,69.5802887 316.012093,70.2297629 315.220504,70.2297629 L315.220504,70.2297629 Z" id="Stroke-51" stroke="#CBCCCB" stroke-width="0.5" sketch:type="MSShapeGroup"></path>
                                <path d="M277.502317,33.9284433 L269.890016,26.2920412 L269.890016,35.4358557 L276.876392,35.4358557 C276.980588,34.8849691 277.197226,34.3739691 277.502317,33.9284433" id="Fill-52" fill="#CBCCCB" sketch:type="MSShapeGroup"></path>
                                <path d="M276.876392,36.9289691 L269.890016,36.9289691 C270.05493,39.3914021 271.030174,41.6303196 272.551135,43.3800619 L277.491073,38.4205773 C277.191978,37.9788144 276.979089,37.4730825 276.876392,36.9289691" id="Fill-53" fill="#CBCCCB" sketch:type="MSShapeGroup"></path>
                                <path d="M287.941403,27.9288969 C286.199306,26.4019175 283.969213,25.4228144 281.516485,25.2564948 L281.516485,32.2705155 C282.058454,32.3743711 282.562193,32.5873505 283.001465,32.8883814 L287.941403,27.9288969" id="Fill-54" fill="#CBCCCB" sketch:type="MSShapeGroup"></path>
                                <path d="M284.119885,38.3167216 L289.071816,43.2882474 C290.547801,41.5528041 291.492311,39.3485052 291.654977,36.9289691 L284.6686,36.9289691 C284.5734,37.4316907 284.384498,37.9005464 284.119885,38.3167216" id="Fill-55" fill="#CBCCCB" sketch:type="MSShapeGroup"></path>
                                <path d="M284.6686,35.4358557 L291.654977,35.4358557 C291.490062,32.9734227 290.514068,30.7337526 288.993857,28.9847629 L284.05317,33.9442474 C284.353014,34.3860103 284.565904,34.8909897 284.6686,35.4358557" id="Fill-56" fill="#CBCCCB" sketch:type="MSShapeGroup"></path>
                                <path d="M273.60284,44.4359278 C275.345686,45.9629072 277.575779,46.9420103 280.028507,47.1083299 L280.028507,40.0935567 C279.486538,39.9904536 278.982799,39.7767216 278.543527,39.4764433 L273.60284,44.4359278" id="Fill-57" fill="#CBCCCB" sketch:type="MSShapeGroup"></path>
                                <path d="M281.516485,40.0935567 L281.516485,47.1083299 C283.97521,46.9412577 286.2113,45.9576392 287.955645,44.423134 L283.017207,39.4651546 C282.573437,39.7714536 282.065201,39.9889485 281.516485,40.0935567" id="Fill-58" fill="#CBCCCB" sketch:type="MSShapeGroup"></path>
                                <g id="Group-61" transform="translate(269.860031, 12.041237)">
                                    <mask id="mask-12" sketch:name="Clip 60" fill="white">
                                        <use xlink:href="#path-11"></use>
                                    </mask>
                                    <g id="Clip-60"></g>
                                    <g id="Fill-59">
                                        <use fill="none" sketch:type="MSShapeGroup" mask="url(#mask-12)" xlink:href="#path-13"></use>
                                        <use fill="#C7B16F" fill-rule="evenodd" xlink:href="#path-13"></use>
                                    </g>
                                </g>
                                <path d="M311.91097,14.6970825 C311.91097,19.6987113 307.872065,23.7528454 302.890149,23.7528454 C297.908233,23.7528454 293.869328,19.6987113 293.869328,14.6970825 C293.869328,9.69470103 297.908233,5.64056701 302.890149,5.64056701 C307.872065,5.64056701 311.91097,9.69470103 311.91097,14.6970825 L311.91097,14.6970825 Z" id="Fill-62" fill="#FFFFFF" sketch:type="MSShapeGroup"></path>
                                <path d="M311.91097,14.6970825 C311.91097,19.6987113 307.872065,23.7528454 302.890149,23.7528454 C297.908233,23.7528454 293.869328,19.6987113 293.869328,14.6970825 C293.869328,9.69470103 297.908233,5.64056701 302.890149,5.64056701 C307.872065,5.64056701 311.91097,9.69470103 311.91097,14.6970825 L311.91097,14.6970825 Z" id="Stroke-63" stroke="#81C064" stroke-width="0.5" sketch:type="MSShapeGroup"></path>
                                <path d="M299.076128,14.3305773 L301.861683,17.1271546 L306.704171,12.2662577" id="Stroke-64" stroke="#81C064" stroke-width="2.124" stroke-linecap="round" stroke-linejoin="round" sketch:type="MSShapeGroup"></path>
                                <path d="M397.602025,72.3610619 L331.141496,72.3610619 C330.349907,72.3610619 329.702992,71.7108351 329.702992,70.916866 L329.702992,4.19336082 C329.702992,3.39939175 330.349907,2.74916495 331.141496,2.74916495 L397.602025,2.74916495 C398.392865,2.74916495 399.040529,3.39939175 399.040529,4.19336082 L399.040529,70.916866 C399.040529,71.7108351 398.392865,72.3610619 397.602025,72.3610619" id="Fill-65" fill="#B6B8B4" sketch:type="MSShapeGroup"></path>
                                <path d="M331.141496,70.2297629 C330.349907,70.2297629 329.702992,69.5802887 329.702992,68.785567 L329.702992,2.06206186 C329.702992,1.26809278 330.349907,0.617865979 331.141496,0.617865979 L397.602025,0.617865979 C398.392865,0.617865979 399.040529,1.26809278 399.040529,2.06206186 L399.040529,68.785567 C399.040529,69.5802887 398.392865,70.2297629 397.602025,70.2297629 L331.141496,70.2297629 Z" id="Fill-66" fill="#FFFFFF" sketch:type="MSShapeGroup"></path>
                                <path d="M397.602025,70.2297629 L331.141496,70.2297629 C330.349907,70.2297629 329.702992,69.5802887 329.702992,68.785567 L329.702992,2.06206186 C329.702992,1.26809278 330.349907,0.617865979 331.141496,0.617865979 L397.602025,0.617865979 C398.392865,0.617865979 399.040529,1.26809278 399.040529,2.06206186 L399.040529,68.785567 C399.040529,69.5802887 398.392865,70.2297629 397.602025,70.2297629 L397.602025,70.2297629 Z" id="Stroke-67" stroke="#CBCCCB" stroke-width="0.5" sketch:type="MSShapeGroup"></path>
                                <path d="M359.883838,33.9284433 L352.271537,26.2920412 L352.271537,35.4358557 L359.257913,35.4358557 C359.362109,34.8849691 359.578747,34.3739691 359.883838,33.9284433" id="Fill-68" fill="#CBCCCB" sketch:type="MSShapeGroup"></path>
                                <path d="M359.257913,36.9289691 L352.271537,36.9289691 C352.436451,39.3914021 353.411695,41.6303196 354.932656,43.3800619 L359.872594,38.4205773 C359.573499,37.9788144 359.36061,37.4730825 359.257913,36.9289691" id="Fill-69" fill="#CBCCCB" sketch:type="MSShapeGroup"></path>
                                <path d="M370.322924,27.9288969 C368.580827,26.4019175 366.349984,25.4228144 363.897257,25.2564948 L363.897257,32.2705155 C364.439975,32.3743711 364.942964,32.5873505 365.382986,32.8883814 L370.322924,27.9288969" id="Fill-70" fill="#CBCCCB" sketch:type="MSShapeGroup"></path>
                                <path d="M366.501406,38.3167216 L371.453337,43.2882474 C372.929322,41.5528041 373.873832,39.3485052 374.036498,36.9289691 L367.050121,36.9289691 C366.954921,37.4316907 366.765269,37.9005464 366.501406,38.3167216" id="Fill-71" fill="#CBCCCB" sketch:type="MSShapeGroup"></path>
                                <path d="M367.050121,35.4358557 L374.036498,35.4358557 C373.870834,32.9734227 372.895589,30.7337526 371.374628,28.9847629 L366.434691,33.9442474 C366.734535,34.3860103 366.946675,34.8909897 367.050121,35.4358557" id="Fill-72" fill="#CBCCCB" sketch:type="MSShapeGroup"></path>
                                <path d="M355.984361,44.4359278 C357.727207,45.9629072 359.9573,46.9420103 362.410028,47.1083299 L362.410028,40.0935567 C361.868059,39.9904536 361.36432,39.7767216 360.924299,39.4764433 L355.984361,44.4359278" id="Fill-73" fill="#CBCCCB" sketch:type="MSShapeGroup"></path>
                                <path d="M363.897257,40.0935567 L363.897257,47.1083299 C366.356731,46.9412577 368.592072,45.9576392 370.337166,44.423134 L365.397978,39.4651546 C364.954958,39.7714536 364.445972,39.9889485 363.897257,40.0935567" id="Fill-74" fill="#CBCCCB" sketch:type="MSShapeGroup"></path>
                                <g id="Group-77" transform="translate(352.317263, 12.041237)">
                                    <mask id="mask-15" sketch:name="Clip 76" fill="white">
                                        <use xlink:href="#path-14"></use>
                                    </mask>
                                    <g id="Clip-76"></g>
                                    <g id="Fill-75">
                                        <use fill="none" sketch:type="MSShapeGroup" mask="url(#mask-15)" xlink:href="#path-16"></use>
                                        <use fill="#BCCFCB" fill-rule="evenodd" xlink:href="#path-16"></use>
                                    </g>
                                </g>
                                <path d="M395.353941,14.6970825 C395.353941,19.6987113 391.315036,23.7528454 386.33237,23.7528454 C381.350454,23.7528454 377.311549,19.6987113 377.311549,14.6970825 C377.311549,9.69470103 381.350454,5.64056701 386.33237,5.64056701 C391.315036,5.64056701 395.353941,9.69470103 395.353941,14.6970825 L395.353941,14.6970825 Z" id="Fill-78" fill="#FFFFFF" sketch:type="MSShapeGroup"></path>
                                <path d="M395.353941,14.6970825 C395.353941,19.6987113 391.315036,23.7528454 386.33237,23.7528454 C381.350454,23.7528454 377.311549,19.6987113 377.311549,14.6970825 C377.311549,9.69470103 381.350454,5.64056701 386.33237,5.64056701 C391.315036,5.64056701 395.353941,9.69470103 395.353941,14.6970825 L395.353941,14.6970825 Z" id="Stroke-79" stroke="#81C064" stroke-width="0.5" sketch:type="MSShapeGroup"></path>
                                <path d="M382.518348,14.3305773 L385.304653,17.1271546 L390.146392,12.2662577" id="Stroke-80" stroke="#81C064" stroke-width="2.124" stroke-linecap="round" stroke-linejoin="round" sketch:type="MSShapeGroup"></path>
                                <path d="M479.983546,72.3610619 L413.523017,72.3610619 C412.731428,72.3610619 412.084513,71.7108351 412.084513,70.916866 L412.084513,4.19336082 C412.084513,3.39939175 412.731428,2.74916495 413.523017,2.74916495 L479.983546,2.74916495 C480.774386,2.74916495 481.42205,3.39939175 481.42205,4.19336082 L481.42205,70.916866 C481.42205,71.7108351 480.774386,72.3610619 479.983546,72.3610619" id="Fill-81" fill="#B6B8B4" sketch:type="MSShapeGroup"></path>
                                <path d="M479.983546,70.2297629 L413.523017,70.2297629 C412.731428,70.2297629 412.084513,69.5802887 412.084513,68.785567 L412.084513,2.06206186 C412.084513,1.26809278 412.731428,0.617865979 413.523017,0.617865979 L479.983546,0.617865979 C480.774386,0.617865979 481.42205,1.26809278 481.42205,2.06206186 L481.42205,68.785567 C481.42205,69.5802887 480.774386,70.2297629 479.983546,70.2297629 L479.983546,70.2297629 Z" id="Fill-82" fill="#FFFFFF" sketch:type="MSShapeGroup"></path>
                                <path d="M479.983546,70.2297629 L413.523017,70.2297629 C412.731428,70.2297629 412.084513,69.5802887 412.084513,68.785567 L412.084513,2.06206186 C412.084513,1.26809278 412.731428,0.617865979 413.523017,0.617865979 L479.983546,0.617865979 C480.774386,0.617865979 481.42205,1.26809278 481.42205,2.06206186 L481.42205,68.785567 C481.42205,69.5802887 480.774386,70.2297629 479.983546,70.2297629 L479.983546,70.2297629 Z" id="Stroke-83" stroke="#CBCCCB" stroke-width="0.5" sketch:type="MSShapeGroup"></path>
                                <path d="M442.26461,33.9284433 L434.652308,26.2920412 L434.652308,35.4358557 L441.638684,35.4358557 C441.74288,34.8849691 441.959518,34.3739691 442.26461,33.9284433" id="Fill-84" fill="#CBCCCB" sketch:type="MSShapeGroup"></path>
                                <path d="M441.638684,36.9289691 L434.652308,36.9289691 C434.817972,39.3914021 435.793216,41.6303196 437.314177,43.3800619 L442.254115,38.4205773 C441.954271,37.9788144 441.742131,37.4730825 441.638684,36.9289691" id="Fill-85" fill="#CBCCCB" sketch:type="MSShapeGroup"></path>
                                <path d="M452.704445,27.9288969 C450.961599,26.4019175 448.731505,25.4228144 446.278778,25.2564948 L446.278778,32.2705155 C446.820747,32.3743711 447.324485,32.5873505 447.764507,32.8883814 L452.704445,27.9288969" id="Fill-86" fill="#CBCCCB" sketch:type="MSShapeGroup"></path>
                                <path d="M448.882927,38.3167216 L453.834109,43.2882474 C455.310093,41.5528041 456.255353,39.3485052 456.417269,36.9289691 L449.430893,36.9289691 C449.335692,37.4316907 449.14679,37.9005464 448.882927,38.3167216" id="Fill-87" fill="#CBCCCB" sketch:type="MSShapeGroup"></path>
                                <path d="M449.430893,35.4358557 L456.417269,35.4358557 C456.252355,32.9734227 455.27711,30.7337526 453.756149,28.9847629 L448.816212,33.9442474 C449.115306,34.3860103 449.328196,34.8909897 449.430893,35.4358557" id="Fill-88" fill="#CBCCCB" sketch:type="MSShapeGroup"></path>
                                <path d="M438.365882,44.4359278 C440.107978,45.9629072 442.338821,46.9420103 444.791549,47.1083299 L444.791549,40.0935567 C444.24883,39.9904536 443.745841,39.7767216 443.30582,39.4764433 L438.365882,44.4359278" id="Fill-89" fill="#CBCCCB" sketch:type="MSShapeGroup"></path>
                                <path d="M446.278778,40.0935567 L446.278778,47.1083299 C448.738252,46.9412577 450.973593,45.9576392 452.717938,44.423134 L447.779499,39.4651546 C447.335729,39.7714536 446.827493,39.9889485 446.278778,40.0935567" id="Fill-90" fill="#CBCCCB" sketch:type="MSShapeGroup"></path>
                                <g id="Group-93" transform="translate(434.774495, 12.041237)">
                                    <mask id="mask-18" sketch:name="Clip 92" fill="white">
                                        <use xlink:href="#path-17"></use>
                                    </mask>
                                    <g id="Clip-92"></g>
                                    <g id="Fill-91">
                                        <use fill="none" sketch:type="MSShapeGroup" mask="url(#mask-18)" xlink:href="#path-19"></use>
                                        <use fill="#E6774A" fill-rule="evenodd" xlink:href="#path-19"></use>
                                    </g>
                                </g>
                                <path d="M476.674012,14.6970825 C476.674012,19.6987113 472.635107,23.7528454 467.652442,23.7528454 C462.670526,23.7528454 458.631621,19.6987113 458.631621,14.6970825 C458.631621,9.69470103 462.670526,5.64056701 467.652442,5.64056701 C472.635107,5.64056701 476.674012,9.69470103 476.674012,14.6970825 L476.674012,14.6970825 Z" id="Fill-94" fill="#FFFFFF" sketch:type="MSShapeGroup"></path>
                                <path d="M476.674012,14.6970825 C476.674012,19.6987113 472.635107,23.7528454 467.652442,23.7528454 C462.670526,23.7528454 458.631621,19.6987113 458.631621,14.6970825 C458.631621,9.69470103 462.670526,5.64056701 467.652442,5.64056701 C472.635107,5.64056701 476.674012,9.69470103 476.674012,14.6970825 L476.674012,14.6970825 Z" id="Stroke-95" stroke="#81C064" stroke-width="0.5" sketch:type="MSShapeGroup"></path>
                                <path d="M463.83842,14.3305773 L466.624725,17.1271546 L471.466463,12.2662577" id="Stroke-96" stroke="#81C064" stroke-width="2.124" stroke-linecap="round" stroke-linejoin="round" sketch:type="MSShapeGroup"></path>
                                <path d="M265.565404,60.4269175 C265.565404,58.8668596 264.668449,57.853835 263.398601,57.853835 C262.733443,57.853835 262.14891,58.1780029 261.755862,58.7149059 L261.755862,56.4153401 C261.755862,56.2228654 261.584533,56.0506512 261.393048,56.0506512 C261.171329,56.0506512 261,56.2228654 261,56.4153401 L261,62.5542692 C261,62.7568741 261.171329,62.9290883 261.372892,62.9290883 C261.584533,62.9290883 261.755862,62.7568741 261.755862,62.5542692 L261.755862,62.1389291 C262.118675,62.6353111 262.713286,62.9898698 263.398601,62.9898698 C264.668449,62.9898698 265.565404,62.0173661 265.565404,60.4269175 L265.565404,60.4269175 Z M264.779308,60.4269175 C264.779308,61.5108538 264.194775,62.3111433 263.207116,62.3111433 C262.612505,62.3111433 262.017894,61.9667149 261.755862,61.5412446 L261.755862,59.3227207 C262.017894,58.8972504 262.612505,58.5325615 263.207116,58.5325615 C264.194775,58.5325615 264.779308,59.3429812 264.779308,60.4269175 L264.779308,60.4269175 Z M267.607877,56.2532562 C267.335767,56.2532562 267.10397,56.4862518 267.10397,56.7698987 C267.10397,57.0535456 267.335767,57.276411 267.607877,57.276411 C267.890066,57.276411 268.121863,57.0535456 268.121863,56.7698987 C268.121863,56.4862518 267.890066,56.2532562 267.607877,56.2532562 L267.607877,56.2532562 Z M267.990847,62.5542692 L267.990847,58.2793054 C267.990847,58.0868307 267.819519,57.9146165 267.628034,57.9146165 C267.406314,57.9146165 267.234986,58.0868307 267.234986,58.2793054 L267.234986,62.5542692 C267.234986,62.7568741 267.406314,62.9290883 267.607877,62.9290883 C267.819519,62.9290883 267.990847,62.7568741 267.990847,62.5542692 L267.990847,62.5542692 Z M272.069108,62.5542692 C272.069108,62.382055 271.917935,62.2402315 271.746607,62.2402315 C271.625669,62.2402315 271.474497,62.3111433 271.343481,62.3111433 C271.010901,62.3111433 270.849651,62.0477569 270.849651,61.683068 L270.849651,58.6439942 L271.575278,58.6439942 C271.756685,58.6439942 271.897779,58.5021708 271.897779,58.3198263 C271.897779,58.1172214 271.756685,57.975398 271.575278,57.975398 L270.849651,57.975398 L270.849651,56.9421129 C270.849651,56.7496382 270.678322,56.577424 270.486837,56.577424 C270.265118,56.577424 270.093789,56.7496382 270.093789,56.9421129 L270.093789,57.975398 L269.549569,57.975398 C269.368162,57.975398 269.227068,58.1172214 269.227068,58.2995658 C269.227068,58.5021708 269.368162,58.6439942 269.549569,58.6439942 L270.093789,58.6439942 L270.093789,61.845152 C270.093789,62.5745297 270.456603,62.9898698 271.172152,62.9898698 C271.605513,62.9898698 272.069108,62.878437 272.069108,62.5542692 L272.069108,62.5542692 Z M279.201049,61.3386397 L279.201049,60.0014472 C279.201049,59.6671491 278.928939,59.3936324 278.59636,59.3936324 L276.359009,59.3936324 C276.157446,59.3936324 275.996196,59.5557164 275.996196,59.7583213 C275.996196,59.9811867 276.157446,60.1432706 276.359009,60.1432706 L278.364562,60.1432706 L278.364562,61.5209841 C278.031983,61.8552822 277.366825,62.2503618 276.560573,62.2503618 C275.089162,62.2503618 273.970487,61.0955137 273.970487,59.4949349 C273.970487,57.8842258 275.089162,56.7496382 276.560573,56.7496382 C277.225731,56.7496382 277.900967,57.0231548 278.32425,57.4790159 C278.404875,57.5600579 278.495578,57.6005789 278.59636,57.6005789 C278.818079,57.6005789 278.97933,57.4283647 278.97933,57.2054993 C278.97933,57.1041968 278.949095,56.9927641 278.86847,56.9218524 C278.334328,56.3849493 277.568388,56 276.560573,56 C274.645723,56 273.103765,57.397974 273.103765,59.4949349 C273.103765,61.5918958 274.645723,63 276.560573,63 C277.749795,63 279.201049,62.382055 279.201049,61.3386397 L279.201049,61.3386397 Z M287.401275,59.4949349 C287.401275,57.4992764 286.050802,56 284.065406,56 C282.069931,56 280.729536,57.4992764 280.729536,59.4949349 C280.729536,61.4905933 282.069931,62.9898698 284.065406,62.9898698 C286.050802,62.9898698 287.401275,61.4905933 287.401275,59.4949349 L287.401275,59.4949349 Z M286.534554,59.4949349 C286.534554,61.065123 285.567051,62.2402315 284.065406,62.2402315 C282.553683,62.2402315 281.596258,61.065123 281.596258,59.4949349 C281.596258,57.9146165 282.553683,56.7496382 284.065406,56.7496382 C285.567051,56.7496382 286.534554,57.9146165 286.534554,59.4949349 L286.534554,59.4949349 Z M293.172666,62.4833575 C293.172666,62.2807525 293.011415,62.1186686 292.809852,62.1186686 L289.987969,62.1186686 L289.987969,56.4558611 C289.987969,56.2329957 289.806562,56.0506512 289.584842,56.0506512 C289.332889,56.0506512 289.151482,56.2329957 289.151482,56.4558611 L289.151482,62.260492 C289.151482,62.5947902 289.423592,62.8683068 289.756171,62.8683068 L292.809852,62.8683068 C293.011415,62.8683068 293.172666,62.7062229 293.172666,62.4833575 L293.172666,62.4833575 Z M300.475936,59.4949349 C300.475936,57.5803184 299.115385,56.1114327 297.029207,56.1114327 L295.336077,56.1114327 C295.003498,56.1114327 294.731387,56.3849493 294.731387,56.7192475 L294.731387,62.260492 C294.731387,62.5947902 295.003498,62.8683068 295.336077,62.8683068 L297.029207,62.8683068 C299.115385,62.8683068 300.475936,61.4196816 300.475936,59.4949349 L300.475936,59.4949349 Z M299.609215,59.4949349 C299.609215,60.9435601 298.661868,62.1186686 297.029207,62.1186686 L295.567874,62.1186686 L295.567874,56.8610709 L297.029207,56.8610709 C298.692102,56.8610709 299.609215,58.0361795 299.609215,59.4949349 L299.609215,59.4949349 Z" id="bitGOLD" fill="#C4AF5E" sketch:type="MSShapeGroup"></path>
                                <path d="M346.582642,60.4296081 C346.582642,58.8650218 345.6823,57.8490566 344.407658,57.8490566 C343.739988,57.8490566 343.153248,58.1741655 342.758716,58.712627 L342.758716,56.4063861 C342.758716,56.2133527 342.58674,56.0406386 342.394532,56.0406386 C342.171976,56.0406386 342,56.2133527 342,56.4063861 L342,62.563135 C342,62.766328 342.171976,62.9390421 342.3743,62.9390421 C342.58674,62.9390421 342.758716,62.766328 342.758716,62.563135 L342.758716,62.1465893 C343.122899,62.6444122 343.719755,63 344.407658,63 C345.6823,63 346.582642,62.0246734 346.582642,60.4296081 L346.582642,60.4296081 Z M345.793578,60.4296081 C345.793578,61.5166909 345.206838,62.3193033 344.21545,62.3193033 C343.618593,62.3193033 343.021737,61.9738752 342.758716,61.5471698 L342.758716,59.3222061 C343.021737,58.8955007 343.618593,58.5297533 344.21545,58.5297533 C345.206838,58.5297533 345.793578,59.3425254 345.793578,60.4296081 L345.793578,60.4296081 Z M348.632827,56.2438316 C348.35969,56.2438316 348.127017,56.4775036 348.127017,56.7619739 C348.127017,57.0464441 348.35969,57.2699565 348.632827,57.2699565 C348.916081,57.2699565 349.148754,57.0464441 349.148754,56.7619739 C349.148754,56.4775036 348.916081,56.2438316 348.632827,56.2438316 L348.632827,56.2438316 Z M349.017243,62.563135 L349.017243,58.275762 C349.017243,58.0827286 348.845268,57.9100145 348.65306,57.9100145 C348.430503,57.9100145 348.258528,58.0827286 348.258528,58.275762 L348.258528,62.563135 C348.258528,62.766328 348.430503,62.9390421 348.632827,62.9390421 C348.845268,62.9390421 349.017243,62.766328 349.017243,62.563135 L349.017243,62.563135 Z M353.110902,62.563135 C353.110902,62.3904209 352.959159,62.2481858 352.787183,62.2481858 C352.665789,62.2481858 352.514046,62.3193033 352.382535,62.3193033 C352.0487,62.3193033 351.886841,62.0551524 351.886841,61.6894049 L351.886841,58.6415094 L352.615208,58.6415094 C352.7973,58.6415094 352.938927,58.4992743 352.938927,58.3164006 C352.938927,58.1132075 352.7973,57.9709724 352.615208,57.9709724 L351.886841,57.9709724 L351.886841,56.934688 C351.886841,56.7416546 351.714865,56.5689405 351.522657,56.5689405 C351.300101,56.5689405 351.128125,56.7416546 351.128125,56.934688 L351.128125,57.9709724 L350.58185,57.9709724 C350.399758,57.9709724 350.258131,58.1132075 350.258131,58.2960813 C350.258131,58.4992743 350.399758,58.6415094 350.58185,58.6415094 L351.128125,58.6415094 L351.128125,61.8519594 C351.128125,62.5834543 351.492309,63 352.21056,63 C352.645557,63 353.110902,62.8882438 353.110902,62.563135 L353.110902,62.563135 Z M359.096292,61.0087083 C359.096292,58.478955 355.10039,59.3526851 355.10039,57.8287373 C355.10039,57.1886792 355.677014,56.7518142 356.48631,56.7518142 C357.103399,56.7518142 357.720488,56.934688 358.216182,57.341074 C358.286995,57.4020319 358.378041,57.4325109 358.458971,57.4325109 C358.681528,57.4325109 358.853503,57.2293179 358.853503,57.0261248 C358.853503,56.9143687 358.802922,56.8026125 358.711876,56.7213353 C358.165601,56.2641509 357.417002,56 356.547008,56 C355.221784,56 354.230396,56.7619739 354.230396,57.8795356 C354.230396,60.2975327 358.226298,59.3323657 358.226298,61.0798258 C358.226298,61.5979681 357.841882,62.2481858 356.638053,62.2481858 C355.859105,62.2481858 355.211668,61.9230769 354.746323,61.5065312 C354.675509,61.4455733 354.584463,61.425254 354.503534,61.425254 C354.260745,61.425254 354.109001,61.6487663 354.109001,61.8519594 C354.109001,61.9637155 354.149466,62.0754717 354.240512,62.1567489 C354.817136,62.6647315 355.6062,63 356.607705,63 C358.428622,63 359.096292,61.9941945 359.096292,61.0087083 L359.096292,61.0087083 Z M361.632055,62.5224964 L361.632055,56.4470247 C361.632055,56.2235123 361.449963,56.0406386 361.227407,56.0406386 C360.974501,56.0406386 360.79241,56.2235123 360.79241,56.4470247 L360.79241,62.5224964 C360.79241,62.7561684 360.974501,62.9390421 361.207174,62.9390421 C361.449963,62.9390421 361.632055,62.7561684 361.632055,62.5224964 L361.632055,62.5224964 Z M367.688258,62.4920174 C367.688258,62.2888244 367.526399,62.12627 367.324075,62.12627 L364.491537,62.12627 L364.491537,56.4470247 C364.491537,56.2235123 364.309445,56.0406386 364.086888,56.0406386 C363.833983,56.0406386 363.651891,56.2235123 363.651891,56.4470247 L363.651891,62.2685051 C363.651891,62.6037736 363.925029,62.8780842 364.258864,62.8780842 L367.324075,62.8780842 C367.526399,62.8780842 367.688258,62.7155298 367.688258,62.4920174 L367.688258,62.4920174 Z M373.926553,56.4876633 C373.926553,56.2539913 373.734346,56.0406386 373.471324,56.0406386 C373.289232,56.0406386 373.127373,56.1523948 373.066676,56.3149492 L370.881575,61.9535559 L368.696474,56.3149492 C368.62566,56.1422351 368.463801,56.0406386 368.291826,56.0406386 C368.018688,56.0406386 367.836596,56.2844702 367.836596,56.4876633 C367.836596,56.5486212 367.846712,56.5994194 367.866945,56.6502177 L370.193673,62.4818578 C370.304951,62.7561684 370.578089,62.9390421 370.871459,62.9390421 L370.891691,62.9390421 C371.174945,62.9390421 371.448083,62.7561684 371.559361,62.4818578 L373.896205,56.6502177 C373.916437,56.5994194 373.926553,56.5384615 373.926553,56.4876633 L373.926553,56.4876633 Z M379.92206,62.4920174 C379.92206,62.2888244 379.7602,62.12627 379.557876,62.12627 L376.280225,62.12627 L376.280225,59.7895501 L379.487063,59.7895501 C379.689387,59.7895501 379.851246,59.6269956 379.851246,59.4238026 C379.851246,59.2002903 379.689387,59.0377358 379.487063,59.0377358 L376.280225,59.0377358 L376.280225,56.8534107 L379.557876,56.8534107 C379.7602,56.8534107 379.92206,56.6908563 379.92206,56.4876633 C379.92206,56.2641509 379.7602,56.1015965 379.557876,56.1015965 L376.047552,56.1015965 C375.713717,56.1015965 375.440579,56.3759071 375.440579,56.7111756 L375.440579,62.2685051 C375.440579,62.6037736 375.713717,62.8780842 376.047552,62.8780842 L379.557876,62.8780842 C379.7602,62.8780842 379.92206,62.7155298 379.92206,62.4920174 L379.92206,62.4920174 Z M386.463841,58.1436865 C386.463841,56.8940493 385.583731,56.1015965 384.349553,56.1015965 L382.245382,56.1015965 C381.911547,56.1015965 381.63841,56.3759071 381.63841,56.7111756 L381.63841,62.5224964 C381.63841,62.7561684 381.820501,62.9390421 382.053174,62.9390421 C382.295963,62.9390421 382.478055,62.7561684 382.478055,62.5224964 L382.478055,60.1857765 L383.823511,60.1857765 L385.472453,62.7561684 C385.553382,62.8780842 385.674777,62.9390421 385.806287,62.9390421 C386.049076,62.9390421 386.221052,62.7358491 386.221052,62.532656 C386.221052,62.4615385 386.20082,62.3904209 386.160355,62.3193033 L384.713737,60.1146589 C385.634312,60.0333817 386.463841,59.3628447 386.463841,58.1436865 L386.463841,58.1436865 Z M384.248391,56.8534107 C385.047572,56.8534107 385.593847,57.3817126 385.593847,58.1436865 C385.593847,58.9056604 385.047572,59.4441219 384.248391,59.4441219 L382.478055,59.4441219 L382.478055,56.8534107 L384.248391,56.8534107 Z" id="bitSILVER" fill="#BCCFCA" sketch:type="MSShapeGroup"></path>
                                <path d="M435.536854,60.4333333 C435.536854,58.8710145 434.645507,57.8565217 433.383601,57.8565217 C432.722602,57.8565217 432.141725,58.1811594 431.751135,58.7188406 L431.751135,56.415942 C431.751135,56.2231884 431.580878,56.0507246 431.39059,56.0507246 C431.170257,56.0507246 431,56.2231884 431,56.415942 L431,62.5637681 C431,62.7666667 431.170257,62.9391304 431.37056,62.9391304 C431.580878,62.9391304 431.751135,62.7666667 431.751135,62.5637681 L431.751135,62.1478261 C432.111679,62.6449275 432.702572,63 433.383601,63 C434.645507,63 435.536854,62.026087 435.536854,60.4333333 L435.536854,60.4333333 Z M434.755674,60.4333333 C434.755674,61.5188406 434.174796,62.3202899 433.193313,62.3202899 C432.602421,62.3202899 432.011528,61.9753623 431.751135,61.5492754 L431.751135,59.3275362 C432.011528,58.9014493 432.602421,58.5362319 433.193313,58.5362319 C434.174796,58.5362319 434.755674,59.3478261 434.755674,60.4333333 L434.755674,60.4333333 Z M437.566554,56.2536232 C437.296145,56.2536232 437.065797,56.4869565 437.065797,56.7710145 C437.065797,57.0550725 437.296145,57.2782609 437.566554,57.2782609 C437.846977,57.2782609 438.077325,57.0550725 438.077325,56.7710145 C438.077325,56.4869565 437.846977,56.2536232 437.566554,56.2536232 L437.566554,56.2536232 Z M437.947129,62.5637681 L437.947129,58.2826087 C437.947129,58.0898551 437.776871,57.9173913 437.586584,57.9173913 C437.366251,57.9173913 437.195994,58.0898551 437.195994,58.2826087 L437.195994,62.5637681 C437.195994,62.7666667 437.366251,62.9391304 437.566554,62.9391304 C437.776871,62.9391304 437.947129,62.7666667 437.947129,62.5637681 L437.947129,62.5637681 Z M441.999885,62.5637681 C441.999885,62.3913043 441.849658,62.2492754 441.679401,62.2492754 C441.559219,62.2492754 441.408992,62.3202899 441.278796,62.3202899 C440.948296,62.3202899 440.788054,62.0565217 440.788054,61.6913043 L440.788054,58.6478261 L441.509144,58.6478261 C441.689416,58.6478261 441.829628,58.5057971 441.829628,58.3231884 C441.829628,58.1202899 441.689416,57.9782609 441.509144,57.9782609 L440.788054,57.9782609 L440.788054,56.9434783 C440.788054,56.7507246 440.617797,56.5782609 440.42751,56.5782609 C440.207177,56.5782609 440.036919,56.7507246 440.036919,56.9434783 L440.036919,57.9782609 L439.496102,57.9782609 C439.31583,57.9782609 439.175618,58.1202899 439.175618,58.3028986 C439.175618,58.5057971 439.31583,58.6478261 439.496102,58.6478261 L440.036919,58.6478261 L440.036919,61.8536232 C440.036919,62.584058 440.397464,63 441.108538,63 C441.539189,63 441.999885,62.8884058 441.999885,62.5637681 L441.999885,62.5637681 Z M448.276,61.0521739 C448.276,60.2405797 447.685107,59.5 446.974033,59.3884058 C447.584956,59.2565217 448.145803,58.6884058 448.145803,57.8362319 C448.145803,56.8217391 447.434729,56.1115942 446.272974,56.1115942 L443.899388,56.1115942 C443.568889,56.1115942 443.29848,56.3855072 443.29848,56.7202899 L443.29848,62.2695652 C443.29848,62.6043478 443.568889,62.8782609 443.899388,62.8782609 L446.34308,62.8782609 C447.564926,62.8782609 448.276,62.1376812 448.276,61.0521739 L448.276,61.0521739 Z M447.284502,57.957971 C447.284502,58.5768116 446.883897,59.0434783 446.132762,59.0434783 L444.129736,59.0434783 L444.129736,56.8623188 L446.132762,56.8623188 C446.883897,56.8623188 447.284502,57.3492754 447.284502,57.957971 L447.284502,57.957971 Z M447.414699,60.9608696 C447.414699,61.6811594 446.954003,62.1275362 446.172823,62.1275362 L444.129736,62.1275362 L444.129736,59.7942029 L446.172823,59.7942029 C446.994063,59.7942029 447.414699,60.342029 447.414699,60.9608696 L447.414699,60.9608696 Z M454.532085,56.4971014 C454.532085,56.273913 454.371843,56.1115942 454.17154,56.1115942 L449.704792,56.1115942 C449.50449,56.1115942 449.344247,56.273913 449.344247,56.4768116 C449.344247,56.7 449.50449,56.8623188 449.704792,56.8623188 L451.517531,56.8623188 L451.517531,62.5231884 C451.517531,62.7565217 451.697803,62.9391304 451.928151,62.9391304 C452.168514,62.9391304 452.348786,62.7565217 452.348786,62.5231884 L452.348786,56.8623188 L454.17154,56.8623188 C454.371843,56.8623188 454.532085,56.7 454.532085,56.4971014 L454.532085,56.4971014 Z M459.175733,56 C457.252829,56 455.740544,57.4202899 455.740544,59.5 C455.740544,61.5797101 457.252829,63 459.175733,63 C460.177246,63 460.888321,62.5942029 461.409107,62.0463768 C461.479213,61.9652174 461.519274,61.8637681 461.519274,61.7623188 C461.519274,61.5492754 461.359032,61.3463768 461.128684,61.3463768 C461.028532,61.3463768 460.918366,61.3971014 460.84826,61.4782609 C460.427625,61.9753623 459.806687,62.2492754 459.175733,62.2492754 C457.713525,62.2492754 456.601845,61.1028986 456.601845,59.5 C456.601845,57.8869565 457.713525,56.7507246 459.175733,56.7507246 C459.796671,56.7507246 460.45767,57.0550725 460.84826,57.5318841 C460.918366,57.6231884 461.028532,57.6637681 461.128684,57.6637681 C461.349017,57.6637681 461.519274,57.4710145 461.519274,57.257971 C461.519274,57.1463768 461.479213,57.0449275 461.409107,56.9637681 C460.898336,56.4057971 460.177246,56 459.175733,56 L459.175733,56 Z" id="bitBTC" fill="#E6764A" sketch:type="MSShapeGroup"></path>
                                <path d="M187.509175,60.4145985 C187.509175,58.8408759 186.623266,57.8189781 185.369059,57.8189781 C184.712093,57.8189781 184.134759,58.1459854 183.746552,58.6875912 L183.746552,56.3678832 C183.746552,56.1737226 183.577334,56 183.388207,56 C183.169218,56 183,56.1737226 183,56.3678832 L183,62.5605839 C183,62.7649635 183.169218,62.9386861 183.368299,62.9386861 C183.577334,62.9386861 183.746552,62.7649635 183.746552,62.5605839 L183.746552,62.1416058 C184.104897,62.6423358 184.692185,63 185.369059,63 C186.623266,63 187.509175,62.0189781 187.509175,60.4145985 L187.509175,60.4145985 Z M186.732761,60.4145985 C186.732761,61.5080292 186.155427,62.3153285 185.179932,62.3153285 C184.592645,62.3153285 184.005357,61.9678832 183.746552,61.5386861 L183.746552,59.3007299 C184.005357,58.8715328 184.592645,58.5036496 185.179932,58.5036496 C186.155427,58.5036496 186.732761,59.3211679 186.732761,60.4145985 L186.732761,60.4145985 Z M189.526492,56.2043796 C189.257733,56.2043796 189.028791,56.4394161 189.028791,56.7255474 C189.028791,57.0116788 189.257733,57.2364964 189.526492,57.2364964 C189.805205,57.2364964 190.034148,57.0116788 190.034148,56.7255474 C190.034148,56.4394161 189.805205,56.2043796 189.526492,56.2043796 L189.526492,56.2043796 Z M189.904745,62.5605839 L189.904745,58.2481752 C189.904745,58.0540146 189.735527,57.880292 189.5464,57.880292 C189.327412,57.880292 189.158193,58.0540146 189.158193,58.2481752 L189.158193,62.5605839 C189.158193,62.7649635 189.327412,62.9386861 189.526492,62.9386861 C189.735527,62.9386861 189.904745,62.7649635 189.904745,62.5605839 L189.904745,62.5605839 Z M193.932776,62.5605839 C193.932776,62.3868613 193.783466,62.2437956 193.614247,62.2437956 C193.494799,62.2437956 193.345488,62.3153285 193.216086,62.3153285 C192.887603,62.3153285 192.728339,62.049635 192.728339,61.6817518 L192.728339,58.6160584 L193.445029,58.6160584 C193.624201,58.6160584 193.763558,58.4729927 193.763558,58.2890511 C193.763558,58.0846715 193.624201,57.9416058 193.445029,57.9416058 L192.728339,57.9416058 L192.728339,56.8992701 C192.728339,56.7051095 192.55912,56.5313869 192.369994,56.5313869 C192.151005,56.5313869 191.981787,56.7051095 191.981787,56.8992701 L191.981787,57.9416058 L191.444269,57.9416058 C191.265096,57.9416058 191.12574,58.0846715 191.12574,58.2686131 C191.12574,58.4729927 191.265096,58.6160584 191.444269,58.6160584 L191.981787,58.6160584 L191.981787,61.8452555 C191.981787,62.5810219 192.340132,63 193.046868,63 C193.474891,63 193.932776,62.8875912 193.932776,62.5605839 L193.932776,62.5605839 Z M199.633084,62.4890511 C199.633084,62.2846715 199.473819,62.1211679 199.274739,62.1211679 L196.049634,62.1211679 L196.049634,59.7708029 L199.205061,59.7708029 C199.404141,59.7708029 199.563406,59.6072993 199.563406,59.4029197 C199.563406,59.1781022 199.404141,59.0145985 199.205061,59.0145985 L196.049634,59.0145985 L196.049634,56.8175182 L199.274739,56.8175182 C199.473819,56.8175182 199.633084,56.6540146 199.633084,56.449635 C199.633084,56.2248175 199.473819,56.0613139 199.274739,56.0613139 L195.820691,56.0613139 C195.492208,56.0613139 195.223449,56.3372263 195.223449,56.6744526 L195.223449,62.2642336 C195.223449,62.6014599 195.492208,62.8773723 195.820691,62.8773723 L199.274739,62.8773723 C199.473819,62.8773723 199.633084,62.7138686 199.633084,62.4890511 L199.633084,62.4890511 Z M206.73691,60.220438 L206.73691,56.4087591 C206.73691,56.1839416 206.557737,56 206.338749,56 C206.089898,56 205.910725,56.1839416 205.910725,56.4087591 L205.910725,60.210219 C205.910725,61.4569343 205.253759,62.2437956 204.029414,62.2437956 C202.805068,62.2437956 202.148103,61.4569343 202.148103,60.210219 L202.148103,56.4087591 C202.148103,56.1839416 201.96893,56 201.749941,56 C201.501091,56 201.321918,56.1839416 201.321918,56.4087591 L201.321918,60.2306569 C201.321918,61.9065693 202.227735,63 204.029414,63 C205.831093,63 206.73691,61.9167883 206.73691,60.220438 L206.73691,60.220438 Z M213.472436,58.1153285 C213.472436,56.8583942 212.606436,56.0613139 211.392044,56.0613139 L209.321607,56.0613139 C208.993124,56.0613139 208.724365,56.3372263 208.724365,56.6744526 L208.724365,62.519708 C208.724365,62.7547445 208.903537,62.9386861 209.13248,62.9386861 C209.371377,62.9386861 209.550549,62.7547445 209.550549,62.519708 L209.550549,60.1693431 L210.874435,60.1693431 L212.496942,62.7547445 C212.576574,62.8773723 212.696022,62.9386861 212.825425,62.9386861 C213.064321,62.9386861 213.23354,62.7343066 213.23354,62.529927 C213.23354,62.4583942 213.213632,62.3868613 213.173816,62.3153285 L211.75039,60.0978102 C212.656206,60.0160584 213.472436,59.3416058 213.472436,58.1153285 L213.472436,58.1153285 Z M211.292504,56.8175182 C212.078872,56.8175182 212.61639,57.3489051 212.61639,58.1153285 C212.61639,58.8817518 212.078872,59.4233577 211.292504,59.4233577 L209.550549,59.4233577 L209.550549,56.8175182 L211.292504,56.8175182 Z" id="bitEUR" fill="#2585A6" sketch:type="MSShapeGroup"></path>
                                <path d="M104.603493,60.4333333 C104.603493,58.8710145 103.699054,57.8565217 102.418612,57.8565217 C101.747905,57.8565217 101.158495,58.1811594 100.762168,58.7188406 L100.762168,56.415942 C100.762168,56.2231884 100.58941,56.0507246 100.396327,56.0507246 C100.172758,56.0507246 100,56.2231884 100,56.415942 L100,62.5637681 C100,62.7666667 100.172758,62.9391304 100.376003,62.9391304 C100.58941,62.9391304 100.762168,62.7666667 100.762168,62.5637681 L100.762168,62.1478261 C101.128008,62.6449275 101.72758,63 102.418612,63 C103.699054,63 104.603493,62.026087 104.603493,60.4333333 L104.603493,60.4333333 Z M103.810838,60.4333333 C103.810838,61.5188406 103.221429,62.3202899 102.22553,62.3202899 C101.625958,62.3202899 101.026386,61.9753623 100.762168,61.5492754 L100.762168,59.3275362 C101.026386,58.9014493 101.625958,58.5362319 102.22553,58.5362319 C103.221429,58.5362319 103.810838,59.3478261 103.810838,60.4333333 L103.810838,60.4333333 Z M106.663006,56.2536232 C106.388625,56.2536232 106.154894,56.4869565 106.154894,56.7710145 C106.154894,57.0550725 106.388625,57.2782609 106.663006,57.2782609 C106.947548,57.2782609 107.18128,57.0550725 107.18128,56.7710145 C107.18128,56.4869565 106.947548,56.2536232 106.663006,56.2536232 L106.663006,56.2536232 Z M107.049171,62.5637681 L107.049171,58.2826087 C107.049171,58.0898551 106.876413,57.9173913 106.68333,57.9173913 C106.459761,57.9173913 106.287003,58.0898551 106.287003,58.2826087 L106.287003,62.5637681 C106.287003,62.7666667 106.459761,62.9391304 106.663006,62.9391304 C106.876413,62.9391304 107.049171,62.7666667 107.049171,62.5637681 L107.049171,62.5637681 Z M111.161456,62.5637681 C111.161456,62.3913043 111.009022,62.2492754 110.836264,62.2492754 C110.714317,62.2492754 110.561884,62.3202899 110.429775,62.3202899 C110.094421,62.3202899 109.931825,62.0565217 109.931825,61.6913043 L109.931825,58.6478261 L110.663506,58.6478261 C110.846426,58.6478261 110.988698,58.5057971 110.988698,58.3231884 C110.988698,58.1202899 110.846426,57.9782609 110.663506,57.9782609 L109.931825,57.9782609 L109.931825,56.9434783 C109.931825,56.7507246 109.759067,56.5782609 109.565985,56.5782609 C109.342415,56.5782609 109.169657,56.7507246 109.169657,56.9434783 L109.169657,57.9782609 L108.620897,57.9782609 C108.437976,57.9782609 108.295705,58.1202899 108.295705,58.3028986 C108.295705,58.5057971 108.437976,58.6478261 108.620897,58.6478261 L109.169657,58.6478261 L109.169657,61.8536232 C109.169657,62.584058 109.535498,63 110.257017,63 C110.693993,63 111.161456,62.8884058 111.161456,62.5637681 L111.161456,62.5637681 Z M115.690392,56 C113.739243,56 112.204745,57.4202899 112.204745,59.5 C112.204745,61.5797101 113.739243,63 115.690392,63 C116.706615,63 117.428134,62.5942029 117.95657,62.0463768 C118.027706,61.9652174 118.068355,61.8637681 118.068355,61.7623188 C118.068355,61.5492754 117.905759,61.3463768 117.672028,61.3463768 C117.570405,61.3463768 117.458621,61.3971014 117.387485,61.4782609 C116.960671,61.9753623 116.330613,62.2492754 115.690392,62.2492754 C114.206705,62.2492754 113.078697,61.1028986 113.078697,59.5 C113.078697,57.8869565 114.206705,56.7507246 115.690392,56.7507246 C116.32045,56.7507246 116.991158,57.0550725 117.387485,57.5318841 C117.458621,57.6231884 117.570405,57.6637681 117.672028,57.6637681 C117.895597,57.6637681 118.068355,57.4710145 118.068355,57.257971 C118.068355,57.1463768 118.027706,57.0449275 117.95657,56.9637681 C117.438296,56.4057971 116.706615,56 115.690392,56 L115.690392,56 Z M125.402068,62.4623188 L125.402068,56.4565217 C125.402068,56.2333333 125.219148,56.0507246 124.995579,56.0507246 C124.741523,56.0507246 124.558603,56.2333333 124.558603,56.4565217 L124.558603,61.3971014 L120.778251,56.273913 C120.676629,56.1318841 120.503871,56.0507246 120.331113,56.0507246 C120.016084,56.0507246 119.792514,56.2942029 119.792514,56.557971 L119.792514,62.5231884 C119.792514,62.7565217 119.975435,62.9391304 120.209166,62.9391304 C120.45306,62.9391304 120.63598,62.7565217 120.63598,62.5231884 L120.63598,57.4811594 L124.477305,62.726087 C124.568765,62.857971 124.731361,62.9391304 124.893957,62.9391304 C125.198824,62.9391304 125.402068,62.7057971 125.402068,62.4623188 L125.402068,62.4623188 Z M132.583348,56.4565217 C132.583348,56.2434783 132.390266,56.0608696 132.166697,56.0608696 C132.04475,56.0608696 131.912641,56.1217391 131.841505,56.2231884 L129.81922,59.2565217 L127.796935,56.2231884 C127.715637,56.1115942 127.573366,56.0507246 127.451419,56.0507246 C127.197363,56.0507246 127.04493,56.2637681 127.04493,56.4565217 C127.04493,56.5376812 127.075417,56.6086957 127.116066,56.6695652 L129.402569,60.0173913 L129.402569,62.5231884 C129.402569,62.7565217 129.585489,62.9391304 129.81922,62.9391304 C130.063114,62.9391304 130.246034,62.7565217 130.246034,62.5231884 L130.246034,60.0173913 L132.522375,56.6695652 C132.563024,56.6086957 132.583348,56.5275362 132.583348,56.4565217 L132.583348,56.4565217 Z" id="bitCNY" fill="#D1595B" sketch:type="MSShapeGroup"></path>
                                <path d="M22.4972308,60.4296081 C22.4972308,58.8650218 21.6136689,57.8490566 20.3627835,57.8490566 C19.7075578,57.8490566 19.1317534,58.1741655 18.7445746,58.712627 L18.7445746,56.4063861 C18.7445746,56.2133527 18.5758044,56.0406386 18.3871788,56.0406386 C18.1687702,56.0406386 18,56.2133527 18,56.4063861 L18,62.563135 C18,62.766328 18.1687702,62.9390421 18.3673235,62.9390421 C18.5758044,62.9390421 18.7445746,62.766328 18.7445746,62.563135 L18.7445746,62.1465893 C19.1019705,62.6444122 19.6877025,63 20.3627835,63 C21.6136689,63 22.4972308,62.0246734 22.4972308,60.4296081 L22.4972308,60.4296081 Z M21.7228731,60.4296081 C21.7228731,61.5166909 21.1470688,62.3193033 20.1741579,62.3193033 C19.5884259,62.3193033 19.0026938,61.9738752 18.7445746,61.5471698 L18.7445746,59.3222061 C19.0026938,58.8955007 19.5884259,58.5297533 20.1741579,58.5297533 C21.1470688,58.5297533 21.7228731,59.3425254 21.7228731,60.4296081 L21.7228731,60.4296081 Z M24.5092043,56.2438316 C24.2411574,56.2438316 24.0128212,56.4775036 24.0128212,56.7619739 C24.0128212,57.0464441 24.2411574,57.2699565 24.5092043,57.2699565 C24.7871788,57.2699565 25.015515,57.0464441 25.015515,56.7619739 C25.015515,56.4775036 24.7871788,56.2438316 24.5092043,56.2438316 L24.5092043,56.2438316 Z M24.8864554,62.563135 L24.8864554,58.275762 C24.8864554,58.0827286 24.7176852,57.9100145 24.5290596,57.9100145 C24.310651,57.9100145 24.1418808,58.0827286 24.1418808,58.275762 L24.1418808,62.563135 C24.1418808,62.766328 24.310651,62.9390421 24.5092043,62.9390421 C24.7176852,62.9390421 24.8864554,62.766328 24.8864554,62.563135 L24.8864554,62.563135 Z M28.9038166,62.563135 C28.9038166,62.3904209 28.7549017,62.2481858 28.5861314,62.2481858 C28.4669995,62.2481858 28.3180846,62.3193033 28.189025,62.3193033 C27.8614121,62.3193033 27.7025695,62.0551524 27.7025695,61.6894049 L27.7025695,58.6415094 L28.4173612,58.6415094 C28.5960591,58.6415094 28.7350464,58.4992743 28.7350464,58.3164006 C28.7350464,58.1132075 28.5960591,57.9709724 28.4173612,57.9709724 L27.7025695,57.9709724 L27.7025695,56.934688 C27.7025695,56.7416546 27.5337993,56.5689405 27.3451737,56.5689405 C27.1267652,56.5689405 26.9579949,56.7416546 26.9579949,56.934688 L26.9579949,57.9709724 L26.4219012,57.9709724 C26.2432033,57.9709724 26.104216,58.1132075 26.104216,58.2960813 C26.104216,58.4992743 26.2432033,58.6415094 26.4219012,58.6415094 L26.9579949,58.6415094 L26.9579949,61.8519594 C26.9579949,62.5834543 27.3153907,63 28.0202547,63 C28.4471442,63 28.9038166,62.8882438 28.9038166,62.563135 L28.9038166,62.563135 Z M35.5917188,60.2365747 L35.5917188,56.4470247 C35.5917188,56.2235123 35.4130209,56.0406386 35.1946123,56.0406386 C34.9464208,56.0406386 34.7677229,56.2235123 34.7677229,56.4470247 L34.7677229,60.2264151 C34.7677229,61.4658926 34.1124972,62.2481858 32.8913948,62.2481858 C31.6702924,62.2481858 31.0150668,61.4658926 31.0150668,60.2264151 L31.0150668,56.4470247 C31.0150668,56.2235123 30.8363688,56.0406386 30.6179603,56.0406386 C30.3697687,56.0406386 30.1910708,56.2235123 30.1910708,56.4470247 L30.1910708,60.2467344 C30.1910708,61.9129173 31.094488,63 32.8913948,63 C34.6883016,63 35.5917188,61.9230769 35.5917188,60.2365747 L35.5917188,60.2365747 Z M42.1604891,61.0087083 C42.1604891,58.478955 38.2390627,59.3526851 38.2390627,57.8287373 C38.2390627,57.1886792 38.8049394,56.7518142 39.5991523,56.7518142 C40.2047397,56.7518142 40.8103271,56.934688 41.2967825,57.341074 C41.3662761,57.4020319 41.4556251,57.4325109 41.5350464,57.4325109 C41.7534549,57.4325109 41.9222252,57.2293179 41.9222252,57.0261248 C41.9222252,56.9143687 41.8725869,56.8026125 41.7832379,56.7213353 C41.2471442,56.2641509 40.5124972,56 39.6587183,56 C38.3581946,56 37.3852838,56.7619739 37.3852838,57.8795356 C37.3852838,60.2975327 41.3067101,59.3323657 41.3067101,61.0798258 C41.3067101,61.5979681 40.929459,62.2481858 39.7480673,62.2481858 C38.9836373,62.2481858 38.348267,61.9230769 37.8915945,61.5065312 C37.8221009,61.4455733 37.7327519,61.425254 37.6533306,61.425254 C37.4150668,61.425254 37.2661518,61.6487663 37.2661518,61.8519594 C37.2661518,61.9637155 37.3058625,62.0754717 37.3952114,62.1567489 C37.9610881,62.6647315 38.7354458,63 39.7182843,63 C41.5052634,63 42.1604891,61.9941945 42.1604891,61.0087083 L42.1604891,61.0087083 Z M49.4837616,59.4949202 C49.4837616,57.574746 48.1435273,56.1015965 46.0885013,56.1015965 L44.4206541,56.1015965 C44.0930413,56.1015965 43.8249944,56.3759071 43.8249944,56.7111756 L43.8249944,62.2685051 C43.8249944,62.6037736 44.0930413,62.8780842 44.4206541,62.8780842 L46.0885013,62.8780842 C48.1435273,62.8780842 49.4837616,61.425254 49.4837616,59.4949202 L49.4837616,59.4949202 Z M48.6299827,59.4949202 C48.6299827,60.9477504 47.6967825,62.12627 46.0885013,62.12627 L44.6489903,62.12627 L44.6489903,56.8534107 L46.0885013,56.8534107 C47.7265655,56.8534107 48.6299827,58.0319303 48.6299827,59.4949202 L48.6299827,59.4949202 Z" id="bitUSD" fill="#81C064" sketch:type="MSShapeGroup"></path>
                            </g>
                        </g>
                    </g>
                </g>
            </g>
        </g>
    </g>
</svg>